<svg width="403" height="325" viewBox="0 0 403 325" fill="none" xmlns="http://www.w3.org/2000/svg">
<path d="M195.944 249.732L290.68 195.079L173.562 126.645L79.0411 182.214L195.944 249.732Z" fill="#9DBBFD"/>
<path d="M114.616 202.76L195.943 249.731L290.679 195.079L255.13 174.307C211.037 203.651 140.884 203.854 114.616 202.76Z" fill="#8DACED"/>
<path d="M275.345 188.45L276.44 186.74L182.771 131.974L181.919 133.589L275.345 188.45Z" fill="#3B3632"/>
<path d="M158.354 219.845L181.713 206.364L150.524 188.141L127.222 201.865L158.354 219.845Z" fill="#CCE1FD"/>
<path d="M195.944 249.732L290.68 195.079L290.864 80.0584L173.562 12.1417L178.378 10.0398L295.825 77.4947L295.472 197.529L196.259 254.772L79.3949 186.838L79.0411 182.214L195.944 249.732Z" fill="#759BFD"/>
<path d="M290.68 195.079L290.864 80.0582L173.562 12.1426V126.645L290.68 195.079Z" fill="#B5CBFD"/>
<path d="M290.68 195.079L290.865 80.0572L261.252 62.9119C240.722 98.4649 204.302 126.787 190.652 136.63L290.68 195.079Z" fill="#A1BAED"/>
<path d="M285.979 186.325L285.716 85.2108L178.994 23.426L179.505 124.109L285.979 186.325Z" fill="#26215B"/>
<path d="M248.761 63.8154L178.994 23.4248L179.505 124.108L184.515 127.034C199.403 118.64 231.442 97.5793 248.761 63.8154Z" fill="#363675"/>
<path d="M183.137 181.849L177.286 178.431L173.504 180.67L179.329 184.088L183.137 181.849Z" fill="#39302A"/>
<path d="M166.49 172.122L160.633 168.699L156.885 170.918L162.717 174.341L166.49 172.122Z" fill="#39302A"/>
<path d="M199.783 191.576L193.939 188.161L190.122 190.421L195.94 193.835L199.783 191.576Z" fill="#39302A"/>
<path d="M148.576 166.043L154.41 169.466L158.166 167.258L152.306 163.834L148.576 166.043Z" fill="#39302A"/>
<path d="M174.813 176.985L168.96 173.565L165.194 175.794L171.023 179.214L174.813 176.985Z" fill="#39302A"/>
<path d="M191.46 186.712L185.613 183.296L181.812 185.545L187.634 188.961L191.46 186.712Z" fill="#39302A"/>
<path d="M149.844 162.395L136.755 154.748L133.047 156.931L146.105 164.593L149.844 162.395Z" fill="#39302A"/>
<path d="M223.36 209.924L237.557 218.254L241.523 215.966L227.246 207.623L223.36 209.924Z" fill="#39302A"/>
<path d="M208.106 196.439L202.266 193.026L198.432 195.296L204.247 198.708L208.106 196.439Z" fill="#39302A"/>
<path d="M224.753 206.167L218.919 202.757L215.051 205.047L220.859 208.456L224.753 206.167Z" fill="#39302A"/>
<path d="M216.43 201.303L210.592 197.892L206.741 200.173L212.553 203.582L216.43 201.303Z" fill="#39302A"/>
<path d="M191.016 177.216L185.137 173.782L181.355 176.021L187.208 179.455L191.016 177.216Z" fill="#39302A"/>
<path d="M182.693 172.353L176.812 168.917L173.046 171.146L178.903 174.582L182.693 172.353Z" fill="#39302A"/>
<path d="M174.37 167.489L168.485 164.051L164.737 166.27L170.596 169.708L174.37 167.489Z" fill="#39302A"/>
<path d="M156.427 161.394L162.29 164.835L166.046 162.626L160.158 159.186L156.427 161.394Z" fill="#39302A"/>
<path d="M231.211 205.274L245.374 213.585L249.339 211.296L235.097 202.974L231.211 205.274Z" fill="#39302A"/>
<path d="M199.339 182.08L193.464 178.647L189.664 180.897L195.514 184.329L199.339 182.08Z" fill="#39302A"/>
<path d="M157.723 157.762L144.571 150.078L140.863 152.262L153.984 159.961L157.723 157.762Z" fill="#39302A"/>
<path d="M207.663 186.943L201.791 183.512L197.974 185.772L203.82 189.202L207.663 186.943Z" fill="#39302A"/>
<path d="M232.632 201.534L226.77 198.109L222.901 200.399L228.738 203.824L232.632 201.534Z" fill="#39302A"/>
<path d="M224.31 196.671L218.444 193.243L214.593 195.523L220.433 198.951L224.31 196.671Z" fill="#39302A"/>
<path d="M215.986 191.807L210.117 188.378L206.283 190.648L212.126 194.077L215.986 191.807Z" fill="#39302A"/>
<path d="M191.903 196.209L161.108 178.214L157.343 180.443L188.061 198.468L191.903 196.209Z" fill="#39302A"/>
<path d="M132.415 165.816L138.226 169.225L141.964 167.027L136.129 163.617L132.415 165.816Z" fill="#39302A"/>
<path d="M150.287 171.891L144.454 168.483L140.724 170.692L146.531 174.099L150.287 171.891Z" fill="#39302A"/>
<path d="M158.61 176.755L152.781 173.348L149.033 175.567L154.837 178.973L158.61 176.755Z" fill="#39302A"/>
<path d="M200.227 201.072L194.414 197.675L190.58 199.946L196.367 203.341L200.227 201.072Z" fill="#39302A"/>
<path d="M133.641 162.164L128.939 159.416L125.231 161.601L129.919 164.352L133.641 162.164Z" fill="#39302A"/>
<path d="M207.199 209.696L229.741 222.924L233.707 220.635L211.067 207.406L207.199 209.696Z" fill="#39302A"/>
<path d="M208.55 205.936L202.74 202.541L198.889 204.821L204.673 208.215L208.55 205.936Z" fill="#39302A"/>
<path d="M206.776 167.952L200.842 164.484L197.06 166.724L202.968 170.191L206.776 167.952Z" fill="#39302A"/>
<path d="M198.453 163.088L192.515 159.619L188.75 161.848L194.662 165.317L198.453 163.088Z" fill="#39302A"/>
<path d="M190.129 158.225L184.189 154.754L180.44 156.973L186.356 160.443L190.129 158.225Z" fill="#39302A"/>
<path d="M215.099 172.816L209.168 169.349L205.368 171.599L211.273 175.064L215.099 172.816Z" fill="#39302A"/>
<path d="M181.807 153.361L175.863 149.888L172.131 152.097L178.049 155.569L181.807 153.361Z" fill="#39302A"/>
<path d="M163.821 147.222L169.743 150.696L173.482 148.498L167.535 145.023L163.821 147.222Z" fill="#39302A"/>
<path d="M223.422 177.679L217.494 174.215L213.677 176.475L219.579 179.938L223.422 177.679Z" fill="#39302A"/>
<path d="M248.393 192.27L242.475 188.812L238.606 191.101L244.498 194.559L248.393 192.27Z" fill="#39302A"/>
<path d="M246.915 195.978L261.006 204.246L264.972 201.958L250.8 193.677L246.915 195.978Z" fill="#39302A"/>
<path d="M165.16 143.634L160.204 140.739L156.496 142.923L161.438 145.822L165.16 143.634Z" fill="#39302A"/>
<path d="M240.069 187.406L234.148 183.946L230.297 186.226L236.192 189.685L240.069 187.406Z" fill="#39302A"/>
<path d="M231.746 182.543L225.821 179.08L221.987 181.35L227.886 184.811L231.746 182.543Z" fill="#39302A"/>
<path d="M207.219 177.448L201.316 173.998L197.516 176.248L203.394 179.697L207.219 177.448Z" fill="#39302A"/>
<path d="M198.896 172.585L192.99 169.133L189.208 171.372L195.088 174.822L198.896 172.585Z" fill="#39302A"/>
<path d="M182.249 162.858L176.337 159.402L172.589 161.621L178.476 165.075L182.249 162.858Z" fill="#39302A"/>
<path d="M164.279 156.746L170.17 160.202L173.926 157.994L168.01 154.537L164.279 156.746Z" fill="#39302A"/>
<path d="M190.573 167.721L184.663 164.268L180.898 166.497L186.782 169.949L190.573 167.721Z" fill="#39302A"/>
<path d="M215.542 182.312L209.643 178.864L205.826 181.123L211.7 184.571L215.542 182.312Z" fill="#39302A"/>
<path d="M248.836 201.765L242.949 198.326L239.063 200.626L244.925 204.065L248.836 201.765Z" fill="#39302A"/>
<path d="M165.602 153.131L152.388 145.408L148.68 147.592L161.864 155.328L165.602 153.131Z" fill="#39302A"/>
<path d="M247.372 205.501L253.19 208.915L257.156 206.627L251.275 203.191L247.372 205.501Z" fill="#39302A"/>
<path d="M240.513 196.901L234.623 193.46L230.754 195.75L236.619 199.191L240.513 196.901Z" fill="#39302A"/>
<path d="M223.866 187.175L217.969 183.729L214.135 185.999L220.006 189.444L223.866 187.175Z" fill="#39302A"/>
<path d="M232.189 192.038L226.296 188.594L222.445 190.874L228.312 194.318L232.189 192.038Z" fill="#39302A"/>
<path d="M214.656 163.319L208.694 159.835L204.911 162.075L210.848 165.558L214.656 163.319Z" fill="#39302A"/>
<path d="M231.302 173.046L225.347 169.566L221.529 171.826L227.459 175.305L231.302 173.046Z" fill="#39302A"/>
<path d="M222.979 168.183L217.021 164.701L213.221 166.951L219.154 170.432L222.979 168.183Z" fill="#39302A"/>
<path d="M206.333 158.456L200.367 154.97L196.602 157.2L202.541 160.685L206.333 158.456Z" fill="#39302A"/>
<path d="M189.685 148.729L183.714 145.24L179.983 147.448L185.929 150.938L189.685 148.729Z" fill="#39302A"/>
<path d="M171.673 142.573L177.623 146.063L181.363 143.865L175.388 140.374L171.673 142.573Z" fill="#39302A"/>
<path d="M198.009 153.592L192.041 150.105L188.292 152.324L194.235 155.811L198.009 153.592Z" fill="#39302A"/>
<path d="M264.596 192.501L258.653 189.028L254.766 191.328L260.684 194.8L264.596 192.501Z" fill="#39302A"/>
<path d="M173.04 139.002L168.02 136.069L164.312 138.253L169.316 141.19L173.04 139.002Z" fill="#39302A"/>
<path d="M263.076 196.204L268.823 199.576L272.788 197.288L266.979 193.893L263.076 196.204Z" fill="#39302A"/>
<path d="M239.626 177.91L233.673 174.432L229.839 176.701L235.765 180.179L239.626 177.91Z" fill="#39302A"/>
<path d="M256.272 187.637L250.326 184.163L246.458 186.453L252.378 189.927L256.272 187.637Z" fill="#39302A"/>
<path d="M247.949 182.774L242 179.297L238.148 181.577L244.072 185.052L247.949 182.774Z" fill="#39302A"/>
<path d="M230.651 50.2174C231.013 50.8441 231.611 51.1759 231.986 50.959C232.362 50.7421 232.373 50.0585 232.011 49.4328C231.649 48.8061 231.051 48.4743 230.676 48.6912C230.301 48.9071 230.29 49.5907 230.651 50.2174Z" fill="#26215B"/>
<path d="M290.864 80.0583L295.826 77.4946L295.472 197.529L196.259 254.772L195.944 249.732L290.68 195.079L290.864 80.0583Z" fill="#5080E0"/>
<path d="M207.397 244.785L215.811 239.862L215.788 242.325L207.359 247.271L207.397 244.785Z" fill="#39302A"/>
<path d="M217.401 238.988L230.29 231.408L230.267 233.873L217.363 241.474L217.401 238.988Z" fill="#39302A"/>
<path d="M359.676 186.546C360.009 192.052 353.626 197.22 342.983 199.199C329.416 201.722 314.067 198.108 308.702 191.127C307.393 189.423 306.803 187.676 306.851 185.972H306.843V191.755L306.909 191.811C307.091 193.159 307.675 194.522 308.702 195.858C314.067 202.838 329.416 206.453 342.983 203.93C353.313 202.009 359.626 197.083 359.684 191.761L359.692 191.755V186.547L359.676 186.546Z" fill="#D09210"/>
<path d="M359.7 187.109C359.852 179.692 348.149 173.438 333.56 173.138C318.971 172.839 307.022 178.609 306.869 186.025C306.717 193.442 318.421 199.696 333.009 199.995C347.598 200.295 359.548 194.525 359.7 187.109Z" fill="#F0930F"/>
<path d="M321.508 197.207C315.401 189.262 322.97 180.494 338.412 177.622C342.462 176.87 346.648 176.608 350.735 176.759C343.522 173.418 333.105 172.144 323.553 173.919C309.986 176.442 303.337 184.145 308.702 191.126C311.403 194.642 316.638 197.299 322.899 198.753C322.389 198.256 321.919 197.742 321.508 197.207Z" fill="#F0B83E"/>
<path d="M322.572 176.534C336.439 174.032 352.117 177.61 357.702 184.529C357.526 184.239 357.338 183.949 357.123 183.661C351.91 176.683 336.99 173.076 323.798 175.606C319.753 176.382 316.344 177.646 313.705 179.224C316.186 178.075 319.166 177.148 322.572 176.534Z" fill="#D09210"/>
<path d="M342.983 199.199C338.3 200.07 333.412 200.195 328.789 199.717V204.448C333.411 204.925 338.3 204.8 342.983 203.93C353.313 202.009 359.626 197.083 359.684 191.761L359.692 191.755V186.547H359.677C360.009 192.052 353.626 197.22 342.983 199.199Z" fill="#D45700"/>
<path d="M330.316 189.128C330.933 188.866 331.31 188.581 331.449 188.272C331.587 187.963 331.544 187.542 331.32 187.009C331.096 186.477 330.917 185.973 330.783 185.498C330.649 185.023 330.628 184.574 330.722 184.15C330.815 183.726 331.051 183.33 331.431 182.964C331.811 182.597 332.395 182.246 333.184 181.91C334.505 181.348 335.905 181.118 337.385 181.219C338.865 181.32 340.196 181.729 341.377 182.445L343.85 181.393L345.156 182.367L342.637 183.438C343.428 184.275 343.627 185.111 343.234 185.948C342.841 186.785 341.903 187.519 340.419 188.15L337.642 186.081C338.455 185.735 338.97 185.388 339.188 185.038C339.407 184.69 339.313 184.364 338.908 184.062C338.547 183.793 338.104 183.652 337.58 183.641C337.056 183.63 336.509 183.746 335.938 183.988C335.359 184.234 335.015 184.515 334.905 184.831C334.796 185.146 334.842 185.56 335.041 186.071C335.242 186.582 335.402 187.075 335.522 187.554C335.642 188.032 335.655 188.483 335.562 188.907C335.469 189.331 335.234 189.733 334.858 190.111C334.481 190.489 333.898 190.846 333.109 191.181C331.773 191.75 330.386 191.992 328.948 191.908C327.51 191.824 326.209 191.43 325.044 190.728L322.689 191.729L321.382 190.756L323.75 189.749C322.736 188.784 322.404 187.852 322.755 186.956C323.105 186.061 324.089 185.269 325.706 184.582L328.475 186.645C327.584 187.023 327.044 187.415 326.857 187.818C326.669 188.222 326.829 188.614 327.338 188.993C327.711 189.271 328.162 189.422 328.692 189.446C329.218 189.47 329.761 189.364 330.316 189.128Z" fill="#F9D855"/>
<path d="M359.676 178.948C360.009 184.455 353.626 189.623 342.982 191.602C329.415 194.125 314.067 190.511 308.702 183.53C307.392 181.826 306.803 180.079 306.851 178.375H306.843V184.158L306.909 184.214C307.091 185.562 307.674 186.924 308.702 188.261C314.067 195.241 329.415 198.855 342.982 196.333C353.313 194.412 359.626 189.486 359.684 184.164L359.692 184.158V178.949L359.676 178.948Z" fill="#D09210"/>
<path d="M359.701 179.512C359.853 172.095 348.15 165.841 333.561 165.542C318.972 165.242 307.022 171.012 306.87 178.428C306.718 185.845 318.422 192.099 333.01 192.399C347.599 192.698 359.549 186.928 359.701 179.512Z" fill="#F0930F"/>
<path d="M321.508 189.61C315.402 181.665 322.97 172.897 338.412 170.025C342.462 169.272 346.648 169.011 350.735 169.161C343.522 165.821 333.105 164.547 323.553 166.322C309.986 168.845 303.337 176.548 308.702 183.528C311.404 187.043 316.638 189.701 322.899 191.155C322.389 190.659 321.919 190.145 321.508 189.61Z" fill="#F0B83E"/>
<path d="M322.572 168.937C336.439 166.435 352.117 170.013 357.702 176.931C357.526 176.642 357.338 176.352 357.123 176.064C351.91 169.085 336.989 165.479 323.798 168.009C319.753 168.785 316.344 170.048 313.705 171.627C316.186 170.478 319.166 169.551 322.572 168.937Z" fill="#D09210"/>
<path d="M342.982 191.602C338.3 192.473 333.412 192.598 328.789 192.12V196.851C333.411 197.328 338.3 197.203 342.982 196.333C353.313 194.412 359.626 189.486 359.684 184.164L359.692 184.158V178.95H359.677C360.009 184.455 353.626 189.623 342.982 191.602Z" fill="#D45700"/>
<path d="M330.316 181.531C330.934 181.268 331.31 180.984 331.449 180.675C331.587 180.366 331.544 179.945 331.32 179.412C331.097 178.88 330.917 178.376 330.783 177.901C330.649 177.426 330.628 176.977 330.722 176.552C330.815 176.128 331.052 175.732 331.431 175.365C331.811 174.999 332.395 174.648 333.184 174.312C334.505 173.75 335.905 173.52 337.385 173.621C338.866 173.722 340.196 174.131 341.377 174.847L343.85 173.795L345.156 174.769L342.637 175.84C343.428 176.677 343.627 177.513 343.234 178.35C342.842 179.186 341.903 179.921 340.419 180.552L337.642 178.483C338.455 178.137 338.971 177.79 339.188 177.44C339.407 177.092 339.313 176.766 338.909 176.464C338.547 176.195 338.104 176.054 337.58 176.043C337.057 176.032 336.509 176.148 335.938 176.391C335.359 176.637 335.016 176.918 334.906 177.233C334.796 177.549 334.842 177.963 335.042 178.474C335.242 178.985 335.402 179.479 335.522 179.957C335.642 180.435 335.655 180.886 335.562 181.31C335.469 181.734 335.234 182.136 334.858 182.514C334.481 182.892 333.898 183.248 333.11 183.584C331.773 184.153 330.386 184.395 328.949 184.311C327.51 184.227 326.209 183.833 325.045 183.13L322.689 184.132L321.382 183.158L323.75 182.152C322.736 181.185 322.404 180.255 322.755 179.359C323.106 178.464 324.089 177.672 325.706 176.984L328.475 179.047C327.584 179.425 327.045 179.817 326.857 180.22C326.669 180.624 326.829 181.016 327.338 181.395C327.711 181.672 328.162 181.824 328.692 181.848C329.218 181.873 329.761 181.767 330.316 181.531Z" fill="#F9D855"/>
<path d="M359.676 171.751C360.009 177.258 353.626 182.426 342.983 184.405C329.416 186.928 314.067 183.314 308.702 176.333C307.393 174.629 306.803 172.882 306.851 171.178H306.843V176.961L306.909 177.017C307.091 178.365 307.675 179.727 308.702 181.064C314.067 188.044 329.416 191.658 342.983 189.136C353.314 187.215 359.626 182.289 359.684 176.967L359.692 176.961V171.752L359.676 171.751Z" fill="#D09210"/>
<path d="M359.701 172.313C359.853 164.897 348.15 158.642 333.561 158.343C318.972 158.044 307.022 163.814 306.87 171.23C306.718 178.647 318.421 184.901 333.01 185.2C347.599 185.499 359.549 179.73 359.701 172.313Z" fill="#F0930F"/>
<path d="M321.509 182.413C315.402 174.468 322.97 165.699 338.412 162.828C342.462 162.075 346.648 161.813 350.735 161.964C343.523 158.624 333.105 157.349 323.554 159.125C309.987 161.647 303.337 169.351 308.702 176.332C311.404 179.847 316.638 182.505 322.899 183.959C322.389 183.461 321.919 182.948 321.509 182.413Z" fill="#F0B83E"/>
<path d="M322.572 161.739C336.439 159.237 352.117 162.816 357.702 169.734C357.526 169.445 357.338 169.155 357.124 168.867C351.91 161.888 336.99 158.282 323.798 160.812C319.753 161.588 316.344 162.851 313.706 164.43C316.186 163.281 319.166 162.354 322.572 161.739Z" fill="#D45700"/>
<path d="M342.983 184.405C338.3 185.275 333.413 185.4 328.789 184.923V189.653C333.412 190.131 338.3 190.006 342.983 189.135C353.314 187.214 359.626 182.289 359.684 176.967L359.692 176.961V171.752H359.677C360.009 177.257 353.626 182.426 342.983 184.405Z" fill="#D45700"/>
<path d="M330.316 174.334C330.934 174.071 331.311 173.786 331.45 173.478C331.588 173.169 331.545 172.748 331.321 172.215C331.097 171.683 330.917 171.179 330.783 170.704C330.649 170.229 330.628 169.779 330.722 169.356C330.815 168.931 331.052 168.536 331.432 168.169C331.812 167.802 332.395 167.452 333.185 167.116C334.505 166.554 335.905 166.324 337.386 166.425C338.866 166.526 340.196 166.935 341.378 167.651L343.85 166.599L345.157 167.573L342.637 168.644C343.429 169.481 343.628 170.317 343.235 171.154C342.842 171.99 341.903 172.725 340.419 173.356L337.643 171.287C338.455 170.941 338.971 170.594 339.189 170.244C339.408 169.894 339.314 169.57 338.909 169.268C338.547 168.999 338.104 168.858 337.581 168.847C337.057 168.836 336.509 168.952 335.938 169.194C335.36 169.44 335.016 169.721 334.906 170.036C334.796 170.352 334.842 170.766 335.042 171.277C335.243 171.787 335.403 172.282 335.523 172.76C335.643 173.238 335.656 173.689 335.563 174.113C335.47 174.537 335.235 174.939 334.858 175.317C334.481 175.695 333.898 176.051 333.11 176.387C331.774 176.956 330.386 177.198 328.949 177.114C327.511 177.03 326.209 176.636 325.045 175.933L322.689 176.935L321.383 175.961L323.751 174.955C322.736 173.989 322.404 173.058 322.755 172.162C323.106 171.267 324.089 170.475 325.707 169.786L328.475 171.849C327.585 172.228 327.045 172.62 326.857 173.023C326.669 173.427 326.829 173.818 327.339 174.197C327.712 174.475 328.162 174.626 328.692 174.65C329.219 174.675 329.762 174.57 330.316 174.334Z" fill="#F9D855"/>
<path d="M359.676 164.434C360.009 169.94 353.626 175.108 342.983 177.087C329.416 179.61 314.067 175.996 308.702 169.016C307.393 167.311 306.803 165.564 306.851 163.86H306.843V169.643L306.909 169.699C307.091 171.047 307.675 172.41 308.702 173.746C314.067 180.727 329.416 184.341 342.983 181.818C353.314 179.897 359.626 174.971 359.684 169.649L359.692 169.643V164.435L359.676 164.434Z" fill="#D09210"/>
<path d="M359.7 164.996C359.852 157.579 348.148 151.325 333.56 151.026C318.971 150.727 307.021 156.496 306.869 163.913C306.717 171.329 318.42 177.584 333.009 177.883C347.598 178.182 359.548 172.412 359.7 164.996Z" fill="#F0930F"/>
<path d="M321.508 175.096C315.402 167.151 322.97 158.383 338.412 155.511C342.462 154.759 346.648 154.497 350.735 154.648C343.522 151.307 333.105 150.033 323.553 151.808C309.986 154.331 303.337 162.035 308.702 169.015C311.404 172.53 316.638 175.188 322.899 176.643C322.389 176.144 321.919 175.63 321.508 175.096Z" fill="#F0B83E"/>
<path d="M322.572 154.422C336.439 151.92 352.117 155.499 357.702 162.417C357.526 162.127 357.338 161.837 357.123 161.55C351.91 154.571 336.99 150.965 323.798 153.495C319.753 154.27 316.344 155.535 313.705 157.113C316.186 155.963 319.166 155.037 322.572 154.422Z" fill="#D09210"/>
<path d="M342.983 177.087C338.3 177.958 333.413 178.083 328.789 177.605V182.336C333.412 182.814 338.3 182.689 342.983 181.818C353.314 179.897 359.626 174.971 359.684 169.649L359.692 169.643V164.435H359.677C360.009 169.94 353.626 175.108 342.983 177.087Z" fill="#D45700"/>
<path d="M330.316 167.017C330.934 166.754 331.311 166.469 331.45 166.16C331.588 165.851 331.545 165.43 331.321 164.898C331.097 164.365 330.917 163.861 330.783 163.386C330.649 162.912 330.628 162.462 330.722 162.038C330.815 161.614 331.052 161.218 331.432 160.852C331.811 160.485 332.395 160.134 333.185 159.798C334.505 159.237 335.905 159.007 337.386 159.108C338.866 159.209 340.196 159.617 341.378 160.333L343.85 159.281L345.157 160.255L342.637 161.326C343.429 162.163 343.627 163 343.235 163.836C342.842 164.673 341.903 165.407 340.419 166.038L337.643 163.969C338.455 163.623 338.971 163.276 339.189 162.927C339.408 162.577 339.314 162.252 338.909 161.95C338.547 161.681 338.104 161.54 337.581 161.529C337.057 161.518 336.509 161.634 335.938 161.877C335.36 162.123 335.016 162.404 334.906 162.72C334.796 163.036 334.842 163.449 335.042 163.96C335.243 164.471 335.403 164.966 335.523 165.443C335.643 165.921 335.656 166.372 335.563 166.797C335.47 167.22 335.235 167.622 334.858 168C334.481 168.378 333.898 168.735 333.11 169.071C331.773 169.639 330.386 169.881 328.949 169.797C327.511 169.713 326.209 169.319 325.045 168.617L322.689 169.618L321.383 168.645L323.751 167.638C322.736 166.673 322.404 165.741 322.755 164.846C323.106 163.95 324.089 163.159 325.707 162.47L328.475 164.533C327.585 164.912 327.045 165.302 326.857 165.706C326.669 166.11 326.829 166.502 327.339 166.882C327.712 167.16 328.162 167.31 328.692 167.334C329.219 167.358 329.762 167.252 330.316 167.017Z" fill="#F9D855"/>
<path d="M402.698 211.136C403.03 216.643 396.648 221.811 386.004 223.79C372.437 226.313 357.089 222.699 351.723 215.718C350.414 214.014 349.824 212.267 349.872 210.563H349.864V216.346L349.93 216.402C350.112 217.75 350.696 219.112 351.723 220.449C357.089 227.429 372.437 231.043 386.004 228.521C396.335 226.6 402.648 221.674 402.706 216.352L402.714 216.346V211.137L402.698 211.136Z" fill="#D09210"/>
<path d="M402.725 211.699C402.877 204.283 391.174 198.028 376.585 197.729C361.996 197.43 350.046 203.2 349.894 210.616C349.742 218.033 361.445 224.287 376.034 224.586C390.623 224.885 402.573 219.116 402.725 211.699Z" fill="#F0930F"/>
<path d="M364.53 221.798C358.423 213.853 365.991 205.084 381.433 202.213C385.483 201.46 389.669 201.198 393.756 201.349C386.544 198.009 376.126 196.734 366.575 198.51C353.008 201.032 346.358 208.736 351.723 215.717C354.425 219.232 359.659 221.89 365.92 223.344C365.41 222.845 364.941 222.332 364.53 221.798Z" fill="#F0B83E"/>
<path d="M365.593 201.123C379.46 198.622 395.138 202.2 400.723 209.118C400.547 208.829 400.36 208.539 400.145 208.251C394.931 201.273 380.011 197.666 366.82 200.196C362.775 200.971 359.365 202.235 356.727 203.814C359.207 202.665 362.187 201.738 365.593 201.123Z" fill="#D09210"/>
<path d="M386.004 223.79C381.321 224.661 376.434 224.786 371.81 224.308V229.038C376.433 229.516 381.321 229.391 386.004 228.521C396.335 226.6 402.648 221.674 402.706 216.352L402.714 216.346V211.137H402.699C403.03 216.642 396.648 221.811 386.004 223.79Z" fill="#D45700"/>
<path d="M373.337 213.718C373.954 213.455 374.332 213.17 374.47 212.861C374.608 212.553 374.565 212.132 374.341 211.599C374.117 211.066 373.937 210.563 373.803 210.088C373.669 209.613 373.648 209.163 373.742 208.74C373.835 208.316 374.072 207.92 374.452 207.553C374.832 207.186 375.415 206.835 376.205 206.5C377.525 205.938 378.926 205.708 380.406 205.809C381.886 205.91 383.216 206.319 384.398 207.034L386.871 205.983L388.177 206.956L385.657 208.028C386.449 208.864 386.648 209.701 386.255 210.538C385.862 211.374 384.923 212.109 383.439 212.739L380.663 210.671C381.475 210.325 381.991 209.978 382.209 209.628C382.427 209.278 382.334 208.953 381.929 208.652C381.567 208.383 381.124 208.242 380.601 208.231C380.077 208.22 379.529 208.336 378.958 208.579C378.38 208.824 378.036 209.105 377.926 209.421C377.816 209.737 377.862 210.151 378.062 210.662C378.263 211.172 378.423 211.666 378.543 212.145C378.663 212.623 378.676 213.074 378.583 213.498C378.49 213.922 378.255 214.324 377.878 214.701C377.501 215.079 376.919 215.436 376.13 215.772C374.794 216.341 373.406 216.583 371.969 216.499C370.531 216.415 369.229 216.021 368.065 215.318L365.709 216.32L364.403 215.346L366.771 214.34C365.756 213.373 365.424 212.443 365.775 211.547C366.126 210.652 367.109 209.86 368.727 209.171L371.495 211.234C370.605 211.613 370.065 212.005 369.877 212.408C369.689 212.811 369.849 213.203 370.359 213.583C370.732 213.861 371.182 214.012 371.712 214.036C372.24 214.06 372.783 213.955 373.337 213.718Z" fill="#F9D855"/>
<path d="M402.698 203.938C403.03 209.444 396.648 214.613 386.004 216.592C372.437 219.114 357.089 215.5 351.723 208.52C350.414 206.816 349.824 205.068 349.872 203.364H349.864V209.147L349.93 209.203C350.112 210.552 350.696 211.914 351.723 213.25C357.089 220.231 372.437 223.845 386.004 221.322C396.335 219.401 402.648 214.476 402.706 209.153L402.714 209.147V203.939L402.698 203.938Z" fill="#D09210"/>
<path d="M402.724 204.502C402.876 197.086 391.173 190.831 376.584 190.532C361.996 190.233 350.046 196.002 349.894 203.419C349.742 210.835 361.445 217.09 376.034 217.389C390.622 217.688 402.572 211.918 402.724 204.502Z" fill="#F0930F"/>
<path d="M364.53 214.6C358.423 206.655 365.991 197.886 381.433 195.015C385.483 194.262 389.669 194 393.756 194.151C386.544 190.811 376.126 189.536 366.575 191.311C353.008 193.834 346.358 201.537 351.723 208.519C354.425 212.034 359.659 214.692 365.92 216.146C365.41 215.648 364.941 215.134 364.53 214.6Z" fill="#F0B83E"/>
<path d="M365.593 193.926C379.46 191.424 395.138 195.002 400.723 201.921C400.547 201.631 400.36 201.341 400.145 201.053C394.931 194.076 380.011 190.469 366.82 192.998C362.775 193.774 359.365 195.037 356.727 196.617C359.207 195.467 362.187 194.541 365.593 193.926Z" fill="#D45700"/>
<path d="M386.004 216.592C381.321 217.462 376.434 217.586 371.81 217.109V221.84C376.433 222.318 381.321 222.193 386.004 221.322C396.335 219.401 402.648 214.476 402.706 209.153L402.714 209.147V203.939H402.699C403.03 209.444 396.648 214.613 386.004 216.592Z" fill="#D45700"/>
<path d="M373.337 206.521C373.954 206.258 374.332 205.973 374.47 205.664C374.608 205.355 374.565 204.935 374.341 204.402C374.117 203.869 373.937 203.365 373.803 202.891C373.669 202.416 373.648 201.966 373.742 201.542C373.835 201.118 374.072 200.723 374.452 200.356C374.832 199.989 375.415 199.638 376.205 199.302C377.525 198.741 378.926 198.511 380.406 198.612C381.886 198.713 383.216 199.121 384.398 199.837L386.871 198.786L388.177 199.759L385.657 200.831C386.449 201.667 386.648 202.504 386.255 203.34C385.862 204.177 384.923 204.912 383.439 205.542L380.663 203.473C381.475 203.127 381.991 202.781 382.209 202.431C382.428 202.081 382.334 201.756 381.929 201.453C381.567 201.184 381.124 201.043 380.601 201.032C380.077 201.022 379.529 201.137 378.958 201.379C378.38 201.625 378.036 201.906 377.926 202.222C377.816 202.538 377.862 202.952 378.062 203.462C378.263 203.973 378.423 204.468 378.543 204.946C378.663 205.423 378.676 205.874 378.583 206.299C378.49 206.723 378.255 207.124 377.878 207.502C377.501 207.88 376.919 208.237 376.13 208.573C374.794 209.14 373.406 209.383 371.969 209.299C370.531 209.215 369.229 208.822 368.065 208.119L365.709 209.121L364.403 208.148L366.771 207.141C365.756 206.176 365.424 205.244 365.775 204.349C366.126 203.453 367.109 202.662 368.727 201.973L371.495 204.036C370.605 204.415 370.065 204.806 369.877 205.209C369.689 205.613 369.849 206.005 370.359 206.384C370.732 206.662 371.182 206.813 371.712 206.837C372.24 206.863 372.783 206.757 373.337 206.521Z" fill="#F9D855"/>
<path d="M402.698 196.758C403.03 202.264 396.648 207.432 386.004 209.411C372.437 211.934 357.089 208.32 351.723 201.339C350.414 199.635 349.824 197.888 349.872 196.184H349.864V201.967L349.93 202.023C350.112 203.371 350.696 204.734 351.723 206.07C357.089 213.05 372.437 216.664 386.004 214.142C396.335 212.221 402.648 207.295 402.706 201.973L402.714 201.967V196.759L402.698 196.758Z" fill="#D09210"/>
<path d="M402.724 197.321C402.876 189.904 391.173 183.65 376.584 183.35C361.995 183.051 350.045 188.821 349.893 196.237C349.741 203.654 361.444 209.908 376.033 210.207C390.622 210.507 402.572 204.737 402.724 197.321Z" fill="#F0930F"/>
<path d="M364.53 207.419C358.423 199.474 365.991 190.706 381.433 187.834C385.483 187.081 389.669 186.82 393.756 186.971C386.544 183.63 376.126 182.356 366.575 184.131C353.008 186.654 346.358 194.357 351.723 201.337C354.425 204.852 359.659 207.51 365.92 208.964C365.41 208.468 364.941 207.954 364.53 207.419Z" fill="#F0B83E"/>
<path d="M365.593 186.746C379.46 184.244 395.138 187.822 400.723 194.741C400.547 194.451 400.36 194.161 400.145 193.873C394.931 186.895 380.011 183.288 366.82 185.818C362.775 186.594 359.365 187.857 356.727 189.436C359.207 188.287 362.187 187.36 365.593 186.746Z" fill="#D45700"/>
<path d="M386.004 209.411C381.321 210.282 376.434 210.407 371.81 209.929V214.659C376.433 215.137 381.321 215.012 386.004 214.142C396.335 212.221 402.648 207.295 402.706 201.973L402.714 201.967V196.759H402.699C403.03 202.264 396.648 207.432 386.004 209.411Z" fill="#D45700"/>
<path d="M373.337 199.34C373.954 199.077 374.332 198.793 374.47 198.484C374.608 198.175 374.565 197.754 374.341 197.221C374.117 196.689 373.937 196.185 373.803 195.71C373.669 195.235 373.648 194.786 373.742 194.362C373.835 193.938 374.072 193.542 374.452 193.175C374.832 192.809 375.415 192.458 376.205 192.122C377.525 191.56 378.926 191.33 380.406 191.431C381.886 191.532 383.216 191.941 384.398 192.657L386.871 191.605L388.177 192.579L385.657 193.65C386.449 194.487 386.648 195.323 386.255 196.16C385.862 196.997 384.923 197.731 383.439 198.362L380.663 196.293C381.475 195.947 381.991 195.6 382.209 195.25C382.428 194.902 382.334 194.576 381.929 194.274C381.567 194.005 381.124 193.864 380.601 193.853C380.077 193.842 379.529 193.958 378.958 194.201C378.38 194.447 378.036 194.728 377.926 195.043C377.816 195.359 377.862 195.773 378.062 196.284C378.263 196.795 378.423 197.288 378.543 197.767C378.663 198.245 378.676 198.697 378.583 199.12C378.49 199.544 378.255 199.946 377.878 200.324C377.501 200.702 376.919 201.058 376.13 201.394C374.794 201.963 373.406 202.205 371.969 202.121C370.531 202.037 369.229 201.643 368.065 200.94L365.709 201.942L364.403 200.969L366.771 199.962C365.756 198.996 365.424 198.065 365.775 197.169C366.126 196.274 367.109 195.482 368.727 194.795L371.495 196.858C370.605 197.236 370.065 197.628 369.877 198.031C369.689 198.435 369.849 198.827 370.359 199.206C370.732 199.484 371.182 199.635 371.712 199.659C372.24 199.682 372.783 199.576 373.337 199.34Z" fill="#F9D855"/>
<path d="M220.589 317.744L158.934 282.577L264.352 221.579L325.238 256.582L220.589 317.744Z" fill="#6B574A"/>
<path d="M166.49 286.886C166.49 286.886 246.067 282.25 301.669 243.032L325.238 256.582L220.59 317.744L166.49 286.886Z" fill="#56463F"/>
<path d="M228.438 306.395L178.173 277.724L264.117 227.995L313.754 256.532L228.438 306.395Z" fill="#CCE1FD"/>
<path d="M183.737 280.898C183.737 280.898 264.866 283.026 301.001 249.199L313.754 256.531L228.438 306.394L183.737 280.898Z" fill="#BBD3ED"/>
<path d="M228.121 259.401L224.12 257.118L244.468 245.286L248.42 247.559L228.121 259.401Z" fill="#AB30A9"/>
<path d="M235.101 263.472L231.099 261.19L256.996 246.167L260.948 248.438L235.101 263.472Z" fill="#AB30A9"/>
<path d="M242.08 267.544L238.078 265.261L267.383 248.25L271.335 250.521L242.08 267.544Z" fill="#AB30A9"/>
<path d="M249.06 271.615L245.058 269.332L269.359 255.228L273.311 257.501L249.06 271.615Z" fill="#AB30A9"/>
<path d="M256.039 275.686L252.037 273.404L281.342 256.391L285.294 258.664L256.039 275.686Z" fill="#AB30A9"/>
<path d="M263.019 279.757L259.017 277.475L287.066 261.15L291.018 263.422L263.019 279.757Z" fill="#AB30A9"/>
<path d="M295.679 244.07L280.782 235.573L282.009 234.954L296.721 243.412L295.679 244.07Z" fill="#39302A"/>
<path d="M158.934 282.577L220.589 317.744L325.237 256.582L325.118 263.134L220.394 324.408L158.934 287.116V282.577Z" fill="#251F1C"/>
<path d="M220.589 317.744L220.394 324.408L158.934 288.897V282.577L220.589 317.744Z" fill="#49403A"/>
<path d="M302.155 272.859L310.569 267.936L310.545 269.2L302.117 274.145L302.155 272.859Z" fill="#6B574A"/>
<path d="M190.011 302.539L189.989 304.749L182.981 300.7V298.529L190.011 302.539Z" fill="#6B574A"/>
<path d="M199.319 293.382C200.425 294.822 199.054 296.411 196.255 296.932C193.457 297.453 190.29 296.707 189.183 295.267C188.077 293.826 189.448 292.237 192.246 291.716C195.045 291.197 198.211 291.942 199.319 293.382Z" fill="#39302A"/>
<path d="M203.245 269.398C203.245 269.398 211.006 265.315 215.981 269.398C220.955 273.481 224.063 275.126 233.39 275.309C242.715 275.492 255.316 275.594 254.684 284.96L242.753 291.932L203.245 269.398Z" fill="#F4535D"/>
<path d="M331.404 256.671L270.597 221.108L305.014 201.295L365.659 236.704L331.404 256.671Z" fill="#7DA806"/>
<path d="M270.597 221.108L331.405 256.671L365.659 236.704L365.609 238.692L331.324 258.706L270.597 223V221.108Z" fill="#566B06"/>
<path d="M331.405 256.671L331.324 258.706L270.597 223V221.108L331.405 256.671Z" fill="#6B8505"/>
<path d="M354.006 237.378C353.304 236.463 353.388 235.502 354.092 234.685L308.323 207.942C308.183 207.974 308.043 208.007 307.895 208.035C305.896 208.407 303.749 208.27 302.003 207.753L281.627 219.459C281.781 219.601 281.925 219.746 282.044 219.901C282.832 220.927 282.629 222.014 281.671 222.885L327.55 249.731C328.068 249.53 328.652 249.364 329.299 249.244C331.381 248.857 333.619 249.025 335.401 249.595L354.947 238.234C354.569 237.976 354.247 237.691 354.006 237.378Z" fill="#A6C430"/>
<path d="M325.917 224.974C328.14 227.866 325.386 231.057 319.765 232.102C314.145 233.146 307.788 231.65 305.566 228.758C303.343 225.867 306.097 222.675 311.717 221.631C317.338 220.586 323.694 222.083 325.917 224.974Z" fill="#7DA806"/>
<path d="M331.404 253.537L270.597 217.974L305.014 198.16L365.659 233.569L331.404 253.537Z" fill="#7DA806"/>
<path d="M270.597 217.974L331.405 253.537L365.659 233.569L365.609 235.557L331.324 255.572L270.597 219.866V217.974Z" fill="#566B06"/>
<path d="M331.405 253.537L331.324 255.572L270.597 219.866V217.974L331.405 253.537Z" fill="#6B8505"/>
<path d="M354.006 234.243C353.304 233.328 353.388 232.367 354.092 231.551L308.323 204.808C308.183 204.84 308.043 204.873 307.895 204.901C305.896 205.272 303.749 205.135 302.003 204.619L281.627 216.325C281.781 216.466 281.925 216.612 282.044 216.767C282.832 217.793 282.629 218.879 281.671 219.752L327.55 246.596C328.068 246.396 328.652 246.23 329.299 246.11C331.381 245.723 333.619 245.891 335.401 246.461L354.947 235.099C354.569 234.84 354.247 234.556 354.006 234.243Z" fill="#A6C430"/>
<path d="M325.917 221.839C328.14 224.73 325.386 227.922 319.765 228.966C314.145 230.011 307.788 228.515 305.566 225.623C303.343 222.731 306.097 219.54 311.717 218.496C317.338 217.451 323.694 218.947 325.917 221.839Z" fill="#7DA806"/>
<path d="M331.404 250.402L270.597 214.839L305.014 195.025L365.659 230.434L331.404 250.402Z" fill="#7DA806"/>
<path d="M270.597 214.839L331.405 250.402L365.659 230.434L365.609 232.422L331.324 252.436L270.597 216.73V214.839Z" fill="#566B06"/>
<path d="M331.405 250.402L331.324 252.436L270.597 216.73V214.839L331.405 250.402Z" fill="#6B8505"/>
<path d="M354.006 231.108C353.304 230.194 353.388 229.232 354.092 228.416L308.323 201.672C308.183 201.704 308.043 201.737 307.895 201.765C305.896 202.137 303.749 202 302.003 201.483L281.627 213.189C281.781 213.331 281.925 213.476 282.044 213.631C282.832 214.657 282.629 215.744 281.671 216.616L327.55 243.461C328.068 243.26 328.652 243.094 329.299 242.974C331.381 242.587 333.619 242.755 335.401 243.325L354.947 231.964C354.569 231.706 354.247 231.421 354.006 231.108Z" fill="#A6C430"/>
<path d="M325.917 218.704C328.14 221.596 325.386 224.787 319.765 225.832C314.145 226.876 307.788 225.38 305.566 222.488C303.343 219.597 306.097 216.405 311.717 215.361C317.338 214.316 323.694 215.813 325.917 218.704Z" fill="#7DA806"/>
<path d="M331.404 247.267L270.597 211.704L305.014 191.891L365.659 227.3L331.404 247.267Z" fill="#7DA806"/>
<path d="M270.597 211.704L331.405 247.267L365.659 227.3L365.609 229.288L331.324 249.302L270.597 213.596V211.704Z" fill="#566B06"/>
<path d="M331.405 247.267L331.324 249.302L270.597 213.596V211.704L331.405 247.267Z" fill="#6B8505"/>
<path d="M354.006 227.973C353.304 227.058 353.388 226.097 354.092 225.28L308.323 198.537C308.183 198.569 308.043 198.602 307.895 198.63C305.896 199.002 303.749 198.865 302.003 198.348L281.627 210.054C281.781 210.196 281.925 210.341 282.044 210.496C282.832 211.522 282.629 212.609 281.671 213.481L327.55 240.326C328.068 240.125 328.652 239.959 329.299 239.839C331.381 239.452 333.619 239.62 335.401 240.19L354.947 228.828C354.569 228.571 354.247 228.286 354.006 227.973Z" fill="#A6C430"/>
<path d="M325.917 215.57C328.14 218.462 325.386 221.653 319.765 222.697C314.145 223.742 307.788 222.246 305.566 219.354C303.343 216.463 306.097 213.271 311.717 212.227C317.338 211.181 323.694 212.678 325.917 215.57Z" fill="#7DA806"/>
<path d="M331.404 244.132L270.597 208.569L305.014 188.755L365.659 224.164L331.404 244.132Z" fill="#7DA806"/>
<path d="M270.597 208.569L331.405 244.132L365.659 224.164L365.609 226.152L331.324 246.167L270.597 210.461V208.569Z" fill="#566B06"/>
<path d="M331.405 244.132L331.324 246.167L270.597 210.461V208.569L331.405 244.132Z" fill="#6B8505"/>
<path d="M354.006 224.838C353.304 223.924 353.388 222.962 354.092 222.146L308.323 195.402C308.183 195.434 308.043 195.467 307.895 195.495C305.896 195.867 303.749 195.73 302.003 195.213L281.627 206.919C281.781 207.061 281.925 207.206 282.044 207.361C282.832 208.387 282.629 209.474 281.671 210.345L327.55 237.191C328.068 236.99 328.652 236.824 329.299 236.704C331.381 236.317 333.619 236.484 335.401 237.055L354.947 225.694C354.569 225.436 354.247 225.151 354.006 224.838Z" fill="#A6C430"/>
<path d="M325.917 212.435C328.14 215.326 325.386 218.517 319.765 219.562C314.145 220.606 307.788 219.11 305.566 216.219C303.343 213.327 306.097 210.136 311.717 209.091C317.338 208.046 323.694 209.543 325.917 212.435Z" fill="#7DA806"/>
<path d="M331.404 240.998L270.597 205.435L305.014 185.621L365.659 221.03L331.404 240.998Z" fill="#7DA806"/>
<path d="M270.597 205.435L331.405 240.998L365.659 221.03L365.609 223.018L331.324 243.032L270.597 207.326V205.435Z" fill="#566B06"/>
<path d="M331.405 240.998L331.324 243.032L270.597 207.326V205.435L331.405 240.998Z" fill="#6B8505"/>
<path d="M354.006 221.704C353.304 220.789 353.388 219.828 354.092 219.012L308.323 192.269C308.183 192.301 308.043 192.334 307.895 192.362C305.896 192.733 303.749 192.597 302.003 192.08L281.627 203.786C281.781 203.927 281.925 204.073 282.044 204.228C282.832 205.254 282.629 206.341 281.671 207.212L327.55 234.057C328.068 233.856 328.652 233.69 329.299 233.57C331.381 233.183 333.619 233.351 335.401 233.921L354.947 222.559C354.569 222.302 354.247 222.017 354.006 221.704Z" fill="#A6C430"/>
<path d="M328.569 208.806C331.371 212.451 327.898 216.474 320.814 217.792C313.73 219.109 305.716 217.222 302.913 213.577C300.111 209.932 303.584 205.909 310.668 204.591C317.753 203.274 325.767 205.162 328.569 208.806Z" fill="#7DA806"/>
<path d="M313.752 212.922C314.168 212.745 314.423 212.552 314.516 212.344C314.609 212.137 314.58 211.853 314.429 211.494C314.278 211.135 314.157 210.795 314.067 210.475C313.977 210.156 313.963 209.853 314.026 209.567C314.089 209.281 314.248 209.014 314.504 208.767C314.76 208.52 315.154 208.283 315.685 208.058C316.575 207.679 317.519 207.524 318.516 207.593C319.513 207.661 320.41 207.937 321.206 208.418L322.872 207.71L323.751 208.365L322.053 209.087C322.586 209.651 322.721 210.215 322.456 210.778C322.191 211.342 321.559 211.837 320.559 212.262L318.688 210.868C319.236 210.635 319.582 210.401 319.73 210.166C319.877 209.93 319.814 209.711 319.541 209.507C319.298 209.325 319 209.231 318.646 209.223C318.293 209.216 317.924 209.294 317.54 209.457C317.15 209.623 316.918 209.812 316.844 210.025C316.77 210.237 316.801 210.516 316.936 210.86C317.071 211.204 317.179 211.537 317.26 211.86C317.341 212.182 317.35 212.485 317.287 212.771C317.224 213.057 317.066 213.327 316.812 213.582C316.558 213.837 316.165 214.077 315.634 214.302C314.734 214.685 313.799 214.848 312.831 214.792C311.862 214.736 310.985 214.47 310.2 213.997L308.613 214.671L307.733 214.016L309.329 213.337C308.645 212.686 308.421 212.059 308.658 211.455C308.894 210.851 309.558 210.317 310.647 209.855L312.512 211.245C311.912 211.5 311.549 211.764 311.422 212.036C311.295 212.307 311.403 212.571 311.745 212.827C311.996 213.014 312.3 213.116 312.658 213.132C313.014 213.152 313.379 213.081 313.752 212.922Z" fill="#A6C430"/>
<path d="M156.334 120.251V133.72L123.719 152.542V145.002L149.897 123.72L156.334 120.251Z" fill="#0D6EAA"/>
<path d="M123.72 145.002L61.529 108.774V116.601L123.72 152.542V145.002Z" fill="#017BD4"/>
<path d="M62.1915 182.57L0 146.664V152.021L62.1906 187.962L62.1915 182.57Z" fill="#017BD4"/>
<path d="M156.334 120.251L93.9606 84.2615L87.6418 87.8347L149.897 123.72L156.334 120.251Z" fill="#1993E0"/>
<path d="M149.897 123.72L87.6748 87.8608L61.529 108.774L123.72 145.002L149.897 123.72Z" fill="#017BD4"/>
<path d="M142.976 121.778L90.1712 91.3408L68.4482 108.885L121.227 139.629L142.976 121.778Z" fill="#341A5A"/>
<path d="M114.03 105.093L90.1712 91.3398L68.4482 108.885L79.9504 115.586C89.3646 114.352 104.024 111.495 114.03 105.093Z" fill="#363675"/>
<path d="M118.259 132.264L78.5463 109.373L77.163 110.49L116.725 133.536L118.259 132.264Z" fill="#CCE1FD"/>
<path d="M123.719 145.002L62.1915 182.57L62.1905 187.962L123.719 152.542V145.002Z" fill="#0D6EAA"/>
<path d="M123.719 145.002L61.5289 108.774L0 146.664L62.1916 182.57L123.719 145.002Z" fill="#0F87D6"/>
<path d="M16.7943 156.36L62.1913 182.57L123.719 145.002L110.044 137.036C77.8924 154.138 39.9595 156.723 16.7943 156.36Z" fill="#077FB8"/>
<path d="M71.4259 122.019L61.9327 116.472L54.4445 120.882L63.9117 126.437L71.4259 122.019Z" fill="#9DBBFD"/>
<path d="M84.5682 129.652L75.075 124.104L67.5868 128.514L77.054 134.069L84.5682 129.652Z" fill="#9DBBFD"/>
<path d="M97.7107 137.284L88.2175 131.737L80.7293 136.146L90.1965 141.702L97.7107 137.284Z" fill="#9DBBFD"/>
<path d="M110.853 144.916L101.36 139.369L93.8716 143.778L103.339 149.334L110.853 144.916Z" fill="#9DBBFD"/>
<path d="M58.2836 130.085L48.7904 124.538L41.3022 128.948L50.7694 134.503L58.2836 130.085Z" fill="#9DBBFD"/>
<path d="M71.4259 137.717L61.9327 132.17L54.4445 136.58L63.9117 142.135L71.4259 137.717Z" fill="#9DBBFD"/>
<path d="M84.5684 145.35L75.0752 139.802L67.587 144.212L77.0542 149.767L84.5684 145.35Z" fill="#9DBBFD"/>
<path d="M97.7107 152.982L88.2175 147.435L80.7293 151.844L90.1965 157.4L97.7107 152.982Z" fill="#9DBBFD"/>
<path d="M45.1408 138.151L35.6476 132.604L28.1594 137.014L37.6266 142.569L45.1408 138.151Z" fill="#9DBBFD"/>
<path d="M58.2832 145.783L48.79 140.236L41.3018 144.647L50.769 150.201L58.2832 145.783Z" fill="#9DBBFD"/>
<path d="M71.4259 153.416L61.9327 147.868L54.4445 152.279L63.9117 157.833L71.4259 153.416Z" fill="#9DBBFD"/>
<path d="M84.5682 161.049L75.0749 155.5L67.5867 159.911L77.0539 165.466L84.5682 161.049Z" fill="#9DBBFD"/>
<path d="M31.9985 146.217L22.5053 140.67L15.0171 145.081L24.4843 150.635L31.9985 146.217Z" fill="#9DBBFD"/>
<path d="M45.1408 153.849L35.6476 148.302L28.1594 152.713L37.6266 158.268L45.1408 153.849Z" fill="#9DBBFD"/>
<path d="M58.2836 161.483L48.7904 155.934L41.3022 160.345L50.7694 165.9L58.2836 161.483Z" fill="#9DBBFD"/>
<path d="M71.4259 169.115L61.9327 163.566L54.4445 167.977L63.9117 173.532L71.4259 169.115Z" fill="#9DBBFD"/>
<path d="M88.1535 105.783L85.9676 105.889L85.8437 104.299L83.311 104.422L83.205 103.049L85.7367 102.926L85.6138 101.336L87.7997 101.23L87.9236 102.82L90.4563 102.697L90.5633 104.071L88.0306 104.193L88.1535 105.783Z" fill="#CCE1FD"/>
<path d="M94.9868 109.719L92.8009 109.825L92.6769 108.234L90.1442 108.357L90.0373 106.985L92.57 106.862L92.4461 105.272L94.633 105.166L94.7569 106.756L97.2896 106.633L97.3956 108.006L94.8628 108.129L94.9868 109.719Z" fill="#CCE1FD"/>
<path d="M101.82 113.655L99.6335 113.761L99.5106 112.171L96.9779 112.293L96.8709 110.92L99.4036 110.797L99.2797 109.208L101.467 109.101L101.59 110.691L104.122 110.568L104.229 111.942L101.696 112.065L101.82 113.655Z" fill="#CCE1FD"/>
<path d="M108.654 117.59L106.467 117.696L106.343 116.105L103.81 116.228L103.704 114.856L106.237 114.733L106.113 113.143L108.3 113.037L108.423 114.627L110.956 114.504L111.063 115.876L108.53 115.999L108.654 117.59Z" fill="#CCE1FD"/>
<path d="M118.231 120.835V125.905C118.231 125.905 127.189 125.033 130.823 124.691C130.823 124.691 124.032 124.132 119.556 124.262C119.556 124.262 119.151 122.423 118.231 120.835Z" fill="#CCE1FD"/>
<path d="M183.359 120.593L235.798 150.596L235.79 116.114L183.482 86.4932L183.359 120.593Z" fill="#CCE1FD"/>
<path d="M192.618 125.89C192.618 125.89 210.553 122.516 223.588 109.205L235.79 116.114L235.798 150.596L192.618 125.89Z" fill="#B1CCE6"/>
<path d="M183.482 86.4932L185.463 85.4817L237.694 115.066L235.79 116.114L183.482 86.4932Z" fill="#759BFD"/>
<path d="M237.694 115.066V149.631L235.798 150.596L235.79 116.114L237.694 115.066Z" fill="#759BFD"/>
<path d="M228.448 138.45L190.949 117.159V98.0154L228.448 119.307V138.45Z" fill="#26215B"/>
<path d="M203.677 124.386C203.677 124.386 213.515 124.451 219.957 114.486L228.448 119.307V138.45L203.677 124.386Z" fill="#0C0C30"/>
<path d="M205.132 113.237L202.593 111.77V118.678L200.885 117.691V110.784L198.379 109.338V107.954L205.132 111.853V113.237Z" fill="#CCE1FD"/>
<path d="M210.104 121.306L207.108 119.577L206.539 120.957L204.723 119.908L207.809 113.398L209.392 114.313L212.496 124.397L210.679 123.348L210.104 121.306ZM207.569 118.46L209.642 119.656L208.6 115.951L207.569 118.46Z" fill="#CCE1FD"/>
<path d="M216.237 121.124L217.791 119.163L219.755 120.297L217.341 123.015L219.818 128.625L217.83 127.477L216.236 123.652L214.642 125.636L212.654 124.489L215.131 121.739L212.718 116.234L214.682 117.369L216.237 121.124Z" fill="#CCE1FD"/>
<path d="M239.64 68.0506L185.151 37.1122V36.2217L239.64 67.16V68.0506Z" fill="#CCE1FD"/>
<path d="M239.64 74.8269L185.151 43.8886V42.998L239.64 73.9354V74.8269Z" fill="#CCE1FD"/>
<path d="M239.64 81.6038L185.151 50.6664V49.7749L239.64 80.7122V81.6038Z" fill="#CCE1FD"/>
<path d="M184.976 55.6719L185.43 77.2859L206.118 89.2289V67.8757L184.976 55.6719Z" fill="#AB30A9"/>
<path d="M216.7 73.7368V95.3399L237.824 107.536L237.838 86.1745L216.7 73.7368Z" fill="#AB30A9"/>
<path d="M34.4368 212.112V213.358C34.4368 213.794 34.6687 214.198 35.0465 214.417L97.305 250.457C98.0876 250.911 99.0531 250.91 99.8347 250.455L139.552 227.326C139.927 227.107 140.159 226.704 140.159 226.27V225.023L34.4368 212.112Z" fill="#BC8011"/>
<path d="M97.3351 248.705L34.9716 212.776C34.3259 212.404 34.256 211.839 34.8147 211.516L75.0783 188.27C75.638 187.947 76.6145 187.987 77.2602 188.361L139.624 224.29C140.269 224.662 140.339 225.226 139.781 225.549L99.517 248.795C98.9573 249.118 97.9807 249.078 97.3351 248.705Z" fill="#EEAC13"/>
<path d="M139.624 224.289L108.826 206.545C97.1279 223.803 70.0316 224.692 53.399 223.393L97.3348 248.705C97.9805 249.078 98.958 249.119 99.5167 248.795L139.78 225.549C140.34 225.226 140.27 224.662 139.624 224.289Z" fill="#DE9911"/>
<path d="M127.93 231.976L64.0197 195.078L68.6893 192.383L132.599 229.28L127.93 231.976Z" fill="#EEECEB"/>
<path d="M64.7343 206.846L55.373 201.452L62.0926 197.572L71.4539 202.966L64.7343 206.846Z" fill="#F9D855"/>
<path d="M52.6682 217.655L46.6023 214.153L49.7827 212.317L55.8486 215.819L52.6682 217.655Z" fill="#EEECEB"/>
<path d="M63.5267 223.924L57.4608 220.422L60.6402 218.585L66.7061 222.088L63.5267 223.924Z" fill="#EEECEB"/>
<path d="M122.169 233.021L73.8265 205.111L74.4971 204.724L122.841 232.633L122.169 233.021Z" fill="#EEECEB"/>
<path d="M119.145 234.767L70.8021 206.857L71.4727 206.47L119.816 234.379L119.145 234.767Z" fill="#EEECEB"/>
<path d="M116.121 236.513L67.7776 208.603L68.4493 208.217L116.792 236.125L116.121 236.513Z" fill="#EEECEB"/>
<path d="M78.1746 232.38L69.416 227.324L70.0867 226.936L78.8462 231.993L78.1746 232.38Z" fill="#EEECEB"/>
<path d="M80.8162 230.637L72.0576 225.58L72.7283 225.193L81.4879 230.25L80.8162 230.637Z" fill="#EEECEB"/>
<path d="M140.151 225.02C140.144 225.218 140.026 225.407 139.781 225.549L99.5178 248.795C99.2509 248.949 98.8871 249.015 98.5103 249.007V250.787C98.967 250.798 99.4258 250.691 99.8346 250.453L139.552 227.324C139.927 227.105 140.159 226.702 140.159 226.268V225.021L140.151 225.02Z" fill="#D45700"/>
<path d="M282.777 140.014L244.092 118.022V115.233L282.777 137.224V140.014Z" fill="#759BFD"/>
<path d="M278.325 122.88L248.543 105.949V104.876L278.325 121.805V122.88Z" fill="#EEAC13"/>
<path d="M278.325 127.547L248.543 110.617V109.543L278.325 126.473V127.547Z" fill="#EEAC13"/>
<path d="M245.418 117.645V115.986L244.092 115.233V118.022L282.777 140.014V138.689L245.418 117.645Z" fill="#017BD4"/>
<path d="M246.661 117.752C243.063 118.079 240.629 118.557 239.028 118.992C238.416 119.115 237.777 119.329 237.119 119.625C236.527 119.871 236.292 120.036 236.292 120.036C231.013 122.959 226.751 130.349 226.771 136.543V168.672C226.771 168.672 226.769 169.084 226.771 169.293C226.796 172.504 225.31 176.137 222.983 179.109C222.324 179.952 221.496 180.647 220.581 181.201L205.369 190.424L239.97 210.415L255.134 201.458C256.381 200.721 257.5 199.779 258.381 198.63C260.598 195.737 261.979 192.04 262.176 189.046L262.158 156.987C262.14 151.613 265.347 145.344 269.644 141.868C270.76 140.994 272.161 140.254 273.611 139.641C275.452 139.067 281.024 137.523 281.024 137.523L246.661 117.752Z" fill="#EBEDFB"/>
<path d="M261.188 129.115L273.425 135.89L274.143 135.792L261.906 129.017L261.188 129.115Z" fill="#00365C"/>
<path d="M245.434 120.393L260.036 128.477L260.753 128.379L246.152 120.295L245.434 120.393Z" fill="#00365C"/>
<path d="M256.854 130.018L269.091 136.793L269.679 136.617L257.442 129.841L256.854 130.018Z" fill="#00365C"/>
<path d="M241.1 121.296L255.702 129.38L256.29 129.204L241.688 121.12L241.1 121.296Z" fill="#00365C"/>
<path d="M253.294 131.855L265.532 138.631L265.965 138.377L253.728 131.602L253.294 131.855Z" fill="#00365C"/>
<path d="M237.541 123.133L252.143 131.218L252.575 130.964L237.974 122.879L237.541 123.133Z" fill="#00365C"/>
<path d="M248.703 137.698L260.94 144.474L261.229 144.14L248.992 137.365L248.703 137.698Z" fill="#FA471E"/>
<path d="M231.155 132.673L259.146 148.17L259.147 147.672L231.157 132.174L231.155 132.673Z" fill="#00365C"/>
<path d="M230.54 141.884L258.53 157.381L258.532 156.884L230.541 141.386L230.54 141.884Z" fill="#00365C"/>
<path d="M230.54 147.155L258.53 162.652L258.532 162.153L230.541 146.656L230.54 147.155Z" fill="#00365C"/>
<path d="M230.54 152.424L258.53 167.921L258.532 167.423L230.541 151.925L230.54 152.424Z" fill="#00365C"/>
<path d="M230.54 157.694L258.53 173.191L258.532 172.693L230.541 157.196L230.54 157.694Z" fill="#00365C"/>
<path d="M230.54 162.964L258.53 178.461L258.532 177.963L230.541 162.465L230.54 162.964Z" fill="#00365C"/>
<path d="M222.753 183.614L250.743 199.111L251.203 198.862L223.213 183.365L222.753 183.614Z" fill="#00365C"/>
<path d="M219.372 185.605L247.363 201.103L247.823 200.854L219.833 185.356L219.372 185.605Z" fill="#00365C"/>
<path d="M215.992 187.597L243.983 203.094L244.443 202.845L216.453 187.348L215.992 187.597Z" fill="#00365C"/>
<path d="M212.612 189.588L240.602 205.086L241.063 204.836L213.072 189.339L212.612 189.588Z" fill="#00365C"/>
<path d="M232.95 128.977L247.551 137.061L247.84 136.727L233.239 128.643L232.95 128.977Z" fill="#FA471E"/>
<path d="M230.525 136.822L237.228 140.534L237.23 140.035L230.527 136.324L230.525 136.822Z" fill="#FA471E"/>
<path d="M230.525 175.757L237.228 179.468L237.23 178.969L230.527 175.258L230.525 175.757Z" fill="#FA471E"/>
<path d="M256.129 100.603C260.994 109.029 268.896 113.574 273.78 110.754C278.664 107.934 278.679 98.818 273.814 90.3923C268.95 81.9666 261.048 77.4219 256.163 80.2414C251.28 83.061 251.265 92.1774 256.129 100.603Z" fill="#EEAC13"/>
<path d="M265.5 93.0769C266.768 93.4467 267.698 92.817 267.698 91.4317C267.698 89.7565 266.339 87.6146 264.664 86.6471C262.989 85.6796 261.632 86.2543 261.632 87.9295C261.632 89.3148 262.561 91.0169 263.83 92.1124C261.138 90.9629 259.073 92.0854 259.073 94.889V98.3602L270.257 104.817V101.347C270.256 98.5431 268.19 95.0349 265.5 93.0769Z" fill="white"/>
<path d="M109.418 278.964L114.853 276.093C118.147 275.381 121.248 273.632 121.842 275.003C122.503 276.524 121.285 278.207 119.948 279.106C118.043 280.388 116.622 280.988 114.972 280.897L114.924 282.12L111.564 283.437L109.145 282.501L109.137 281.606L109.418 278.964Z" fill="#39302A"/>
<path d="M124.13 288.767L124.32 289.188L128.261 289.431L129.4 288.417C129.4 288.417 137.084 288.11 137.807 284.442C138.621 280.319 130.898 283.438 130.092 283.438C129.287 283.438 124.242 285.892 124.242 285.892L124.13 288.767Z" fill="#39302A"/>
<path d="M125.51 169.486C123.23 163.045 117.79 171.231 117.084 174.004L114.575 176.722C114.715 177.877 112.894 181.182 112.894 181.182L121.006 184.003C121.098 182.815 121.384 181.483 121.645 180.45C122.307 180.7 122.988 180.73 123.649 180.422C126.631 179.036 125.51 169.486 125.51 169.486Z" fill="#F59473"/>
<path d="M121.645 180.452C121.645 180.452 120.583 179.756 119.546 178.44C119.546 178.44 119.945 180.003 120.233 180.452C120.233 180.452 118.29 181.355 117.698 182.853L121.006 184.004C121.006 184.004 121.245 181.895 121.645 180.452Z" fill="#CD7C61"/>
<path d="M124.266 164.352C121.829 165.306 122.127 164.323 118.089 165.306C113.513 166.422 113.513 169.817 113.513 169.817C112.894 174.467 114.576 176.722 114.576 176.722C116.169 177.791 119.209 177.684 119.209 177.684L119.98 176.646C120.329 176.451 120.588 176.204 120.783 175.934C119.325 175.507 119.104 173.925 119.685 173.279C120.404 172.48 121.222 173.127 121.417 173.302C126.074 171.726 125.51 169.486 125.51 169.486C127.714 167.892 124.266 164.352 124.266 164.352Z" fill="#39302A"/>
<path d="M114.146 170.128C114.709 167.142 116.928 165.068 122.342 164.835L122.28 164.815C121.427 164.842 120.588 164.698 118.09 165.306C113.514 166.422 113.514 169.817 113.514 169.817C112.895 174.468 114.577 176.722 114.577 176.722C114.577 176.722 113.582 173.113 114.146 170.128Z" fill="#665A53"/>
<path d="M124.266 164.352C124.266 164.352 125.498 167.362 122.905 168.483C122.905 168.483 123.802 168.901 124.79 168.7C124.79 168.7 122.591 170.435 119.387 170.543L119.673 171.52C119.673 171.52 116.777 173.17 116.307 177.407C117.739 177.735 119.21 177.685 119.21 177.685L119.981 176.647C120.33 176.453 120.589 176.205 120.784 175.935C119.326 175.508 119.105 173.926 119.687 173.28C120.405 172.481 121.223 173.128 121.418 173.303C126.075 171.727 125.511 169.487 125.511 169.487C127.715 167.892 124.266 164.352 124.266 164.352Z" fill="#141211"/>
<path d="M121.282 228.945C115.582 228.945 110.559 226.586 108.36 225.379C108.392 225.659 108.422 225.932 108.458 226.222C109.441 234.193 109.914 246.432 109.805 247.524C109.805 247.524 107.638 264.885 109.383 279.408L115.793 278.329C115.793 278.329 117.553 254.876 118.376 248.005C118.877 243.831 119.146 240.258 119.276 238.213C121.162 244.349 123.018 249.416 123.018 249.416C119.743 268.634 124.254 285.959 124.254 285.959L130.312 284.669C130.312 284.669 130.479 266.378 131.79 249.344C132.529 239.733 131.958 230.981 131.321 225.177C127.249 228.963 121.282 228.945 121.282 228.945Z" fill="#3F3733"/>
<path d="M131.081 204.303C131.189 202.696 131.094 199.742 129.77 195.738C130.373 195.453 131.046 195.127 131.816 194.753C135.449 192.986 144.781 186.605 144.781 186.605L143.592 183.508C143.592 183.508 136.349 185.518 126.847 189.58C125.988 188.404 124.817 187.328 123.205 186.467C122.593 186.14 121.975 185.824 121.355 185.522L121.361 185.524L121.006 184.002C121.006 184.002 117.592 181.354 112.894 181.181C112.894 181.181 111.811 181.761 111.117 182.754L111.144 182.761C110.116 182.831 109.154 183.057 108.289 183.498C104.864 185.243 104.416 190.269 105.899 197.796C107.238 204.599 107.192 210.05 107.35 216.021C107.35 216.021 107.458 222.603 107.181 224.681C107.181 224.681 113.623 228.943 121.283 228.943C121.283 228.943 127.901 228.966 131.954 224.543C131.954 224.543 130.901 217.876 130.378 212.811C136.72 213.428 139.157 193.769 139.157 193.769L136.08 193.245C136.08 193.245 132.02 200.711 131.081 204.303Z" fill="#7F7061"/>
<path d="M119.275 238.215C116.986 235.053 115.115 229.717 115.115 229.717C115.371 233.043 117.506 238.031 117.506 238.031C117.159 239.002 115.911 242.085 115.219 247.975C114.626 253.01 112.968 278.804 112.968 278.804L115.792 278.329C115.792 278.329 117.552 254.876 118.375 248.005C118.876 243.832 119.145 240.261 119.275 238.215Z" fill="#2B2421"/>
<path d="M131.321 225.18C131.321 225.18 129.589 226.456 127.613 227.555C127.613 227.555 129.425 242.882 129.217 248.841C129.009 254.8 126.965 281.057 127.613 285.243L130.312 284.668C130.312 284.668 130.479 266.376 131.789 249.343C132.528 239.735 131.958 230.984 131.321 225.18Z" fill="#2B2421"/>
<path d="M123.204 186.468C122.59 186.14 121.971 185.824 121.35 185.522L121.361 185.525L121.006 184.003C121.006 184.003 119.308 182.692 116.664 181.854C116.631 181.871 115.487 182.473 114.818 183.755L117.145 184.385L117.005 184.367C116.968 186.471 122.564 189.797 122.564 189.797C126.09 188.793 127.407 190.996 127.407 190.996L127.679 190.915C126.801 189.223 125.411 187.647 123.204 186.468Z" fill="#65594B"/>
<path d="M108.289 183.5C109.154 183.059 110.116 182.833 111.144 182.763L111.117 182.756C111.811 181.763 112.894 181.183 112.894 181.183C113.104 181.191 113.308 181.209 113.513 181.226C113.438 181.27 112.723 181.744 112.894 183.691C112.894 183.691 109.316 187.345 110.36 195.419C111.405 203.493 114.216 221.566 112.567 227.286C109.308 226.09 107.181 224.684 107.181 224.684C107.458 222.605 107.35 216.024 107.35 216.024C107.193 210.052 107.239 204.602 105.899 197.799C104.416 190.27 104.864 185.244 108.289 183.5Z" fill="#8F8177"/>
<path d="M126.825 210.579C124.247 207.7 122.737 203.523 121.89 199.494L121.888 199.491C121.888 199.491 122.5 208.011 127.222 213.284L128.493 217.506H125.19C125.19 217.506 121.619 224.649 121.636 228.934C123.046 228.868 128.452 228.365 131.953 224.545C131.953 224.545 130.899 217.878 130.376 212.813C129.306 212.708 128.126 212.031 126.825 210.579Z" fill="#65594B"/>
<path d="M129.773 195.736C130.375 195.452 131.045 195.128 131.816 194.753C135.449 192.987 144.781 186.606 144.781 186.606L144.287 185.367C144.287 185.367 134.252 190.777 128.679 192.873C129.114 193.878 129.476 194.833 129.773 195.736Z" fill="#65594B"/>
<path d="M108.359 225.375C108.391 225.654 108.422 225.93 108.458 226.223C109.441 234.194 109.914 246.432 109.805 247.524C109.805 247.524 107.638 264.885 109.383 279.408L110.541 279.213C109.48 266.971 110.729 251.688 111.083 247.053C111.45 242.247 110.132 230.671 109.559 225.998C109.092 225.769 108.698 225.561 108.359 225.375Z" fill="#6D625C"/>
<path d="M124.254 285.959L124.787 285.846C121.607 261.341 124.266 249.732 124.266 249.732C123.186 247.648 119.316 238.314 119.277 238.22C121.162 244.354 123.018 249.418 123.018 249.418C119.741 268.634 124.254 285.959 124.254 285.959Z" fill="#6D625C"/>
<path d="M138.324 193.629C137.479 198.517 134.803 211.708 130.422 212.816C136.73 213.335 139.156 193.771 139.156 193.771L138.324 193.629Z" fill="#65594B"/>
<path d="M127.201 190.098C131.613 188.872 138.906 186.661 143.858 184.199L143.593 183.509C143.593 183.509 136.351 185.518 126.849 189.58C126.973 189.751 127.089 189.924 127.201 190.098Z" fill="#8F8177"/>
<path d="M143.706 183.799C143.706 183.799 147.158 182.233 148.476 182.241C149.793 182.248 151.632 182.754 151.583 182.888C151.535 183.023 149.688 183.292 149.27 183.328C149.27 183.328 149.171 184.836 148.635 185.49C147.976 186.294 145.809 186.797 144.646 186.29L143.706 183.799Z" fill="#F59473"/>
<path d="M151.097 182.665C151.406 182.759 151.598 182.845 151.582 182.889C151.533 183.023 149.687 183.291 149.269 183.328C150.039 182.792 150.655 182.657 151.097 182.665Z" fill="#CD7C61"/>
<path d="M148.057 185.024C147.75 185.024 147.464 184.699 147.464 184.699C148.653 184.491 149.268 183.328 149.268 183.328C149.268 183.328 149.169 184.836 148.634 185.49C147.975 186.294 145.808 186.797 144.645 186.29L144.168 185.024C145.748 185.929 148.057 185.024 148.057 185.024Z" fill="#CD7C61"/>
<path d="M143.118 184.217C143.587 187.866 145.682 190.604 147.797 190.331C149.912 190.06 151.247 186.88 150.778 183.231C150.308 179.582 148.213 176.843 146.098 177.116C143.982 177.388 142.648 180.567 143.118 184.217Z" fill="#0F87D6"/>
<path d="M150.218 183.304C149.791 179.984 147.981 177.48 146.174 177.713C145.533 177.795 144.439 178.08 144.439 178.08C141.472 180.684 136.909 181.342 136.909 181.342L137.313 188.223C143.7 187.964 146.168 189.964 146.168 189.964C146.168 189.964 147.152 189.811 147.721 189.738C149.526 189.504 150.645 186.624 150.218 183.304Z" fill="#B22E49"/>
<path d="M138.001 188.203L137.412 192.595L139.013 192.724L139.822 187.813C139.822 187.813 138.897 188.158 138.001 188.203Z" fill="#D45700"/>
<path d="M138.645 188.126L138.007 192.643L137.412 192.595L138.001 188.203C138.001 188.203 138.403 188.174 138.645 188.126Z" fill="#F0930F"/>
<path d="M138.715 184.534L137.182 185.983L137.314 188.221C143.7 187.962 146.168 189.962 146.168 189.962C146.168 189.962 147.153 189.809 147.721 189.736C149.528 189.504 150.646 186.623 150.218 183.303C148.586 187.478 138.715 184.534 138.715 184.534Z" fill="#99213E"/>
<path d="M134.515 185.075C134.773 187.076 135.921 188.577 137.082 188.428C138.242 188.279 138.974 186.536 138.716 184.534C138.458 182.533 137.31 181.032 136.149 181.181C134.989 181.33 134.257 183.073 134.515 185.075Z" fill="#F4535D"/>
<path d="M134.041 185.198C134.241 186.754 135.135 187.923 136.037 187.807C136.94 187.691 137.508 186.334 137.309 184.778C137.109 183.222 136.215 182.054 135.313 182.17C134.41 182.285 133.841 183.641 134.041 185.198Z" fill="#26215B"/>
<path d="M136.243 193.274L136.454 191.015C136.454 191.015 136.864 189.851 137.412 189.408C137.412 189.408 139.515 188.69 139.739 188.685C139.961 188.68 139.739 189.711 139.739 189.711C139.739 189.711 139.839 190.214 139.581 190.708C139.581 190.708 139.746 191.136 139.454 191.661C139.454 191.661 139.548 192.81 138.767 193.704L136.243 193.274Z" fill="#F59473"/>
<path d="M60.4672 120.107L64.1374 120.3C64.1374 120.3 67.9634 122.141 67.7735 122.342L64.1534 121.325L65.7705 122.331C65.8065 122.353 67.4157 123.565 67.3747 123.661C67.3288 123.768 65.3388 122.801 65.3388 122.801L63.5996 122.059C63.5996 122.059 64.8 123.096 64.899 123.274C64.9979 123.451 65.8755 124.675 65.7855 124.721C65.6956 124.767 64.4562 123.714 64.4562 123.714L63.2818 122.774C63.2818 122.774 64.4872 124.429 64.4532 124.599C64.4182 124.769 62.883 123.345 62.883 123.345C62.883 123.345 61.1659 123.401 60.3343 122.558L60.4672 120.107Z" fill="#F59473"/>
<path d="M21.8739 201.939C21.8739 201.939 23.2322 204.906 24.5395 206.448C25.8469 207.989 26.8743 208.818 26.7744 209.857C26.6744 210.895 25.517 212.273 22.1967 210.632C19.2782 209.188 18.0538 206.988 17.4971 206.209C17.4161 206.096 17.3562 206.016 17.3162 205.978L15.8579 205.037L16.2687 202.214L21.8739 201.939Z" fill="#39302A"/>
<path d="M36.1406 189.78C36.1406 189.78 38.2515 192.27 39.9266 193.399C41.6028 194.529 42.8162 195.05 43.0011 196.076C43.186 197.101 42.4444 198.742 38.8042 198.06C35.6038 197.46 33.8297 195.674 33.0821 195.074C32.9742 194.987 32.8942 194.927 32.8452 194.901L31.1871 194.391L30.8922 191.29L36.1406 189.78Z" fill="#39302A"/>
<path d="M39.1421 130.273C39.0941 130.468 39.0431 130.653 38.9902 130.819C37.7788 134.581 33.4719 136.474 26.9362 135.822C22.2376 135.354 20.0028 133.031 19.0572 130.589C18.9933 130.606 18.9333 130.615 18.8703 130.63C16.4875 137.187 18.0397 166.795 18.0397 166.795C16.0078 180.362 16.2816 202.537 16.2816 202.537H22.1087C23.0822 193.055 27.5679 166.73 27.5679 166.73C28.4865 162.774 29.2901 159.07 29.9847 155.697C30.2006 157.173 30.3395 158.099 30.3395 158.099C28.3915 166.842 30.9542 191.899 30.9542 191.899L36.6603 190.862C37.324 182.126 38.8402 157.987 38.8402 157.987C40.1925 138.514 39.1451 130.273 39.1451 130.273H39.1421Z" fill="#7D5B4C"/>
<path d="M44.4023 115.05C41.8366 108.837 39.7117 104.895 38.8181 103.326C37.8516 101.389 36.3844 100.675 34.7992 100.222C31.9556 99.4107 27.175 100.998 27.175 100.998C21.9656 103.082 18.6473 105.614 17.326 108.8C17.321 108.799 17.315 108.799 17.315 108.799C17.315 108.799 17.3 108.841 17.267 108.939C17.0951 109.375 16.9562 109.821 16.8592 110.282C16.3515 112.036 15.371 115.654 13.6768 122.692C12.7313 126.618 14.1956 129.936 16.5924 130.669C17.307 130.888 18.1456 130.835 19.0571 130.589C20.0036 133.031 22.2385 135.353 26.9361 135.822C33.4718 136.475 37.7796 134.581 38.99 130.819C39.7287 128.523 39.9755 123.417 40.0315 118.382C40.7132 119.066 41.113 119.336 41.113 119.336C49.8096 123.927 60.5271 122.852 60.5271 122.852L61.2668 120.063C51.1879 116.224 44.4023 115.05 44.4023 115.05Z" fill="#FDB94D"/>
<path d="M40.8223 115.939C40.6594 113.695 40.2746 110.954 39.9667 108.975C39.9737 109.17 39.9797 109.369 39.9837 109.574C40.0257 111.979 40.0677 115.164 40.0327 118.379C40.7134 119.063 41.1142 119.336 41.1142 119.336C49.8108 123.928 60.5283 122.852 60.5283 122.852L60.6963 122.21C52.5584 121.74 41.1132 119.947 40.8223 115.939Z" fill="#DF9C3B"/>
<path d="M33.719 93.2187C32.4266 88.1902 25.744 88.2362 24.2997 93.0098C23.3492 96.1512 24.7425 100.222 24.7425 100.222L24.2947 100.523C24.7295 102.887 28.8264 105.628 28.8264 105.628L31.2292 106.334L32.3507 103.138C32.7335 102.683 33.0773 102.072 33.3921 101.298C35.1932 96.8619 33.719 93.2187 33.719 93.2187Z" fill="#F59473"/>
<path d="M25.0803 100.566C24.9693 99.9525 24.7954 99.4468 24.7954 99.4468C24.2937 98.5002 23.66 96.3913 24.9933 96.1115C25.9378 95.9136 26.1807 97.2389 26.1807 97.2389C26.1807 97.2389 25.8169 96.4163 25.1882 96.5082C24.4256 96.6202 24.6985 97.8886 25.0803 98.5302C25.4621 99.1719 25.7199 100.214 25.0823 100.571L25.0803 100.566Z" fill="#CD7C61"/>
<path d="M25.0913 100.572L25.0833 100.57C25.0833 100.567 25.0823 100.566 25.0813 100.563C24.9674 100.448 24.8584 100.343 24.7415 100.223L24.2937 100.523C24.4186 101.201 24.8484 101.909 25.3932 102.575C26.4746 103.411 28.3686 105.016 30.2547 104.868C31.7519 104.751 32.1177 103.802 32.1177 103.802L32.3506 103.138C30.8304 104.944 28.6685 104.181 25.0913 100.572Z" fill="#CD7C61"/>
<path d="M32.5155 157.995C33.7009 152.319 32.4615 142.652 32.4615 142.652C32.0247 145.066 29.9847 155.695 29.9847 155.695C30.2006 157.171 30.3396 158.097 30.3396 158.097C28.3915 166.84 30.9542 191.897 30.9542 191.897L34.2316 191.301C34.1906 191.003 34.1486 190.695 34.1046 190.365C32.9412 181.576 32.5155 157.995 32.5155 157.995Z" fill="#8A6D61"/>
<path d="M33.5805 92.2904C33.4476 91.9655 32.3741 89.2369 28.4161 89.3498C27.6715 89.3708 27.0168 89.5348 26.4381 89.7736L26.4421 89.7656C26.4421 89.7656 22.791 90.6032 22.0153 96.0904C21.3897 100.52 17.9444 102.905 19.4876 105.629C19.4876 105.629 21.1428 105.968 22.3152 104.728C22.3152 104.728 26.0363 106.734 27.2627 104.47C27.2627 104.47 26.3432 103.147 24.8899 100.495C25.0378 99.9995 24.7929 99.4467 24.7929 99.4467C24.689 99.2508 24.583 99 24.4861 98.7311L24.2092 97.0979C24.2552 96.6102 24.4711 96.2204 24.9908 96.1114C25.9354 95.9135 26.1792 97.2389 26.1792 97.2389C30.4671 96.7631 31.9473 95.8476 33.3566 93.8266L33.9423 93.9495C33.9443 92.8721 33.5805 92.2904 33.5805 92.2904Z" fill="#39302A"/>
<path d="M34.1875 100.089L34.2815 97.0889L34.2775 97.0949C34.2425 98.3232 34.0166 99.7605 33.3919 101.298C33.0771 102.072 32.7333 102.684 32.3505 103.138C35.219 102.732 34.1875 100.089 34.1875 100.089Z" fill="#141211"/>
<path d="M23.564 135.033C21.0983 134.046 19.739 132.35 19.0563 130.589C19.1483 130.564 19.2432 130.531 19.3372 130.503L18.9724 130.366C16.4426 136.348 18.0388 166.795 18.0388 166.795C16.0069 180.362 16.2807 202.537 16.2807 202.537H19.3941C19.1003 196.166 21.9419 166.452 21.9419 166.452C21.3941 158.047 23.553 135.157 23.564 135.033Z" fill="#8A6D61"/>
<path d="M24.9112 131.516C29.7068 127.557 34.1865 118.924 34.1865 118.924C34.1865 118.924 25.0042 128.985 19.0552 130.588C20.0017 133.03 22.2366 135.353 26.9342 135.821C30.4544 136.173 33.321 135.779 35.4129 134.759C28.7413 135.552 24.9112 131.516 24.9112 131.516Z" fill="#DF9C3B"/>
<path d="M22.3196 115.4C21.579 120.575 20.5035 123.193 20.0607 124.104L20.3556 123.974C23.2361 121.301 32.4475 116.54 32.4475 116.54C32.4475 116.54 24.7694 120.12 21.3371 122.447C21.3371 122.447 22.7484 117.324 22.3916 113.895V113.896C22.4175 114.356 22.3966 114.855 22.3196 115.4Z" fill="#DF9C3B"/>
<path d="M23.0733 112.703L22.0388 122.646C25.8059 119.973 32.4486 116.54 32.4486 116.54L34.1887 118.924C34.1887 118.924 27.0703 126.723 21.3072 129.682L21.2852 129.896L34.5805 129.73L36.3696 112.536L23.0733 112.703Z" fill="#EBEDFB"/>
<path d="M32.4476 116.54C32.4476 116.54 34.0278 114.421 34.1877 114.304C34.3467 114.188 34.3807 115.422 34.3807 115.422L36.2447 113.727L36.3057 113.141C36.3057 113.141 36.5875 113.621 36.5725 113.894L36.4596 114.246C36.4596 114.246 36.6065 114.653 36.3686 115.177C36.3686 115.177 36.5905 115.686 36.2677 116.146C36.2677 116.146 36.4086 116.576 36.1308 117.038C36.1308 117.038 35.5361 118.201 34.0498 118.734L32.4476 116.54Z" fill="#F59473"/>
<path d="M14.1645 125.459C13.9316 122.841 17.131 112.197 17.7127 109.93C18.2374 107.884 19.2519 106.045 19.4478 105.701C18.5053 106.662 17.7857 107.69 17.3249 108.801L17.3139 108.8C17.3139 108.8 17.2989 108.842 17.2669 108.939C17.095 109.375 16.9561 109.822 16.8581 110.282C16.3504 112.036 15.3699 115.656 13.6757 122.692C12.7302 126.618 14.1945 129.936 16.5913 130.669C17.2989 130.886 18.1285 130.834 19.03 130.594C15.5118 130.941 14.3974 128.069 14.1645 125.459Z" fill="#F2D1A2"/>
<path d="M61.2669 120.062C51.188 116.224 44.4034 115.05 44.4034 115.05C44.4034 115.05 54.5343 118.174 61.134 120.566L61.2669 120.062Z" fill="#F2D1A2"/>
<path d="M27.5669 166.729C29.9158 156.616 31.5109 148.149 32.4605 142.653C32.4565 142.667 23.8948 173.649 21.529 202.536H22.1067C23.0822 193.054 27.5669 166.729 27.5669 166.729Z" fill="#5E4238"/>
<path d="M39.477 135.949C39.475 135.846 39.472 135.751 39.469 135.652C39.467 135.589 39.465 135.525 39.463 135.463C39.455 135.215 39.447 134.975 39.439 134.746C39.438 134.732 39.438 134.717 39.438 134.703C39.3231 131.682 39.1452 130.272 39.1452 130.272L39.1362 130.277C39.0892 130.465 39.0432 130.658 38.9912 130.819C37.7799 134.581 33.473 136.474 26.9373 135.822C25.628 135.691 24.5186 135.411 23.566 135.03C23.566 135.03 29.9788 138.487 37.9058 136.426C38.0147 138.694 38.1856 143.994 37.8388 150.635C37.45 158.084 36.1667 183.049 35.7569 191.025L36.6614 190.861C37.3251 182.125 38.8413 157.986 38.8413 157.986C39.5619 147.581 39.5989 140.396 39.477 135.949Z" fill="#5E4238"/>
<path d="M27.265 104.47C27.265 104.47 26.3455 103.147 24.8922 100.495C25.0402 99.9994 24.7953 99.4467 24.7953 99.4467C24.6913 99.2508 24.5854 98.9999 24.4884 98.7311L24.2116 97.0979C24.2116 97.0979 22.1886 100.751 22.2656 104.772C22.2816 104.755 22.2996 104.745 22.3165 104.728C22.3165 104.728 26.0377 106.733 27.265 104.47Z" fill="#141211"/>
<path d="M33.359 93.8256L33.9447 93.9485C33.9447 92.8711 33.5809 92.2893 33.5809 92.2893C33.5039 92.1004 33.1041 91.1019 32.0107 90.3193C31.4799 90.6122 30.9842 91.047 30.5864 91.6847C28.9192 94.3603 26.7473 95.2968 26.7473 95.2968C28.8802 94.8371 30.0816 94.0505 30.0816 94.0505C28.5064 95.6257 26.6024 96.2593 25.8428 96.4622C26.0936 96.7981 26.1806 97.2368 26.1806 97.2368C30.4694 96.7621 31.9497 95.8466 33.359 93.8256Z" fill="#141211"/>
<path d="M27.2437 89.5129C26.9608 89.5829 26.691 89.6699 26.4381 89.7738L26.4421 89.7658C26.4421 89.7658 22.791 90.6034 22.0153 96.0906C21.3897 100.52 17.9444 102.905 19.4876 105.629C19.4876 105.629 19.6405 105.656 19.8704 105.666C19.6835 105.215 19.4666 104.42 19.6885 103.435C20.0373 101.884 21.8114 99.8817 22.2622 97.238C22.714 94.5994 23.4756 90.9422 27.2437 89.5129Z" fill="#665A53"/>
<path d="M30.4815 122.657C27.9138 125.088 24.4145 128.086 21.3061 129.684L21.2841 129.897L34.5794 129.732L35.7118 118.851C34.1736 120.207 32.3415 121.494 30.4815 122.657Z" fill="#D7D8E8"/>
<path d="M330.216 311.898L324.948 309.116C321.754 308.425 318.75 306.73 318.172 308.058C317.532 309.533 318.713 311.164 320.008 312.035C321.855 313.278 323.233 313.86 324.833 313.771L324.879 314.958L328.136 316.234L330.481 315.328L330.488 314.459L330.216 311.898Z" fill="#39302A"/>
<path d="M315.955 321.4L315.771 321.808L311.951 322.043L310.847 321.06C310.847 321.06 303.399 320.763 302.698 317.207C301.909 313.21 309.395 316.233 310.176 316.233C310.957 316.233 315.846 318.613 315.846 318.613L315.955 321.4Z" fill="#39302A"/>
<path d="M324.799 214.055C324.799 214.055 322.49 211.218 322.423 210.091L319.561 207.933C318.408 205.411 311.803 198.543 310.743 205.08C310.743 205.08 311.325 214.383 314.409 215.189C315.093 215.368 315.736 215.222 316.325 214.869C316.754 215.809 317.257 217.03 317.55 218.148L324.799 214.055Z" fill="#F59473"/>
<path d="M321.615 202.546C318.707 198.793 313.318 200.434 312.018 201.983C310.571 203.708 310.744 205.081 310.744 205.081C310.744 206.9 315.62 208.234 316.055 208.35C316.065 208.329 316.07 208.309 316.08 208.287C316.08 208.287 317.032 207.308 317.855 208.223C318.351 208.773 318.262 210.004 317.323 210.62C318.013 211.585 318.629 212.111 318.629 212.111C321.692 211.615 322.424 210.091 322.424 210.091C324.174 204.929 321.615 202.546 321.615 202.546Z" fill="#39302A"/>
<path d="M322.423 210.091C322.423 210.091 321.691 211.614 318.628 212.111C318.628 212.111 320.388 212.528 321.086 212.354C321.086 212.354 321.101 214.305 321.59 215.867L324.799 214.056C324.799 214.056 322.49 211.218 322.423 210.091Z" fill="#CD7C61"/>
<path d="M322.627 204.256C321.39 205.993 318.629 207.086 318.629 207.086L319.284 205.565C318.062 206.28 316.317 207.06 316.317 207.06C313.583 207.351 310.744 205.08 310.744 205.08C310.744 206.915 315.698 208.255 316.055 208.349C316.065 208.328 316.07 208.308 316.08 208.286C316.08 208.286 317.032 207.307 317.854 208.222C318.35 208.772 318.256 209.997 317.319 210.614C318.01 211.581 318.629 212.11 318.629 212.11C321.691 211.614 322.424 210.09 322.424 210.09C323.331 207.416 323.079 205.494 322.627 204.256Z" fill="#141211"/>
<path d="M312.973 201.709C314.523 200.584 318.079 200.214 320.53 201.472C317.528 199.174 313.17 200.609 312.017 201.982C310.57 203.707 310.743 205.081 310.743 205.081C310.743 205.081 311.418 202.839 312.973 201.709Z" fill="#665A53"/>
<path d="M289.778 219.181L300.345 212.911L312.472 227.909L302.42 232.943L289.778 219.181Z" fill="#EBEDFB"/>
<path d="M305.285 219.021C302.335 219.862 302.881 224.417 302.881 224.417C300.28 225.515 297.628 225.809 295.922 225.87L302.42 232.944L312.473 227.91L305.285 219.021Z" fill="#D7D8E8"/>
<path d="M293.26 221.507L301.626 216.354L301.731 216.472L293.361 221.622L293.26 221.507Z" fill="#191616"/>
<path d="M294.411 222.905L302.777 217.751L302.881 217.869L294.512 223.019L294.411 222.905Z" fill="#191616"/>
<path d="M295.561 224.301L303.927 219.147L304.031 219.266L295.661 224.416L295.561 224.301Z" fill="#191616"/>
<path d="M299.707 224.097L305.051 220.793L305.155 220.911L299.808 224.212L299.707 224.097Z" fill="#191616"/>
<path d="M326.831 215.051L324.648 213.845L317.402 217.633L317.098 219.534L308.728 218.148L307.847 220.756L313.405 222.895C311.198 224.989 307.789 228.53 304.732 232.998C304.732 232.998 299.064 227.879 294.037 224.021L291.933 225.585C291.933 225.585 298.292 238.256 305.33 238.546C305.33 238.546 307.066 238.541 310.104 236.517C309.654 241.527 309.626 247.194 309.989 252.706C309.989 252.706 312.141 256.481 318.21 256.763C324.278 257.045 331.725 252.501 331.864 248.402C332.005 244.239 330.483 239.533 332.576 232.243C335.11 223.424 333.479 213.825 326.831 215.051Z" fill="#B22E49"/>
<path d="M331.648 249.535V249.537C330.372 253.295 323.723 257.02 318.211 256.764C312.143 256.482 309.99 252.707 309.99 252.707C309.99 252.707 307.273 266.608 308.543 283.12C309.813 299.632 310.205 317.387 310.205 317.387L315.847 318.613C315.847 318.613 320.221 301.819 317.046 283.191C317.046 283.191 318.846 278.279 320.673 272.331C320.799 274.314 321.059 277.778 321.544 281.824C322.343 288.483 323.96 311.297 323.96 311.297L330.262 312.262C331.953 298.185 329.853 281.356 329.853 281.356C329.778 280.604 329.987 274.398 330.457 268.098C333.781 254.812 331.648 249.535 331.648 249.535Z" fill="#CDA989"/>
<path d="M315.044 256.234C311.377 255.125 309.99 252.707 309.99 252.707C309.99 252.707 307.273 266.608 308.543 283.12C309.813 299.632 310.205 317.387 310.205 317.387L313.584 318.121C314.815 308.153 309.802 287.921 311.146 274.974C312.488 262.025 315.044 256.234 315.044 256.234Z" fill="#D9BAA3"/>
<path d="M323.713 283.623C323.252 279.929 322.948 271.134 322.948 271.134C326.327 266.447 325.501 260.804 325.501 260.804C325.734 266.331 320.675 272.329 320.672 272.333C320.798 274.316 321.058 277.779 321.543 281.824C322.342 288.483 323.959 311.297 323.959 311.297L327.574 311.85C328.288 304.747 324.176 287.317 323.713 283.623Z" fill="#D9BAA3"/>
<path d="M314.224 221.942C313.529 222.713 312.92 223.803 312.392 225.141L312.531 225.098C312.531 225.098 315.02 222.839 318.172 224.682C318.172 224.682 322.268 219.873 321.725 216.606L321.148 215.676L317.405 217.633L317.1 219.534C316.008 220.264 315.01 221.069 314.224 221.942Z" fill="#B22E49"/>
<path d="M326.831 215.051L324.648 213.845L323.205 214.6L324.799 215.994C324.799 215.994 329.759 219.437 329.262 226.738C328.798 233.572 326.331 247.917 327.389 254.146C329.959 252.541 331.796 250.419 331.864 248.403C332.005 244.241 330.483 239.535 332.576 232.245C335.109 223.424 333.479 213.825 326.831 215.051Z" fill="#8B1F3F"/>
<path d="M306.952 217.762C306.952 217.762 305.683 218.047 305.507 218.148C305.33 218.249 304.43 220.005 304.502 220.213L305.175 219.548L306.952 217.762Z" fill="#F59473"/>
<path d="M305.556 219.157L304.082 220.631L304.302 220.851L305.999 219.154C305.83 219.158 305.68 219.159 305.556 219.157Z" fill="#191616"/>
<path d="M306.199 218.517C306.321 218.459 306.537 218.406 306.792 218.361L311.285 213.868L311.065 213.648L306.192 218.52C306.195 218.519 306.197 218.518 306.199 218.517Z" fill="#191616"/>
<path d="M307.242 217.912L306.793 218.361C306.538 218.406 306.322 218.459 306.2 218.518C305.825 218.699 305.214 219.052 305.272 219.125C305.302 219.162 305.617 219.163 305.999 219.154L305.507 219.647C305.507 219.647 306.582 220.624 307.892 220.624L308.728 218.148L307.242 217.912Z" fill="#F59473"/>
<path d="M291.932 225.586L291.56 223.52V221.123L293.118 222.817C293.118 222.817 293.173 221.123 293.212 220.897C293.251 220.672 294.279 222.505 294.036 224.022L291.932 225.586Z" fill="#F59473"/>
<path d="M331.648 249.535V249.537L331.623 249.558C331.055 251.206 329.471 252.845 327.39 254.146C327.39 254.146 330.246 260.394 328.458 267.549C328.458 267.549 328.384 279.56 328.458 280.388C328.518 281.056 330.203 299.113 329.774 312.187L330.262 312.262C331.953 298.185 329.853 281.356 329.853 281.356C329.778 280.604 329.987 274.398 330.457 268.098C333.781 254.812 331.648 249.535 331.648 249.535Z" fill="#A88166"/>
<path d="M315.813 282.923C315.813 282.923 318.08 299.702 315.028 318.434L315.846 318.612C315.846 318.612 320.22 301.819 317.045 283.19C317.045 283.19 318.843 278.281 320.671 272.336C320.633 272.413 316.045 281.611 315.813 282.923Z" fill="#A88166"/>
<path d="M318.511 217.054L317.403 217.634L317.098 219.535C316.008 220.265 315.01 221.069 314.223 221.943C314.039 222.148 313.862 222.381 313.69 222.628C311.499 224.679 307.925 228.332 304.731 233C304.731 233 299.063 227.881 294.036 224.023L293.517 224.409C294.918 225.49 302.172 231.127 304.743 234.058C304.743 234.058 310.734 226.639 314.514 222.928C314.514 222.928 318.294 220.272 318.585 218.988C318.745 218.282 318.639 217.565 318.511 217.054Z" fill="#BF4462"/>
<path d="M305.33 238.547C305.33 238.547 309.842 238.543 317.071 230.043C313.914 233.141 307.011 238.143 302.882 236.855C298.748 235.566 291.933 225.586 291.933 225.586C291.933 225.586 298.292 238.257 305.33 238.547Z" fill="#8B1F3F"/>
<path d="M313.69 222.628C313.862 222.38 314.039 222.147 314.223 221.942C314.374 221.774 314.54 221.61 314.707 221.447C313.268 221.092 309.3 220.117 308.158 219.836L307.847 220.756L313.409 222.896C313.5 222.809 313.603 222.709 313.69 222.628Z" fill="#8B1F3F"/>
<path d="M316.331 230.894L316.328 230.896C313.899 233.631 311.802 235.387 310.109 236.515C309.658 241.527 309.626 247.191 309.99 252.707C309.99 252.707 311.135 254.693 314.079 255.892C314.199 253.259 311.827 236.56 311.827 236.56C313.679 235.003 316.331 230.894 316.331 230.894Z" fill="#BF4462"/>
<path d="M159.022 105.628L105.623 74.7972V21.3982L159.022 52.2286V105.628Z" fill="#EEAC13"/>
<path d="M105.623 21.3951L107.923 20.1978L161.657 50.8053V104.185L159.022 105.628V52.2285L105.623 21.3951Z" fill="#BC8011"/>
<path d="M154.2 79.406L110.946 54.4336V0.97168L154.2 25.9451V79.406Z" fill="#EBEDFB"/>
<path d="M115.768 57.217C115.768 57.217 140.766 41.1092 147.637 22.1558L154.2 25.9448V79.4058L115.768 57.217Z" fill="#D7D8E8"/>
<path d="M110.946 0.969503L112.809 0L156.334 24.7925V78.2374L154.2 79.4059V25.9449L110.946 0.969503Z" fill="#D7D4D3"/>
<path d="M149.663 30.5835L114.983 10.8865V9.81201L149.663 29.5101V30.5835Z" fill="#017BD4"/>
<path d="M149.663 36.2217L114.983 16.5246V15.4502L149.663 35.1482V36.2217Z" fill="#017BD4"/>
<path d="M149.663 41.8599L114.983 22.1628V21.0884L149.663 40.7864V41.8599Z" fill="#017BD4"/>
<path d="M149.663 47.4981L114.983 27.801V26.7266L149.663 46.4246V47.4981Z" fill="#017BD4"/>
<path d="M149.663 53.1362L114.983 33.4392V32.3647L149.663 52.0628V53.1362Z" fill="#017BD4"/>
<path d="M149.663 58.7742L114.983 39.0771V38.0027L149.663 57.7007V58.7742Z" fill="#017BD4"/>
<path d="M149.663 64.4124L114.983 44.7153V43.6409L149.663 63.3389V64.4124Z" fill="#017BD4"/>
<path d="M159.022 52.2287L161.657 50.8054V104.185L159.022 105.628V52.2287Z" fill="#D45700"/>
<path d="M105.623 21.3953L159.022 105.628L105.623 74.7973V21.3953Z" fill="#F0B83E"/>
<path d="M105.623 74.7971L159.022 52.2285V105.628L105.623 74.7971Z" fill="#F0B83E"/>
<path d="M105.623 74.7971C105.623 74.7971 144.483 77.5717 159.022 60.6663V105.628L105.623 74.7971Z" fill="#EEAC13"/>
<path d="M132.327 63.511L134.822 62.4565L159.022 105.628L132.327 63.511Z" fill="#DE9810"/>
<path d="M132.327 63.5108L105.623 74.7971L131.1 61.5808" fill="#DE9810"/>
</svg>
