<svg width="580" height="483" viewBox="0 0 580 483" fill="none" xmlns="http://www.w3.org/2000/svg">
<g opacity="0.46">
<path opacity="0.0196" d="M263.788 390.697C326.894 390.697 378.051 378.309 378.051 363.028C378.051 347.747 326.894 335.359 263.788 335.359C200.683 335.359 149.525 347.747 149.525 363.028C149.525 378.309 200.683 390.697 263.788 390.697Z" fill="#04051C"/>
<path opacity="0.0392" d="M264.151 390.383C326.54 390.383 377.116 378.136 377.116 363.028C377.116 347.921 326.54 335.674 264.151 335.674C201.762 335.674 151.185 347.921 151.185 363.028C151.185 378.136 201.762 390.383 264.151 390.383Z" fill="#04051C"/>
<path opacity="0.0588" d="M264.512 390.069C326.185 390.069 376.18 377.962 376.18 363.028C376.18 348.094 326.185 335.988 264.512 335.988C202.84 335.988 152.845 348.094 152.845 363.028C152.845 377.962 202.84 390.069 264.512 390.069Z" fill="#04051C"/>
<path opacity="0.0784" d="M264.875 389.754C325.83 389.754 375.245 377.789 375.245 363.028C375.245 348.268 325.83 336.302 264.875 336.302C203.919 336.302 154.505 348.268 154.505 363.028C154.505 377.789 203.919 389.754 264.875 389.754Z" fill="#04051C"/>
<path opacity="0.098" d="M265.237 389.44C325.476 389.44 374.309 377.615 374.309 363.028C374.309 348.441 325.476 336.616 265.237 336.616C204.998 336.616 156.164 348.441 156.164 363.028C156.164 377.615 204.998 389.44 265.237 389.44Z" fill="#04051C"/>
<path opacity="0.1176" d="M265.599 389.126C325.121 389.126 373.374 377.442 373.374 363.028C373.374 348.615 325.121 336.931 265.599 336.931C206.077 336.931 157.824 348.615 157.824 363.028C157.824 377.442 206.077 389.126 265.599 389.126Z" fill="#04051C"/>
<path opacity="0.1373" d="M265.961 388.812C324.767 388.812 372.438 377.268 372.438 363.028C372.438 348.789 324.767 337.245 265.961 337.245C207.155 337.245 159.484 348.789 159.484 363.028C159.484 377.268 207.155 388.812 265.961 388.812Z" fill="#04051C"/>
<path opacity="0.1569" d="M266.323 388.497C324.412 388.497 371.503 377.094 371.503 363.028C371.503 348.962 324.412 337.559 266.323 337.559C208.234 337.559 161.144 348.962 161.144 363.028C161.144 377.094 208.234 388.497 266.323 388.497Z" fill="#04051C"/>
<path opacity="0.1765" d="M266.685 388.183C324.058 388.183 370.567 376.921 370.567 363.028C370.567 349.136 324.058 337.873 266.685 337.873C209.313 337.873 162.803 349.136 162.803 363.028C162.803 376.921 209.313 388.183 266.685 388.183Z" fill="#04051C"/>
<path opacity="0.1961" d="M267.047 387.869C323.703 387.869 369.632 376.747 369.632 363.028C369.632 349.309 323.703 338.188 267.047 338.188C210.391 338.188 164.463 349.309 164.463 363.028C164.463 376.747 210.391 387.869 267.047 387.869Z" fill="#04051C"/>
<path opacity="0.2157" d="M267.41 387.555C323.349 387.555 368.696 376.574 368.696 363.028C368.696 349.483 323.349 338.502 267.41 338.502C211.47 338.502 166.123 349.483 166.123 363.028C166.123 376.574 211.47 387.555 267.41 387.555Z" fill="#04051C"/>
<path opacity="0.2353" d="M267.772 387.241C322.994 387.241 367.761 376.4 367.761 363.028C367.761 349.656 322.994 338.816 267.772 338.816C212.549 338.816 167.782 349.656 167.782 363.028C167.782 376.4 212.549 387.241 267.772 387.241Z" fill="#04051C"/>
<path opacity="0.2549" d="M268.134 386.926C322.64 386.926 366.825 376.227 366.825 363.028C366.825 349.83 322.64 339.13 268.134 339.13C213.628 339.13 169.442 349.83 169.442 363.028C169.442 376.227 213.628 386.926 268.134 386.926Z" fill="#04051C"/>
<path opacity="0.2745" d="M268.496 386.612C322.285 386.612 365.89 376.053 365.89 363.028C365.89 350.003 322.285 339.444 268.496 339.444C214.707 339.444 171.102 350.003 171.102 363.028C171.102 376.053 214.707 386.612 268.496 386.612Z" fill="#04051C"/>
<path opacity="0.2941" d="M268.858 386.298C321.931 386.298 364.955 375.88 364.955 363.028C364.955 350.177 321.931 339.758 268.858 339.758C215.785 339.758 172.761 350.177 172.761 363.028C172.761 375.88 215.785 386.298 268.858 386.298Z" fill="#04051C"/>
<path opacity="0.3137" d="M269.22 385.984C321.576 385.984 364.019 375.706 364.019 363.028C364.019 350.35 321.576 340.073 269.22 340.073C216.864 340.073 174.421 350.35 174.421 363.028C174.421 375.706 216.864 385.984 269.22 385.984Z" fill="#04051C"/>
<path opacity="0.3333" d="M269.582 385.67C321.222 385.67 363.083 375.533 363.083 363.028C363.083 350.524 321.222 340.387 269.582 340.387C217.943 340.387 176.081 350.524 176.081 363.028C176.081 375.533 217.943 385.67 269.582 385.67Z" fill="#04051C"/>
<path opacity="0.3529" d="M269.944 385.355C320.867 385.355 362.148 375.359 362.148 363.028C362.148 350.697 320.867 340.701 269.944 340.701C219.022 340.701 177.741 350.697 177.741 363.028C177.741 375.359 219.022 385.355 269.944 385.355Z" fill="#04051C"/>
<path opacity="0.3725" d="M270.306 385.041C320.513 385.041 361.213 375.186 361.213 363.028C361.213 350.871 320.513 341.015 270.306 341.015C220.1 341.015 179.4 350.871 179.4 363.028C179.4 375.186 220.1 385.041 270.306 385.041Z" fill="#04051C"/>
<path opacity="0.3922" d="M270.669 384.727C320.158 384.727 360.277 375.012 360.277 363.028C360.277 351.044 320.158 341.33 270.669 341.33C221.179 341.33 181.06 351.044 181.06 363.028C181.06 375.012 221.179 384.727 270.669 384.727Z" fill="#04051C"/>
<path opacity="0.4118" d="M271.031 384.413C319.803 384.413 359.342 374.838 359.342 363.028C359.342 351.218 319.803 341.644 271.031 341.644C222.258 341.644 182.72 351.218 182.72 363.028C182.72 374.838 222.258 384.413 271.031 384.413Z" fill="#04051C"/>
<path opacity="0.4314" d="M271.393 384.098C319.449 384.098 358.406 374.665 358.406 363.028C358.406 351.392 319.449 341.958 271.393 341.958C223.337 341.958 184.38 351.392 184.38 363.028C184.38 374.665 223.337 384.098 271.393 384.098Z" fill="#04051C"/>
<path opacity="0.451" d="M271.755 383.784C319.094 383.784 357.471 374.492 357.471 363.028C357.471 351.565 319.094 342.272 271.755 342.272C224.416 342.272 186.039 351.565 186.039 363.028C186.039 374.492 224.416 383.784 271.755 383.784Z" fill="#04051C"/>
<path opacity="0.4706" d="M272.117 383.47C318.74 383.47 356.535 374.318 356.535 363.028C356.535 351.739 318.74 342.587 272.117 342.587C225.494 342.587 187.699 351.739 187.699 363.028C187.699 374.318 225.494 383.47 272.117 383.47Z" fill="#04051C"/>
<path opacity="0.4902" d="M272.479 383.156C318.385 383.156 355.599 374.144 355.599 363.028C355.599 351.912 318.385 342.901 272.479 342.901C226.573 342.901 189.359 351.912 189.359 363.028C189.359 374.144 226.573 383.156 272.479 383.156Z" fill="#04051C"/>
<path opacity="0.5098" d="M272.841 382.842C318.031 382.842 354.664 373.971 354.664 363.028C354.664 352.086 318.031 343.215 272.841 343.215C227.652 343.215 191.018 352.086 191.018 363.028C191.018 373.971 227.652 382.842 272.841 382.842Z" fill="#04051C"/>
<path opacity="0.5294" d="M273.203 382.527C317.676 382.527 353.729 373.797 353.729 363.028C353.729 352.259 317.676 343.529 273.203 343.529C228.73 343.529 192.678 352.259 192.678 363.028C192.678 373.797 228.73 382.527 273.203 382.527Z" fill="#04051C"/>
<path opacity="0.549" d="M273.566 382.213C317.322 382.213 352.793 373.624 352.793 363.028C352.793 352.433 317.322 343.843 273.566 343.843C229.809 343.843 194.338 352.433 194.338 363.028C194.338 373.624 229.809 382.213 273.566 382.213Z" fill="#04051C"/>
<path opacity="0.5686" d="M273.928 381.899C316.967 381.899 351.857 373.45 351.857 363.028C351.857 352.606 316.967 344.158 273.928 344.158C230.888 344.158 195.998 352.606 195.998 363.028C195.998 373.45 230.888 381.899 273.928 381.899Z" fill="#04051C"/>
<path opacity="0.5882" d="M274.29 381.585C316.613 381.585 350.922 373.277 350.922 363.028C350.922 352.78 316.613 344.472 274.29 344.472C231.967 344.472 197.657 352.78 197.657 363.028C197.657 373.277 231.967 381.585 274.29 381.585Z" fill="#04051C"/>
<path opacity="0.6078" d="M274.652 381.271C316.258 381.271 349.987 373.103 349.987 363.028C349.987 352.953 316.258 344.786 274.652 344.786C233.045 344.786 199.317 352.953 199.317 363.028C199.317 373.103 233.045 381.271 274.652 381.271Z" fill="#04051C"/>
<path opacity="0.6275" d="M275.014 380.956C315.904 380.956 349.051 372.93 349.051 363.028C349.051 353.127 315.904 345.1 275.014 345.1C234.124 345.1 200.977 353.127 200.977 363.028C200.977 372.93 234.124 380.956 275.014 380.956Z" fill="#04051C"/>
<path opacity="0.6471" d="M275.376 380.642C315.549 380.642 348.116 372.756 348.116 363.028C348.116 353.3 315.549 345.414 275.376 345.414C235.203 345.414 202.636 353.3 202.636 363.028C202.636 372.756 235.203 380.642 275.376 380.642Z" fill="#04051C"/>
<path opacity="0.6667" d="M275.738 380.328C315.195 380.328 347.18 372.583 347.18 363.028C347.18 353.474 315.195 345.729 275.738 345.729C236.282 345.729 204.296 353.474 204.296 363.028C204.296 372.583 236.282 380.328 275.738 380.328Z" fill="#04051C"/>
<path opacity="0.6863" d="M276.1 380.014C314.84 380.014 346.245 372.409 346.245 363.028C346.245 353.647 314.84 346.043 276.1 346.043C237.361 346.043 205.956 353.647 205.956 363.028C205.956 372.409 237.361 380.014 276.1 380.014Z" fill="#04051C"/>
<path opacity="0.7059" d="M276.462 379.7C314.485 379.7 345.309 372.236 345.309 363.028C345.309 353.821 314.485 346.357 276.462 346.357C238.439 346.357 207.615 353.821 207.615 363.028C207.615 372.236 238.439 379.7 276.462 379.7Z" fill="#04051C"/>
<path opacity="0.7255" d="M276.824 379.385C314.131 379.385 344.374 372.062 344.374 363.028C344.374 353.995 314.131 346.671 276.824 346.671C239.518 346.671 209.275 353.995 209.275 363.028C209.275 372.062 239.518 379.385 276.824 379.385Z" fill="#04051C"/>
<path opacity="0.7451" d="M277.186 379.071C313.776 379.071 343.438 371.888 343.438 363.028C343.438 354.168 313.776 346.986 277.186 346.986C240.597 346.986 210.935 354.168 210.935 363.028C210.935 371.888 240.597 379.071 277.186 379.071Z" fill="#04051C"/>
<path opacity="0.7647" d="M277.549 378.757C313.422 378.757 342.503 371.715 342.503 363.028C342.503 354.342 313.422 347.3 277.549 347.3C241.676 347.3 212.595 354.342 212.595 363.028C212.595 371.715 241.676 378.757 277.549 378.757Z" fill="#04051C"/>
<path opacity="0.7843" d="M277.911 378.443C313.067 378.443 341.567 371.541 341.567 363.028C341.567 354.515 313.067 347.614 277.911 347.614C242.754 347.614 214.254 354.515 214.254 363.028C214.254 371.541 242.754 378.443 277.911 378.443Z" fill="#04051C"/>
<path opacity="0.8039" d="M278.273 378.128C312.713 378.128 340.632 371.368 340.632 363.028C340.632 354.689 312.713 347.928 278.273 347.928C243.833 347.928 215.914 354.689 215.914 363.028C215.914 371.368 243.833 378.128 278.273 378.128Z" fill="#04051C"/>
<path opacity="0.8235" d="M278.635 377.814C312.358 377.814 339.696 371.194 339.696 363.028C339.696 354.862 312.358 348.242 278.635 348.242C244.912 348.242 217.574 354.862 217.574 363.028C217.574 371.194 244.912 377.814 278.635 377.814Z" fill="#04051C"/>
<path opacity="0.8431" d="M278.997 377.5C312.004 377.5 338.761 371.021 338.761 363.028C338.761 355.036 312.004 348.557 278.997 348.557C245.991 348.557 219.234 355.036 219.234 363.028C219.234 371.021 245.991 377.5 278.997 377.5Z" fill="#04051C"/>
<path opacity="0.8627" d="M279.359 377.186C311.649 377.186 337.825 370.847 337.825 363.028C337.825 355.209 311.649 348.871 279.359 348.871C247.069 348.871 220.893 355.209 220.893 363.028C220.893 370.847 247.069 377.186 279.359 377.186Z" fill="#04051C"/>
<path opacity="0.8824" d="M279.721 376.872C311.295 376.872 336.89 370.674 336.89 363.028C336.89 355.383 311.295 349.185 279.721 349.185C248.148 349.185 222.553 355.383 222.553 363.028C222.553 370.674 248.148 376.872 279.721 376.872Z" fill="#04051C"/>
<path opacity="0.902" d="M280.083 376.557C310.94 376.557 335.954 370.5 335.954 363.028C335.954 355.556 310.94 349.499 280.083 349.499C249.227 349.499 224.213 355.556 224.213 363.028C224.213 370.5 249.227 376.557 280.083 376.557Z" fill="#04051C"/>
<path opacity="0.9216" d="M280.446 376.243C310.586 376.243 335.019 370.327 335.019 363.028C335.019 355.73 310.586 349.813 280.446 349.813C250.306 349.813 225.873 355.73 225.873 363.028C225.873 370.327 250.306 376.243 280.446 376.243Z" fill="#04051C"/>
<path opacity="0.9412" d="M280.808 375.929C310.231 375.929 334.083 370.153 334.083 363.028C334.083 355.903 310.231 350.128 280.808 350.128C251.384 350.128 227.532 355.903 227.532 363.028C227.532 370.153 251.384 375.929 280.808 375.929Z" fill="#04051C"/>
<path opacity="0.9608" d="M281.17 375.615C309.876 375.615 333.148 369.98 333.148 363.028C333.148 356.077 309.876 350.442 281.17 350.442C252.463 350.442 229.192 356.077 229.192 363.028C229.192 369.98 252.463 375.615 281.17 375.615Z" fill="#04051C"/>
<path opacity="0.9804" d="M281.532 375.3C309.522 375.3 332.212 369.806 332.212 363.028C332.212 356.25 309.522 350.756 281.532 350.756C253.542 350.756 230.852 356.25 230.852 363.028C230.852 369.806 253.542 375.3 281.532 375.3Z" fill="#04051C"/>
<path d="M281.894 374.986C309.167 374.986 331.277 369.633 331.277 363.028C331.277 356.424 309.167 351.07 281.894 351.07C254.621 351.07 232.511 356.424 232.511 363.028C232.511 369.633 254.621 374.986 281.894 374.986Z" fill="#04051C"/>
</g>
<path d="M161.064 304.999L263.655 379.196C267.084 381.671 271.471 382.411 275.523 381.196L434.267 333.61C439.82 331.945 440.887 324.551 436.03 321.387L350.829 265.046C348.032 263.224 344.645 262.539 341.36 263.131L163.285 295.237C158.561 296.089 157.173 302.19 161.064 304.999Z" fill="url(#paint0_linear_1551_23443)"/>
<path d="M161.032 304.805L263.623 379.002C267.052 381.477 271.439 382.216 275.491 381.002L434.235 333.416C439.788 331.751 440.854 324.357 435.998 321.193L350.796 264.852C348 263.03 344.613 262.345 341.328 262.937L163.252 295.043C158.528 295.895 157.14 301.996 161.032 304.805Z" fill="url(#paint1_linear_1551_23443)"/>
<path d="M162.091 299.938L264.683 374.135C268.112 376.611 272.499 377.35 276.551 376.135L435.294 328.549C440.847 326.885 441.914 319.491 437.058 316.326L351.856 259.986C349.06 258.164 345.673 257.479 342.388 258.071L164.312 290.177C159.588 291.028 158.2 297.129 162.091 299.938Z" fill="url(#paint2_linear_1551_23443)"/>
<path d="M195.518 305.875C200.173 304.88 202.468 304.386 207.003 303.408C204.057 301.106 202.674 300.008 200.262 298.019C195.625 298.992 193.274 299.483 188.493 300.476C191 302.457 192.442 303.558 195.518 305.875Z" fill="url(#paint3_linear_1551_23443)"/>
<path d="M209.902 302.783C214.409 301.809 216.633 301.326 221.034 300.368C218.219 298.086 216.894 296.994 214.571 295C210.095 295.95 207.828 296.429 203.226 297.396C205.616 299.387 206.986 300.484 209.902 302.783Z" fill="url(#paint4_linear_1551_23443)"/>
<path d="M223.849 299.754C228.226 298.799 230.389 298.326 234.676 297.384C231.959 295.128 230.676 294.045 228.408 292.048C224.071 292.978 221.878 293.446 217.432 294.392C219.742 296.387 221.056 297.478 223.849 299.754Z" fill="url(#paint5_linear_1551_23443)"/>
<path d="M241.843 289.159C237.623 290.07 235.492 290.529 231.181 291.454C233.442 293.45 234.718 294.531 237.419 296.782C241.685 295.843 243.797 295.377 247.988 294.45C245.34 292.225 244.085 291.152 241.843 289.159Z" fill="url(#paint6_linear_1551_23443)"/>
<path d="M254.943 286.324C250.819 287.218 248.741 287.669 244.542 288.576C246.782 290.567 248.033 291.638 250.67 293.857C254.844 292.932 256.914 292.473 261.028 291.557C258.425 289.367 257.185 288.308 254.943 286.324Z" fill="url(#paint7_linear_1551_23443)"/>
<path d="M267.779 283.536C263.728 284.416 261.691 284.859 257.583 285.751C259.827 287.732 261.065 288.789 263.663 290.971C267.764 290.058 269.801 289.603 273.858 288.697C271.277 286.549 270.041 285.505 267.779 283.536Z" fill="url(#paint8_linear_1551_23443)"/>
<path d="M280.419 280.788C276.419 281.657 274.412 282.094 270.374 282.972C272.642 284.937 273.878 285.977 276.457 288.116C280.504 287.212 282.517 286.761 286.535 285.861C283.959 283.76 282.719 282.736 280.419 280.788Z" fill="url(#paint9_linear_1551_23443)"/>
<path d="M289.109 285.284C293.121 284.385 295.121 283.937 299.119 283.041C296.534 280.995 295.283 279.995 292.93 278.074C288.96 278.933 286.973 279.365 282.981 280.232C285.291 282.175 286.533 283.194 289.109 285.284Z" fill="url(#paint10_linear_1551_23443)"/>
<path d="M301.682 282.466C305.677 281.571 307.673 281.123 311.669 280.228C309.065 278.246 307.798 277.272 305.383 275.387C301.421 276.239 299.442 276.666 295.475 277.524C297.84 279.437 299.094 280.433 301.682 282.466Z" fill="url(#paint11_linear_1551_23443)"/>
<path d="M314.233 279.655C318.231 278.76 320.232 278.312 324.246 277.416C321.617 275.503 320.329 274.56 317.846 272.719C313.869 273.566 311.887 273.99 307.924 274.841C310.353 276.718 311.624 277.685 314.233 279.655Z" fill="url(#paint12_linear_1551_23443)"/>
<path d="M330.386 270.064C326.374 270.908 324.379 271.33 320.397 272.176C322.895 274.007 324.187 274.944 326.822 276.841C330.842 275.944 332.857 275.495 336.907 274.594C334.25 272.761 332.941 271.853 330.386 270.064Z" fill="url(#paint13_linear_1551_23443)"/>
<path d="M332.962 269.523C335.532 271.3 336.844 272.2 339.508 274.016C343.568 273.115 345.607 272.663 349.713 271.756C347.028 270.01 345.699 269.142 343.074 267.414C339.004 268.258 336.984 268.679 332.962 269.523Z" fill="url(#paint14_linear_1551_23443)"/>
<path d="M206.605 314.095C211.052 313.071 213.251 312.562 217.609 311.552C214.275 309.021 212.627 307.767 209.548 305.386C205.054 306.37 202.782 306.866 198.177 307.867C201.395 310.267 203.118 311.535 206.605 314.095Z" fill="url(#paint15_linear_1551_23443)"/>
<path d="M220.398 310.906C224.735 309.899 226.883 309.399 231.145 308.404C227.97 305.912 226.402 304.678 223.464 302.325C219.095 303.29 216.888 303.776 212.421 304.756C215.469 307.132 217.099 308.382 220.398 310.906Z" fill="url(#paint16_linear_1551_23443)"/>
<path d="M233.872 307.767C238.116 306.775 240.22 306.282 244.4 305.299C241.353 302.851 239.848 301.638 237.018 299.317C232.755 300.267 230.605 300.744 226.259 301.706C229.173 304.054 230.726 305.284 233.872 307.767Z" fill="url(#paint17_linear_1551_23443)"/>
<path d="M250.267 296.354C246.092 297.291 243.99 297.762 239.746 298.709C242.557 301.023 244.051 302.231 247.076 304.669C251.241 303.689 253.308 303.201 257.421 302.227C254.473 299.828 253.017 298.639 250.267 296.354Z" fill="url(#paint18_linear_1551_23443)"/>
<path d="M263.266 293.428C259.162 294.355 257.098 294.82 252.939 295.754C255.676 298.031 257.124 299.215 260.056 301.603C264.157 300.63 266.195 300.145 270.257 299.178C267.382 296.833 265.961 295.67 263.266 293.428Z" fill="url(#paint19_linear_1551_23443)"/>
<path d="M276.072 290.53C272.02 291.449 269.986 291.91 265.894 292.835C268.581 295.067 269.996 296.225 272.858 298.557C276.911 297.589 278.928 297.107 282.952 296.141C280.129 293.857 278.733 292.724 276.072 290.53Z" fill="url(#paint20_linear_1551_23443)"/>
<path d="M288.74 287.651C284.723 288.565 282.71 289.023 278.667 289.941C281.325 292.124 282.716 293.251 285.531 295.522C289.549 294.557 291.552 294.074 295.554 293.108C292.766 290.89 291.386 289.79 288.74 287.651Z" fill="url(#paint21_linear_1551_23443)"/>
<path d="M298.119 292.488C302.118 291.521 304.115 291.037 308.109 290.067C305.342 287.923 303.971 286.859 301.326 284.781C297.327 285.694 295.326 286.15 291.314 287.064C293.959 289.192 295.336 290.285 298.119 292.488Z" fill="url(#paint22_linear_1551_23443)"/>
<path d="M310.671 289.444C314.666 288.473 316.663 287.986 320.665 287.009C317.908 284.947 316.542 283.922 313.889 281.914C309.888 282.827 307.89 283.283 303.891 284.196C306.537 286.26 307.906 287.317 310.671 289.444Z" fill="url(#paint23_linear_1551_23443)"/>
<path d="M323.233 286.381C327.239 285.402 329.244 284.911 333.269 283.923C330.515 281.95 329.15 280.97 326.482 279.038C322.462 279.956 320.459 280.413 316.455 281.327C319.111 283.321 320.477 284.337 323.233 286.381Z" fill="url(#paint24_linear_1551_23443)"/>
<path d="M339.163 276.147C335.106 277.071 333.088 277.531 329.062 278.45C331.734 280.364 333.099 281.335 335.852 283.289C339.883 282.299 341.904 281.801 345.966 280.8C343.214 278.925 341.849 277.993 339.163 276.147Z" fill="url(#paint25_linear_1551_23443)"/>
<path d="M348.574 280.157C352.646 279.153 354.69 278.648 358.804 277.629C356.054 275.862 354.689 274.982 351.986 273.231C347.875 274.164 345.833 274.628 341.767 275.554C344.457 277.381 345.822 278.303 348.574 280.157Z" fill="url(#paint26_linear_1551_23443)"/>
<path d="M218.398 322.741C222.621 321.678 224.718 321.15 228.886 320.098C225.539 317.555 223.815 316.255 220.442 313.7C216.131 314.721 213.958 315.234 209.568 316.268C213.096 318.854 214.9 320.17 218.398 322.741Z" fill="url(#paint27_linear_1551_23443)"/>
<path d="M231.555 319.424C235.71 318.375 237.774 317.853 241.883 316.812C238.692 314.309 237.051 313.031 233.841 310.517C229.618 311.524 227.491 312.029 223.2 313.046C226.537 315.594 228.242 316.889 231.555 319.424Z" fill="url(#paint28_linear_1551_23443)"/>
<path d="M244.514 316.146C248.611 315.107 250.649 314.589 254.708 313.556C251.641 311.095 250.068 309.842 246.987 307.374C242.838 308.37 240.751 308.869 236.544 309.873C239.726 312.377 241.351 313.65 244.514 316.146Z" fill="url(#paint29_linear_1551_23443)"/>
<path d="M259.925 304.26C255.835 305.247 253.78 305.743 249.644 306.736C252.702 309.194 254.263 310.442 257.308 312.893C261.359 311.861 263.375 311.345 267.396 310.315C264.425 307.903 262.905 306.677 259.925 304.26Z" fill="url(#paint30_linear_1551_23443)"/>
<path d="M272.697 301.164C268.653 302.147 266.624 302.64 262.544 303.627C265.507 306.033 267.018 307.253 269.973 309.655C273.988 308.626 275.988 308.111 279.982 307.081C277.081 304.721 275.601 303.525 272.697 301.164Z" fill="url(#paint31_linear_1551_23443)"/>
<path d="M285.347 298.076C281.335 299.059 279.324 299.55 275.288 300.533C278.18 302.882 279.653 304.072 282.542 306.42C286.532 305.389 288.523 304.873 292.5 303.839C289.648 301.539 288.197 300.375 285.347 298.076Z" fill="url(#paint32_linear_1551_23443)"/>
<path d="M297.919 294.985C293.925 295.971 291.926 296.462 287.918 297.446C290.76 299.731 292.205 300.888 295.05 303.175C299.026 302.14 301.012 301.62 304.984 300.578C302.162 298.344 300.732 297.216 297.919 294.985Z" fill="url(#paint33_linear_1551_23443)"/>
<path d="M307.531 299.909C311.504 298.865 313.49 298.341 317.468 297.287C314.663 295.126 313.247 294.037 310.456 291.882C306.466 292.873 304.472 293.367 300.48 294.353C303.288 296.569 304.714 297.689 307.531 299.909Z" fill="url(#paint34_linear_1551_23443)"/>
<path opacity="0.76" d="M320.489 344.781C330.398 341.437 344.103 337.841 353.637 334.899C355.288 334.389 355.683 332.212 354.323 331.148C347.825 326.065 344.04 322.868 337.024 317.418C336.179 316.761 335.032 316.517 333.994 316.781C323.998 319.319 310.226 323.554 301.17 325.961C298.97 326.546 298.387 329.399 300.174 330.808C306.211 335.569 310.512 338.951 317.197 344.217C318.117 344.942 319.379 345.156 320.489 344.781Z" fill="url(#paint35_linear_1551_23443)"/>
<path d="M320.019 296.61C323.999 295.553 325.992 295.023 329.986 293.953C327.188 291.872 325.781 290.827 323.002 288.754C319.002 289.754 317.006 290.252 313.015 291.245C315.803 293.384 317.217 294.464 320.019 296.61Z" fill="url(#paint36_linear_1551_23443)"/>
<path d="M332.549 293.267C336.548 292.194 338.551 291.654 342.573 290.565C339.776 288.572 338.374 287.574 335.601 285.593C331.578 286.606 329.573 287.109 325.569 288.112C328.346 290.166 329.752 291.202 332.549 293.267Z" fill="url(#paint37_linear_1551_23443)"/>
<path d="M343.231 283.668C341.208 284.179 340.199 284.434 338.184 284.942C340.956 286.904 342.357 287.892 345.154 289.866C347.168 289.32 348.177 289.045 350.199 288.494C352.22 287.944 353.233 287.667 355.263 287.111C360.364 285.715 362.927 285.009 368.09 283.579C365.289 281.789 363.896 280.898 361.132 279.124C355.964 280.441 353.4 281.093 348.297 282.386C346.266 282.9 345.253 283.157 343.231 283.668Z" fill="url(#paint38_linear_1551_23443)"/>
<path d="M229.554 331.03C233.576 329.94 235.581 329.398 239.579 328.316C236.594 325.98 234.981 324.743 231.689 322.232C227.567 323.293 225.496 323.826 221.326 324.898C224.764 327.435 226.447 328.683 229.554 331.03Z" fill="url(#paint39_linear_1551_23443)"/>
<path d="M242.142 327.623C246.136 326.543 248.127 326.005 252.103 324.93C249.238 322.612 247.697 321.391 244.556 318.915C240.485 319.966 238.44 320.493 234.33 321.552C237.587 324.056 239.184 325.29 242.142 327.623Z" fill="url(#paint40_linear_1551_23443)"/>
<path d="M254.651 324.241C258.623 323.167 260.605 322.63 264.564 321.558C261.787 319.263 260.302 318.059 257.279 315.623C253.248 316.668 251.226 317.192 247.164 318.241C250.278 320.709 251.807 321.927 254.651 324.241Z" fill="url(#paint41_linear_1551_23443)"/>
<path d="M269.89 312.344C265.89 313.387 263.885 313.908 259.862 314.953C262.864 317.38 264.34 318.58 267.102 320.87C271.059 319.797 273.036 319.261 276.985 318.186C274.268 315.918 272.823 314.735 269.89 312.344Z" fill="url(#paint42_linear_1551_23443)"/>
<path d="M282.419 309.065C278.44 310.11 276.447 310.632 272.453 311.675C275.371 314.057 276.809 315.235 279.518 317.497C283.467 316.422 285.441 315.883 289.388 314.802C286.705 312.567 285.288 311.406 282.419 309.065Z" fill="url(#paint43_linear_1551_23443)"/>
<path d="M294.898 305.774C290.93 306.825 288.945 307.349 284.969 308.395C287.828 310.725 289.241 311.881 291.92 314.109C295.868 313.026 297.842 312.483 301.794 311.392C299.124 309.194 297.725 308.06 294.898 305.774Z" fill="url(#paint44_linear_1551_23443)"/>
<path d="M307.358 302.46C303.391 303.52 301.409 304.048 297.442 305.1C300.263 307.373 301.659 308.502 304.33 310.69C308.284 309.596 310.262 309.046 314.226 307.94C311.55 305.788 310.16 304.683 307.358 302.46Z" fill="url(#paint45_linear_1551_23443)"/>
<path d="M316.769 307.229C320.736 306.119 322.722 305.561 326.704 304.435C324.009 302.335 322.621 301.262 319.83 299.108C315.854 300.182 313.87 300.716 309.902 301.779C312.701 303.988 314.09 305.087 316.769 307.229Z" fill="url(#paint46_linear_1551_23443)"/>
<path d="M329.259 303.711C333.246 302.581 335.243 302.012 339.251 300.862C336.526 298.821 335.135 297.785 332.345 295.708C328.351 296.8 326.359 297.341 322.38 298.418C325.17 300.557 326.559 301.623 329.259 303.711Z" fill="url(#paint47_linear_1551_23443)"/>
<path d="M341.822 300.123C345.835 298.968 347.848 298.386 351.887 297.208C349.127 295.235 347.729 294.239 344.933 292.247C340.911 293.36 338.906 293.912 334.907 295.007C337.698 297.067 339.091 298.096 341.822 300.123Z" fill="url(#paint48_linear_1551_23443)"/>
<path d="M354.48 296.451C358.527 295.267 360.557 294.669 364.635 293.459C361.837 291.562 360.431 290.611 357.628 288.713C353.566 289.851 351.545 290.414 347.516 291.532C350.313 293.505 351.712 294.493 354.48 296.451Z" fill="url(#paint49_linear_1551_23443)"/>
<path d="M367.254 292.681C371.341 291.464 373.394 290.849 377.518 289.602C374.683 287.79 373.269 286.888 370.458 285.092C366.349 286.26 364.305 286.837 360.235 287.981C363.041 289.859 364.448 290.801 367.254 292.681Z" fill="url(#paint50_linear_1551_23443)"/>
<path d="M238.733 338.181C242.609 337.096 244.549 336.556 248.435 335.477C246.186 333.566 244.872 332.501 242.037 330.252C238.074 331.337 236.089 331.881 232.11 332.973C235.056 335.228 236.418 336.291 238.733 338.181Z" fill="url(#paint51_linear_1551_23443)"/>
<path d="M250.927 334.785C254.815 333.707 256.761 333.169 260.66 332.092C258.464 330.16 257.193 329.093 254.465 326.854C250.515 327.933 248.538 328.473 244.578 329.557C247.388 331.804 248.692 332.87 250.927 334.785Z" fill="url(#paint52_linear_1551_23443)"/>
<path d="M263.162 331.402C267.064 330.325 269.018 329.787 272.933 328.708C270.756 326.757 269.512 325.692 266.858 323.467C262.916 324.545 260.945 325.083 256.997 326.162C259.708 328.399 260.972 329.465 263.162 331.402Z" fill="url(#paint53_linear_1551_23443)"/>
<path d="M319.005 309.023C317.986 309.311 317.476 309.455 316.458 309.742C312.489 310.86 310.509 311.415 306.553 312.52C305.538 312.803 305.031 312.945 304.017 313.227C300.063 314.329 298.09 314.877 294.144 315.968C293.133 316.248 292.627 316.388 291.615 316.668C287.672 317.757 285.701 318.299 281.761 319.382C276.811 320.743 274.337 321.42 269.385 322.775C272.029 324.997 273.269 326.062 275.445 328.016C280.37 326.659 282.838 325.979 287.787 324.611C291.726 323.522 293.7 322.976 297.658 321.877C298.673 321.595 299.181 321.454 300.197 321.172C304.159 320.07 306.145 319.516 310.128 318.4C311.149 318.114 311.66 317.97 312.683 317.683C316.672 316.563 318.671 315.999 322.682 314.861C323.711 314.569 324.225 314.423 325.256 314.129C327.264 313.558 328.27 313.271 330.285 312.694C332.299 312.117 333.308 311.827 335.329 311.244C332.89 309.285 331.602 308.268 328.958 306.196C326.962 306.766 325.966 307.05 323.975 307.615C321.985 308.18 320.991 308.462 319.005 309.023Z" fill="url(#paint54_linear_1551_23443)"/>
<path d="M337.924 310.495C341.972 309.324 344.003 308.732 348.079 307.535C345.542 305.595 344.223 304.598 341.535 302.577C337.517 303.742 335.514 304.319 331.519 305.464C334.171 307.526 335.465 308.539 337.924 310.495Z" fill="url(#paint55_linear_1551_23443)"/>
<path d="M350.695 306.765C354.779 305.561 356.828 304.952 360.941 303.718C358.299 301.804 356.945 300.831 354.208 298.869C350.156 300.065 348.138 300.656 344.114 301.827C346.811 303.837 348.137 304.83 350.695 306.765Z" fill="url(#paint56_linear_1551_23443)"/>
<path d="M363.581 302.924C367.702 301.682 369.77 301.053 373.923 299.777C371.175 297.899 369.784 296.954 366.994 295.059C362.904 296.29 360.867 296.898 356.808 298.1C359.557 300.049 360.918 301.017 363.581 302.924Z" fill="url(#paint57_linear_1551_23443)"/>
<path d="M376.589 298.956C380.751 297.671 382.84 297.019 387.036 295.697C384.181 293.864 382.755 292.951 379.914 291.134C375.778 292.403 373.72 293.03 369.621 294.268C372.421 296.147 373.819 297.086 376.589 298.956Z" fill="url(#paint58_linear_1551_23443)"/>
<path d="M169.201 288.993L174.598 292.763L192.517 289.309L187.189 285.612L169.201 288.993Z" fill="url(#paint59_linear_1551_23443)"/>
<path d="M320.744 261.602L326.141 265.372L344.06 261.917L338.732 258.221L320.744 261.602Z" fill="url(#paint60_linear_1551_23443)"/>
<path d="M435.294 328.078L276.551 375.665C272.499 376.88 268.112 376.14 264.682 373.665L162.091 299.468C160.679 298.448 159.981 296.993 159.867 295.515C159.852 297.152 160.528 298.81 162.091 299.938L264.682 374.135C268.112 376.611 272.499 377.35 276.551 376.136L435.294 328.549C438.772 327.507 440.487 324.218 440.093 321.128C440.265 324.075 438.595 327.089 435.294 328.078Z" fill="white"/>
<path d="M135.129 150.239L148.199 282.243C148.793 288.239 154.385 292.449 160.316 291.366L337.732 258.965C343.227 257.962 346.924 252.769 346.07 247.252L330.9 137.338C330.087 132.083 325.407 128.31 320.096 128.625L144.779 138.936C138.935 139.283 134.552 144.417 135.129 150.239Z" fill="url(#paint61_linear_1551_23443)"/>
<path d="M139.17 148.53L152.24 280.534C152.834 286.53 158.426 290.741 164.357 289.658L341.773 257.257C347.268 256.254 350.965 251.06 350.111 245.544L334.941 135.629C334.128 130.375 329.448 126.601 324.137 126.917L148.82 137.228C142.976 137.575 138.593 142.708 139.17 148.53Z" fill="url(#paint62_linear_1551_23443)"/>
<path d="M162.488 285.733C159.286 285.733 156.634 283.325 156.318 280.131L143.248 148.126C143.08 146.43 143.597 144.781 144.703 143.484C145.811 142.186 147.359 141.416 149.063 141.315L324.377 131.004L324.756 130.994C327.84 130.994 330.421 133.206 330.893 136.255L346.052 246.102C346.58 249.519 344.373 252.621 341.038 253.231L163.621 285.631C163.24 285.7 162.861 285.733 162.488 285.733Z" fill="url(#paint63_linear_1551_23443)"/>
<g opacity="0.46">
<path opacity="0.0323" d="M279.024 290.605C320.771 279.46 343.822 230.06 330.51 180.268C317.199 130.476 272.565 99.146 230.819 110.291C189.072 121.436 166.021 170.836 179.332 220.628C192.644 270.421 237.277 301.751 279.024 290.605Z" fill="#04051C"/>
<path opacity="0.0645" d="M279.259 289.176C320.235 278.264 342.911 229.888 329.907 181.126C316.904 132.364 273.146 101.679 232.17 112.591C191.195 123.503 168.518 171.878 181.522 220.641C194.525 269.403 238.283 300.087 279.259 289.176Z" fill="#04051C"/>
<path opacity="0.0968" d="M279.504 287.681C319.704 276.998 341.996 229.647 329.295 181.92C316.594 134.192 273.709 104.162 233.509 114.846C193.309 125.529 171.017 172.88 183.718 220.607C196.419 268.334 239.304 298.365 279.504 287.681Z" fill="#04051C"/>
<path opacity="0.129" d="M279.752 286.231C319.18 275.78 341.094 229.452 328.699 182.755C316.304 136.059 274.293 106.676 234.864 117.128C195.436 127.579 173.521 173.907 185.917 220.604C198.312 267.3 240.323 296.683 279.752 286.231Z" fill="#04051C"/>
<path opacity="0.1613" d="M279.981 284.741C318.634 274.52 340.166 229.219 328.075 183.558C315.985 137.897 274.849 109.167 236.197 119.388C197.544 129.609 176.012 174.91 188.102 220.571C200.193 266.232 241.329 294.961 279.981 284.741Z" fill="#04051C"/>
<path opacity="0.1935" d="M280.215 283.292C318.095 273.305 339.252 229.03 327.469 184.4C315.686 139.77 275.426 111.687 237.546 121.674C199.665 131.661 178.509 175.937 190.292 220.567C202.075 265.196 242.335 293.28 280.215 283.292Z" fill="#04051C"/>
<path opacity="0.2258" d="M280.458 281.83C317.566 272.075 338.344 228.824 326.867 185.226C315.391 141.629 276.006 114.193 238.898 123.948C201.79 133.703 181.012 176.953 192.488 220.551C203.965 264.149 243.35 291.584 280.458 281.83Z" fill="#04051C"/>
<path opacity="0.2581" d="M280.682 280.378C317.017 270.858 337.419 228.635 326.252 186.069C315.085 143.503 276.576 116.714 240.241 126.234C203.906 135.753 183.504 177.977 194.671 220.542C205.838 263.108 244.347 289.897 280.682 280.378Z" fill="#04051C"/>
<path opacity="0.2903" d="M280.916 278.909C316.478 269.623 336.503 228.427 325.643 186.893C314.783 145.36 277.151 119.218 241.589 128.504C206.027 137.79 186.002 178.986 196.862 220.52C207.722 262.053 245.354 288.195 280.916 278.909Z" fill="#04051C"/>
<path opacity="0.3226" d="M281.16 277.475C315.952 268.425 335.604 228.254 325.054 187.749C314.505 147.245 277.748 121.746 242.956 130.795C208.164 139.845 188.511 180.016 199.061 220.52C209.611 261.025 246.368 286.524 281.16 277.475Z" fill="#04051C"/>
<path opacity="0.3548" d="M281.39 275.991C315.408 267.176 334.683 228.033 324.441 188.562C314.2 149.091 278.32 124.239 244.301 133.054C210.283 141.869 191.008 181.012 201.25 220.483C211.492 259.954 247.372 284.806 281.39 275.991Z" fill="#04051C"/>
<path opacity="0.3871" d="M281.633 274.537C314.881 265.959 333.782 227.843 323.85 189.402C313.919 150.961 278.915 126.752 245.667 135.33C212.419 143.908 193.518 182.025 203.45 220.466C213.382 258.907 248.385 283.116 281.633 274.537Z" fill="#04051C"/>
<path opacity="0.4194" d="M281.838 273.055C314.311 264.715 332.837 227.631 323.217 190.224C313.597 152.817 279.474 129.254 247.001 137.593C214.528 145.933 196.001 183.018 205.621 220.425C215.241 257.831 249.365 281.395 281.838 273.055Z" fill="#04051C"/>
<path opacity="0.4516" d="M282.06 271.595C313.762 263.495 331.916 227.441 322.609 191.065C313.302 154.689 280.058 131.767 248.357 139.867C216.655 147.967 198.5 184.021 207.807 220.397C217.114 256.773 250.358 279.695 282.06 271.595Z" fill="#04051C"/>
<path opacity="0.4839" d="M282.302 270.152C313.235 262.293 331.021 227.268 322.028 191.92C313.036 156.572 280.669 134.288 249.736 142.147C218.803 150.005 201.017 185.031 210.01 220.379C219.003 255.726 251.369 278.011 282.302 270.152Z" fill="#04051C"/>
<path opacity="0.5161" d="M282.487 268.693C312.647 261.08 330.066 227.09 321.391 192.775C312.717 158.459 281.235 136.813 251.075 144.427C220.914 152.04 203.496 186.03 212.17 220.345C220.844 254.661 252.326 276.307 282.487 268.693Z" fill="#04051C"/>
<path opacity="0.5484" d="M282.699 267.239C312.09 259.871 329.143 226.915 320.787 193.629C312.431 160.343 281.832 139.332 252.441 146.7C223.051 154.068 205.998 187.024 214.354 220.31C222.709 253.596 253.309 274.606 282.699 267.239Z" fill="#04051C"/>
<path opacity="0.5806" d="M282.918 265.805C311.541 258.686 328.232 226.765 320.198 194.506C312.165 162.247 282.448 141.867 253.825 148.985C225.202 156.103 208.511 188.025 216.545 220.284C224.578 252.543 254.295 272.923 282.918 265.805Z" fill="#04051C"/>
<path opacity="0.6129" d="M283.149 264.326C311.004 257.457 327.332 226.571 319.62 195.34C311.907 164.109 283.074 144.36 255.219 151.229C227.365 158.098 211.036 188.985 218.748 220.216C226.461 251.447 255.294 271.196 283.149 264.326Z" fill="#04051C"/>
<path opacity="0.6452" d="M283.321 262.869C310.407 256.256 326.379 226.413 318.996 196.211C311.613 166.009 283.671 146.885 256.585 153.498C229.499 160.11 213.527 189.953 220.91 220.155C228.293 250.357 256.235 269.481 283.321 262.869Z" fill="#04051C"/>
<path opacity="0.6774" d="M283.527 261.436C309.849 255.085 325.472 226.284 318.422 197.106C311.373 167.928 284.32 149.422 257.999 155.773C231.678 162.123 216.055 190.925 223.104 220.103C230.154 249.281 257.206 267.786 283.527 261.436Z" fill="#04051C"/>
<path opacity="0.7097" d="M283.704 259.972C309.26 253.889 324.537 226.136 317.827 197.983C311.117 169.831 284.961 151.939 259.405 158.022C233.849 164.105 218.572 191.858 225.282 220.01C231.992 248.163 258.148 266.054 283.704 259.972Z" fill="#04051C"/>
<path opacity="0.7419" d="M283.847 258.516C308.639 252.712 323.581 226.014 317.22 198.886C310.86 171.757 285.607 154.47 260.815 160.275C236.023 166.079 221.082 192.776 227.442 219.905C233.802 247.033 259.056 264.32 283.847 258.516Z" fill="#04051C"/>
<path opacity="0.7742" d="M283.996 257.111C308.03 251.599 322.652 225.964 316.655 199.853C310.658 173.742 286.314 157.043 262.28 162.555C238.246 168.067 223.624 193.703 229.621 219.814C235.618 245.925 259.962 262.623 283.996 257.111Z" fill="#04051C"/>
<path opacity="0.8065" d="M284.097 255.664C307.374 250.46 321.69 225.9 316.072 200.806C310.455 175.713 287.032 159.588 263.756 164.791C240.479 169.994 226.164 194.555 231.781 219.649C237.398 244.742 260.821 260.867 284.097 255.664Z" fill="#04051C"/>
<path opacity="0.8387" d="M284.143 254.224C306.667 249.358 320.703 225.892 315.493 201.81C310.284 177.729 287.801 162.151 265.277 167.017C242.753 171.883 228.717 195.35 233.926 219.432C239.136 243.513 261.619 259.09 284.143 254.224Z" fill="#04051C"/>
<path opacity="0.871" d="M284.094 252.834C305.875 248.352 319.676 226.009 314.919 202.931C310.163 179.853 288.651 164.778 266.871 169.261C245.09 173.743 231.289 196.085 236.045 219.163C240.802 242.242 262.314 257.317 284.094 252.834Z" fill="#04051C"/>
<path opacity="0.9032" d="M283.957 251.441C305.008 247.417 318.644 226.248 314.416 204.159C310.187 182.07 289.694 167.426 268.644 171.45C247.593 175.474 233.957 196.643 238.185 218.732C242.414 240.821 262.907 255.466 283.957 251.441Z" fill="#04051C"/>
<path opacity="0.9355" d="M283.496 250.092C303.837 246.683 317.452 226.799 313.908 205.678C310.363 184.558 291.001 170.201 270.66 173.61C250.32 177.019 236.704 196.904 240.249 218.024C243.793 239.144 263.156 253.501 283.496 250.092Z" fill="#04051C"/>
<path opacity="0.9677" d="M282.37 248.838C302.04 246.428 315.977 228.105 313.499 207.912C311.022 187.719 293.068 173.303 273.398 175.713C253.728 178.123 239.791 196.446 242.268 216.639C244.746 236.832 262.7 251.248 282.37 248.838Z" fill="#04051C"/>
<path d="M278.667 247.579C297.67 247.579 313.075 231.952 313.075 212.674C313.075 193.397 297.67 177.769 278.667 177.769C259.664 177.769 244.259 193.397 244.259 212.674C244.259 231.952 259.664 247.579 278.667 247.579Z" fill="#04051C"/>
</g>
<g opacity="0.63">
<path opacity="0.0196" d="M316.669 326.848C366.813 326.848 407.463 318.906 407.463 309.11C407.463 299.314 366.813 291.373 316.669 291.373C266.525 291.373 225.875 299.314 225.875 309.11C225.875 318.906 266.525 326.848 316.669 326.848Z" fill="#04051C"/>
<path opacity="0.0392" d="M316.07 326.646C365.645 326.646 405.833 318.795 405.833 309.11C405.833 299.426 365.645 291.575 316.07 291.575C266.496 291.575 226.308 299.426 226.308 309.11C226.308 318.795 266.496 326.646 316.07 326.646Z" fill="#04051C"/>
<path opacity="0.0588" d="M315.471 326.445C364.476 326.445 404.203 318.684 404.203 309.11C404.203 299.537 364.476 291.776 315.471 291.776C266.466 291.776 226.74 299.537 226.74 309.11C226.74 318.684 266.466 326.445 315.471 326.445Z" fill="#04051C"/>
<path opacity="0.0784" d="M314.873 326.243C363.308 326.243 402.573 318.573 402.573 309.11C402.573 299.648 363.308 291.978 314.873 291.978C266.437 291.978 227.172 299.648 227.172 309.11C227.172 318.573 266.437 326.243 314.873 326.243Z" fill="#04051C"/>
<path opacity="0.098" d="M314.274 326.042C362.14 326.042 400.943 318.461 400.943 309.11C400.943 299.759 362.14 292.179 314.274 292.179C266.407 292.179 227.604 299.759 227.604 309.11C227.604 318.461 266.407 326.042 314.274 326.042Z" fill="#04051C"/>
<path opacity="0.1176" d="M313.675 325.84C360.971 325.84 399.313 318.35 399.313 309.11C399.313 299.871 360.971 292.38 313.675 292.38C266.378 292.38 228.036 299.871 228.036 309.11C228.036 318.35 266.378 325.84 313.675 325.84Z" fill="#04051C"/>
<path opacity="0.1373" d="M313.076 325.639C359.803 325.639 397.683 318.239 397.683 309.11C397.683 299.982 359.803 292.582 313.076 292.582C266.348 292.582 228.469 299.982 228.469 309.11C228.469 318.239 266.348 325.639 313.076 325.639Z" fill="#04051C"/>
<path opacity="0.1569" d="M312.477 325.438C358.635 325.438 396.053 318.128 396.053 309.11C396.053 300.093 358.635 292.783 312.477 292.783C266.319 292.783 228.901 300.093 228.901 309.11C228.901 318.128 266.319 325.438 312.477 325.438Z" fill="#04051C"/>
<path opacity="0.1765" d="M311.878 325.236C357.466 325.236 394.423 318.016 394.423 309.11C394.423 300.204 357.466 292.985 311.878 292.985C266.29 292.985 229.333 300.204 229.333 309.11C229.333 318.016 266.29 325.236 311.878 325.236Z" fill="#04051C"/>
<path opacity="0.1961" d="M311.279 325.035C356.298 325.035 392.793 317.905 392.793 309.11C392.793 300.316 356.298 293.186 311.279 293.186C266.26 293.186 229.765 300.316 229.765 309.11C229.765 317.905 266.26 325.035 311.279 325.035Z" fill="#04051C"/>
<path opacity="0.2157" d="M310.68 324.833C355.13 324.833 391.163 317.794 391.163 309.11C391.163 300.427 355.13 293.388 310.68 293.388C266.231 293.388 230.197 300.427 230.197 309.11C230.197 317.794 266.231 324.833 310.68 324.833Z" fill="#04051C"/>
<path opacity="0.2353" d="M310.082 324.632C353.962 324.632 389.533 317.683 389.533 309.11C389.533 300.538 353.962 293.589 310.082 293.589C266.201 293.589 230.63 300.538 230.63 309.11C230.63 317.683 266.201 324.632 310.082 324.632Z" fill="#04051C"/>
<path opacity="0.2549" d="M309.483 324.43C352.793 324.43 387.903 317.571 387.903 309.11C387.903 300.649 352.793 293.79 309.483 293.79C266.172 293.79 231.062 300.649 231.062 309.11C231.062 317.571 266.172 324.43 309.483 324.43Z" fill="#04051C"/>
<path opacity="0.2745" d="M308.884 324.229C351.625 324.229 386.273 317.46 386.273 309.11C386.273 300.761 351.625 293.992 308.884 293.992C266.143 293.992 231.494 300.761 231.494 309.11C231.494 317.46 266.143 324.229 308.884 324.229Z" fill="#04051C"/>
<path opacity="0.2941" d="M308.285 324.028C350.456 324.028 384.643 317.349 384.643 309.11C384.643 300.872 350.456 294.193 308.285 294.193C266.113 294.193 231.926 300.872 231.926 309.11C231.926 317.349 266.113 324.028 308.285 324.028Z" fill="#04051C"/>
<path opacity="0.3137" d="M307.686 323.826C349.288 323.826 383.013 317.238 383.013 309.11C383.013 300.983 349.288 294.395 307.686 294.395C266.084 294.395 232.358 300.983 232.358 309.11C232.358 317.238 266.084 323.826 307.686 323.826Z" fill="#04051C"/>
<path opacity="0.3333" d="M307.087 323.624C348.12 323.624 381.383 317.126 381.383 309.11C381.383 301.094 348.12 294.596 307.087 294.596C266.054 294.596 232.791 301.094 232.791 309.11C232.791 317.126 266.054 323.624 307.087 323.624Z" fill="#04051C"/>
<path opacity="0.3529" d="M306.488 323.423C346.952 323.423 379.754 317.015 379.754 309.11C379.754 301.206 346.952 294.798 306.488 294.798C266.025 294.798 233.223 301.206 233.223 309.11C233.223 317.015 266.025 323.423 306.488 323.423Z" fill="#04051C"/>
<path opacity="0.3725" d="M305.889 323.222C345.783 323.222 378.124 316.904 378.124 309.11C378.124 301.317 345.783 294.999 305.889 294.999C265.995 294.999 233.655 301.317 233.655 309.11C233.655 316.904 265.995 323.222 305.889 323.222Z" fill="#04051C"/>
<path opacity="0.3922" d="M305.29 323.02C344.615 323.02 376.493 316.793 376.493 309.11C376.493 301.428 344.615 295.2 305.29 295.2C265.966 295.2 234.087 301.428 234.087 309.11C234.087 316.793 265.966 323.02 305.29 323.02Z" fill="#04051C"/>
<path opacity="0.4118" d="M304.692 322.819C343.447 322.819 374.864 316.681 374.864 309.11C374.864 301.539 343.447 295.402 304.692 295.402C265.937 295.402 234.52 301.539 234.52 309.11C234.52 316.681 265.937 322.819 304.692 322.819Z" fill="#04051C"/>
<path opacity="0.4314" d="M304.093 322.617C342.278 322.617 373.234 316.57 373.234 309.11C373.234 301.651 342.278 295.603 304.093 295.603C265.907 295.603 234.952 301.651 234.952 309.11C234.952 316.57 265.907 322.617 304.093 322.617Z" fill="#04051C"/>
<path opacity="0.451" d="M303.494 322.416C341.11 322.416 371.604 316.459 371.604 309.11C371.604 301.762 341.11 295.805 303.494 295.805C265.878 295.805 235.384 301.762 235.384 309.11C235.384 316.459 265.878 322.416 303.494 322.416Z" fill="#04051C"/>
<path opacity="0.4706" d="M302.895 322.215C339.942 322.215 369.974 316.348 369.974 309.11C369.974 301.873 339.942 296.006 302.895 296.006C265.848 296.006 235.816 301.873 235.816 309.11C235.816 316.348 265.848 322.215 302.895 322.215Z" fill="#04051C"/>
<path opacity="0.4902" d="M302.296 322.013C338.773 322.013 368.344 316.236 368.344 309.11C368.344 301.984 338.773 296.208 302.296 296.208C265.819 296.208 236.248 301.984 236.248 309.11C236.248 316.236 265.819 322.013 302.296 322.013Z" fill="#04051C"/>
<path opacity="0.5098" d="M301.697 321.812C337.605 321.812 366.714 316.125 366.714 309.11C366.714 302.096 337.605 296.409 301.697 296.409C265.79 296.409 236.681 302.096 236.681 309.11C236.681 316.125 265.79 321.812 301.697 321.812Z" fill="#04051C"/>
<path opacity="0.5294" d="M301.098 321.61C336.437 321.61 365.084 316.014 365.084 309.11C365.084 302.207 336.437 296.61 301.098 296.61C265.76 296.61 237.113 302.207 237.113 309.11C237.113 316.014 265.76 321.61 301.098 321.61Z" fill="#04051C"/>
<path opacity="0.549" d="M300.499 321.409C335.268 321.409 363.454 315.903 363.454 309.11C363.454 302.318 335.268 296.812 300.499 296.812C265.731 296.812 237.545 302.318 237.545 309.11C237.545 315.903 265.731 321.409 300.499 321.409Z" fill="#04051C"/>
<path opacity="0.5686" d="M299.901 321.207C334.1 321.207 361.824 315.791 361.824 309.11C361.824 302.429 334.1 297.013 299.901 297.013C265.701 297.013 237.977 302.429 237.977 309.11C237.977 315.791 265.701 321.207 299.901 321.207Z" fill="#04051C"/>
<path opacity="0.5882" d="M299.302 321.006C332.932 321.006 360.194 315.68 360.194 309.11C360.194 302.541 332.932 297.215 299.302 297.215C265.672 297.215 238.409 302.541 238.409 309.11C238.409 315.68 265.672 321.006 299.302 321.006Z" fill="#04051C"/>
<path opacity="0.6078" d="M298.703 320.805C331.763 320.805 358.564 315.569 358.564 309.11C358.564 302.652 331.763 297.416 298.703 297.416C265.642 297.416 238.841 302.652 238.841 309.11C238.841 315.569 265.642 320.805 298.703 320.805Z" fill="#04051C"/>
<path opacity="0.6275" d="M298.104 320.603C330.595 320.603 356.934 315.458 356.934 309.11C356.934 302.763 330.595 297.618 298.104 297.618C265.613 297.618 239.274 302.763 239.274 309.11C239.274 315.458 265.613 320.603 298.104 320.603Z" fill="#04051C"/>
<path opacity="0.6471" d="M297.505 320.402C329.427 320.402 355.304 315.346 355.304 309.11C355.304 302.874 329.427 297.819 297.505 297.819C265.583 297.819 239.706 302.874 239.706 309.11C239.706 315.346 265.583 320.402 297.505 320.402Z" fill="#04051C"/>
<path opacity="0.6667" d="M296.906 320.201C328.258 320.201 353.674 315.235 353.674 309.11C353.674 302.986 328.258 298.02 296.906 298.02C265.554 298.02 240.138 302.986 240.138 309.11C240.138 315.235 265.554 320.201 296.906 320.201Z" fill="#04051C"/>
<path opacity="0.6863" d="M296.307 319.999C327.09 319.999 352.044 315.124 352.044 309.11C352.044 303.097 327.09 298.222 296.307 298.222C265.525 298.222 240.57 303.097 240.57 309.11C240.57 315.124 265.525 319.999 296.307 319.999Z" fill="#04051C"/>
<path opacity="0.7059" d="M295.708 319.797C325.922 319.797 350.414 315.013 350.414 309.11C350.414 303.208 325.922 298.423 295.708 298.423C265.495 298.423 241.002 303.208 241.002 309.11C241.002 315.013 265.495 319.797 295.708 319.797Z" fill="#04051C"/>
<path opacity="0.7255" d="M295.109 319.596C324.753 319.596 348.784 314.901 348.784 309.11C348.784 303.319 324.753 298.625 295.109 298.625C265.466 298.625 241.435 303.319 241.435 309.11C241.435 314.901 265.466 319.596 295.109 319.596Z" fill="#04051C"/>
<path opacity="0.7451" d="M294.511 319.395C323.585 319.395 347.154 314.79 347.154 309.11C347.154 303.431 323.585 298.826 294.511 298.826C265.436 298.826 241.867 303.431 241.867 309.11C241.867 314.79 265.436 319.395 294.511 319.395Z" fill="#04051C"/>
<path opacity="0.7647" d="M293.912 319.193C322.417 319.193 345.524 314.679 345.524 309.11C345.524 303.542 322.417 299.027 293.912 299.027C265.407 299.027 242.299 303.542 242.299 309.11C242.299 314.679 265.407 319.193 293.912 319.193Z" fill="#04051C"/>
<path opacity="0.7843" d="M293.313 318.992C321.249 318.992 343.895 314.568 343.895 309.11C343.895 303.653 321.249 299.229 293.313 299.229C265.378 299.229 242.731 303.653 242.731 309.11C242.731 314.568 265.378 318.992 293.313 318.992Z" fill="#04051C"/>
<path opacity="0.8039" d="M292.714 318.79C320.08 318.79 342.265 314.456 342.265 309.11C342.265 303.764 320.08 299.431 292.714 299.431C265.348 299.431 243.164 303.764 243.164 309.11C243.164 314.456 265.348 318.79 292.714 318.79Z" fill="#04051C"/>
<path opacity="0.8235" d="M292.115 318.589C318.912 318.589 340.634 314.345 340.634 309.11C340.634 303.876 318.912 299.632 292.115 299.632C265.318 299.632 243.595 303.876 243.595 309.11C243.595 314.345 265.318 318.589 292.115 318.589Z" fill="#04051C"/>
<path opacity="0.8431" d="M291.516 318.388C317.743 318.388 339.005 314.234 339.005 309.11C339.005 303.987 317.743 299.833 291.516 299.833C265.289 299.833 244.028 303.987 244.028 309.11C244.028 314.234 265.289 318.388 291.516 318.388Z" fill="#04051C"/>
<path opacity="0.8627" d="M290.917 318.186C316.575 318.186 337.375 314.123 337.375 309.11C337.375 304.098 316.575 300.035 290.917 300.035C265.26 300.035 244.46 304.098 244.46 309.11C244.46 314.123 265.26 318.186 290.917 318.186Z" fill="#04051C"/>
<path opacity="0.8824" d="M290.319 317.985C315.407 317.985 335.745 314.012 335.745 309.11C335.745 304.209 315.407 300.236 290.319 300.236C265.231 300.236 244.893 304.209 244.893 309.11C244.893 314.012 265.231 317.985 290.319 317.985Z" fill="#04051C"/>
<path opacity="0.902" d="M289.72 317.783C314.238 317.783 334.115 313.9 334.115 309.11C334.115 304.321 314.238 300.438 289.72 300.438C265.201 300.438 245.324 304.321 245.324 309.11C245.324 313.9 265.201 317.783 289.72 317.783Z" fill="#04051C"/>
<path opacity="0.9216" d="M289.121 317.582C313.07 317.582 332.485 313.789 332.485 309.11C332.485 304.432 313.07 300.639 289.121 300.639C265.171 300.639 245.757 304.432 245.757 309.11C245.757 313.789 265.171 317.582 289.121 317.582Z" fill="#04051C"/>
<path opacity="0.9412" d="M288.522 317.38C311.902 317.38 330.855 313.678 330.855 309.11C330.855 304.543 311.902 300.84 288.522 300.84C265.142 300.84 246.189 304.543 246.189 309.11C246.189 313.678 265.142 317.38 288.522 317.38Z" fill="#04051C"/>
<path opacity="0.9608" d="M287.923 317.179C310.734 317.179 329.225 313.567 329.225 309.11C329.225 304.654 310.734 301.042 287.923 301.042C265.113 301.042 246.621 304.654 246.621 309.11C246.621 313.567 265.113 317.179 287.923 317.179Z" fill="#04051C"/>
<path opacity="0.9804" d="M287.324 316.978C309.565 316.978 327.595 313.455 327.595 309.11C327.595 304.766 309.565 301.243 287.324 301.243C265.083 301.243 247.053 304.766 247.053 309.11C247.053 313.455 265.083 316.978 287.324 316.978Z" fill="#04051C"/>
<path d="M286.725 316.776C308.397 316.776 325.965 313.344 325.965 309.11C325.965 304.877 308.397 301.445 286.725 301.445C265.054 301.445 247.486 304.877 247.486 309.11C247.486 313.344 265.054 316.776 286.725 316.776Z" fill="#04051C"/>
</g>
<path d="M369.609 250.662L269.37 267.417C280.427 278.394 278.44 305.838 258.855 312.085C254.699 313.421 249.785 313.819 244.003 312.88C211.012 307.608 219.612 215.707 219.215 198.591C218.998 188.48 224.382 156.27 221.274 131.679C219.142 114.562 212.891 101.129 197.75 101.418C197.1 101.418 196.486 101.454 195.871 101.49L344.857 92.1742L346.193 92.1019C346.844 92.0297 347.531 91.9935 348.253 91.9935C381.895 91.3436 367.477 165.009 367.839 180.608C368.055 189.96 365.309 223.94 369.609 250.662Z" fill="url(#paint64_linear_1551_23443)"/>
<path d="M221.427 132.958L165.047 136.264C165.047 136.264 161.109 104.415 194.173 101.599H194.425L195.871 101.49C196.485 101.454 197.099 101.418 197.75 101.418C212.891 101.129 219.295 115.841 221.427 132.958Z" fill="url(#paint65_linear_1551_23443)"/>
<path d="M274.221 184.817C261.378 186.754 254.921 187.703 241.97 189.54C239.956 189.826 238.35 188.095 238.378 185.683C238.584 168.101 238.611 159.313 238.116 143.167C238.049 140.954 239.61 139.011 241.616 138.795C254.515 137.407 260.945 136.738 273.758 135.357C275.751 135.142 277.467 136.621 277.568 138.711C278.305 153.952 278.186 162.57 277.909 179.944C277.871 182.327 276.218 184.516 274.221 184.817Z" fill="#C2C2C6"/>
<path d="M265.965 177.086C267.661 176.839 269.283 175.36 269.747 173.366C270.016 172.217 270.167 171.032 270.175 169.829C270.211 163.97 267.07 159.541 262.658 158.139C263.628 156.8 264.223 155.126 264.195 153.376C264.137 149.686 261.388 147.096 258.097 147.494C254.806 147.892 252.21 151.17 252.264 154.904C252.29 156.673 252.92 158.205 253.913 159.294C249.527 161.871 246.426 167.239 246.399 173.169C246.393 174.387 246.53 175.544 246.781 176.632C247.216 178.517 248.818 179.544 250.52 179.303C256.71 178.425 259.8 177.982 265.965 177.086Z" fill="white"/>
<path d="M271.603 180.541C260.9 182.13 255.525 182.911 244.748 184.437C243.072 184.675 241.733 183.24 241.752 181.242C241.888 166.907 241.895 159.79 241.545 146.457C241.496 144.599 242.805 142.958 244.477 142.769C255.226 141.552 260.588 140.955 271.277 139.737C272.939 139.547 274.353 140.81 274.42 142.59C274.898 155.363 274.849 162.346 274.666 176.509C274.64 178.483 273.267 180.294 271.603 180.541Z" stroke="#F1F1F2" stroke-width="4.5103" stroke-miterlimit="10"/>
<path d="M357.588 131.068C333.687 134.844 321.618 136.411 297.306 139.43C296.974 139.471 296.691 139.223 296.675 138.88C296.673 138.833 296.671 138.81 296.669 138.763C296.652 138.42 296.909 138.108 297.24 138.067C321.544 135.098 333.61 133.557 357.515 129.808C357.841 129.756 358.123 129.972 358.141 130.289C358.144 130.331 358.145 130.353 358.148 130.396C358.166 130.713 357.913 131.016 357.588 131.068Z" fill="#C2C2C6"/>
<path d="M357.69 134.701C329.075 139.305 314.575 141.181 285.335 144.866C284.971 144.912 284.663 144.629 284.651 144.239C284.638 143.849 284.925 143.494 285.288 143.449C314.521 139.818 329.018 137.974 357.642 133.396C357.998 133.34 358.301 133.585 358.314 133.943C358.327 134.302 358.046 134.644 357.69 134.701Z" fill="#C2C2C6"/>
<path d="M357.785 138.447C329.201 143.115 314.696 145.071 285.441 148.898C285.077 148.945 284.772 148.658 284.763 148.26C284.754 147.863 285.044 147.501 285.407 147.454C314.659 143.676 329.162 141.747 357.758 137.1C358.113 137.043 358.412 137.296 358.419 137.666C358.426 138.036 358.14 138.389 357.785 138.447Z" fill="#C2C2C6"/>
<path d="M357.823 142.303C329.278 147.02 314.774 149.05 285.512 153.002C285.148 153.051 284.846 152.759 284.84 152.355C284.834 151.951 285.127 151.582 285.491 151.533C314.751 147.624 329.256 145.619 357.815 140.918C358.17 140.86 358.463 141.121 358.465 141.502C358.467 141.883 358.177 142.245 357.823 142.303Z" fill="#C2C2C6"/>
<path d="M357.81 146.262C329.313 151.012 314.812 153.108 285.551 157.172C285.188 157.222 284.888 156.927 284.885 156.517C284.882 156.106 285.177 155.731 285.541 155.681C314.802 151.655 329.305 149.582 357.82 144.842C358.174 144.783 358.462 145.052 358.46 145.443C358.457 145.834 358.164 146.203 357.81 146.262Z" fill="#C2C2C6"/>
<path d="M356.695 246.356C318.394 253.064 297.156 257.364 257.095 264.082C256.725 264.144 256.424 263.879 256.427 263.492C256.429 263.105 256.735 262.737 257.105 262.675C297.132 255.988 318.315 251.714 356.574 245.035C356.928 244.974 357.244 245.221 357.277 245.584C357.31 245.947 357.048 246.294 356.695 246.356Z" fill="#C2C2C6"/>
<path d="M357.045 250.025C317.157 257.25 277.302 264.796 237.278 271.236C236.912 271.294 236.617 271.028 236.622 270.644C236.627 270.26 236.929 269.898 237.294 269.841C277.271 263.432 317.078 255.92 356.918 248.725C357.272 248.662 357.591 248.905 357.626 249.262C357.661 249.619 357.399 249.962 357.045 250.025Z" fill="#C2C2C6"/>
<path d="M357.41 253.638C317.388 260.944 277.401 268.583 237.24 275.104C236.874 275.163 236.578 274.904 236.582 274.527C236.585 274.151 236.886 273.794 237.252 273.736C277.364 267.243 317.304 259.636 357.278 252.358C357.634 252.295 357.955 252.532 357.991 252.884C358.028 253.236 357.766 253.575 357.41 253.638Z" fill="#C2C2C6"/>
<path d="M357.789 257.197C317.631 264.575 277.513 272.299 237.217 278.895C236.851 278.954 236.553 278.701 236.555 278.333C236.557 277.964 236.857 277.613 237.223 277.555C277.471 270.984 317.543 263.29 357.652 255.936C358.009 255.872 358.332 256.105 358.369 256.451C358.407 256.798 358.146 257.133 357.789 257.197Z" fill="#C2C2C6"/>
<path d="M358.177 260.703C317.868 268.147 277.598 275.607 237.209 282.602C236.843 282.662 236.544 282.417 236.544 282.056C236.544 281.696 236.844 281.351 237.21 281.292C277.552 274.319 317.777 266.884 358.038 259.461C358.396 259.396 358.72 259.624 358.758 259.966C358.797 260.308 358.535 260.638 358.177 260.703Z" fill="#C2C2C6"/>
<path d="M357.753 150.315C329.31 155.086 314.816 157.241 285.563 161.402C285.199 161.453 284.901 161.155 284.901 160.739C284.901 160.322 285.198 159.941 285.562 159.889C314.818 155.761 329.315 153.627 357.778 148.862C358.132 148.803 358.417 149.08 358.41 149.479C358.403 149.879 358.107 150.256 357.753 150.315Z" fill="#C2C2C6"/>
<path d="M357.66 154.453C329.275 159.231 314.789 161.439 285.549 165.685C285.185 165.738 284.89 165.436 284.892 165.015C284.894 164.594 285.193 164.206 285.557 164.154C314.802 159.937 329.291 157.747 357.697 152.971C358.05 152.911 358.331 153.195 358.321 153.603C358.311 154.011 358.013 154.393 357.66 154.453Z" fill="#C2C2C6"/>
<path d="M357.536 158.667C329.212 163.441 314.738 165.696 285.513 170.015C285.15 170.069 284.856 169.764 284.86 169.339C284.864 168.914 285.165 168.522 285.528 168.469C314.759 164.174 329.237 161.935 357.583 157.159C357.935 157.099 358.213 157.389 358.2 157.804C358.187 158.218 357.888 158.607 357.536 158.667Z" fill="#C2C2C6"/>
<path d="M357.387 162.948C329.128 167.708 314.666 170.005 285.459 174.387C285.096 174.442 284.804 174.134 284.81 173.705C284.816 173.276 285.117 172.881 285.481 172.826C314.693 168.466 329.16 166.183 357.442 161.417C357.794 161.358 358.069 161.653 358.054 162.073C358.038 162.495 357.738 162.889 357.387 162.948Z" fill="#C2C2C6"/>
<path d="M357.22 167.288C329.027 172.024 314.578 174.358 285.391 178.794C285.028 178.849 284.736 178.54 284.744 178.107C284.751 177.674 285.054 177.276 285.417 177.222C314.611 172.804 329.065 170.482 357.281 165.737C357.632 165.678 357.906 165.977 357.889 166.404C357.872 166.83 357.571 167.229 357.22 167.288Z" fill="#C2C2C6"/>
<path d="M355.108 186.223C318.121 192.26 298.836 195.613 259.988 201.44C259.622 201.495 259.331 201.179 259.34 200.738C259.349 200.297 259.655 199.891 260.02 199.836C298.87 194.017 318.154 190.686 355.166 184.625C355.513 184.568 355.784 184.881 355.768 185.321C355.752 185.761 355.455 186.166 355.108 186.223Z" fill="#C2C2C6"/>
<path d="M354.957 190.722C318.035 196.688 298.746 200.097 259.894 205.944C259.529 205.999 259.238 205.684 259.247 205.243C259.257 204.802 259.563 204.396 259.928 204.341C298.778 198.501 318.065 195.112 355.008 189.12C355.355 189.063 355.627 189.378 355.613 189.819C355.599 190.26 355.304 190.666 354.957 190.722Z" fill="#C2C2C6"/>
<path d="M354.829 195.224C317.963 201.117 298.665 204.58 259.801 210.443C259.436 210.498 259.145 210.183 259.154 209.743C259.163 209.303 259.469 208.897 259.835 208.842C298.693 202.985 317.987 199.54 354.871 193.621C355.218 193.566 355.491 193.881 355.48 194.322C355.467 194.762 355.175 195.168 354.829 195.224Z" fill="#C2C2C6"/>
<path d="M254.244 205.989C254.171 209.539 251.717 212.763 248.77 213.195C245.823 213.626 243.497 211.099 243.573 207.549C243.649 203.998 246.098 200.771 249.044 200.342C251.991 199.912 254.319 202.44 254.244 205.989Z" fill="url(#paint66_linear_1551_23443)"/>
<path d="M354.695 205.149C317.83 211.046 298.331 214.586 259.503 220.473C259.138 220.528 258.85 220.216 258.863 219.781C258.876 219.346 259.184 218.944 259.549 218.888C298.378 213.011 317.841 209.485 354.699 203.596C355.045 203.541 355.327 203.846 355.326 204.273C355.325 204.7 355.041 205.094 354.695 205.149Z" fill="#C2C2C6"/>
<path d="M354.716 209.465C317.822 215.392 298.218 218.978 259.381 224.9C259.015 224.956 258.727 224.648 258.738 224.215C258.751 223.782 259.058 223.383 259.424 223.327C298.256 217.42 317.822 213.851 354.703 207.937C355.05 207.881 355.335 208.181 355.339 208.601C355.342 209.021 355.062 209.409 354.716 209.465Z" fill="#C2C2C6"/>
<path d="M354.782 213.712C317.846 219.682 298.127 223.321 259.266 229.292C258.901 229.349 258.611 229.044 258.622 228.615C258.633 228.185 258.941 227.789 259.306 227.733C298.157 221.78 317.834 218.161 354.754 212.208C355.1 212.152 355.39 212.445 355.398 212.859C355.406 213.272 355.129 213.655 354.782 213.712Z" fill="#C2C2C6"/>
<path d="M253.741 224.969C253.646 228.453 251.191 231.604 248.254 232.042C245.315 232.479 243.007 230.028 243.099 226.538C243.191 223.047 245.653 219.848 248.595 219.417C251.537 218.986 253.836 221.486 253.741 224.969Z" fill="url(#paint67_linear_1551_23443)"/>
<path d="M355.081 222.983C318 229.091 298.004 232.868 259.042 238.988C258.676 239.046 258.384 238.75 258.393 238.331C258.401 237.911 258.708 237.521 259.074 237.464C298.016 231.369 317.967 227.616 355.021 221.533C355.369 221.476 355.667 221.756 355.683 222.155C355.7 222.554 355.429 222.926 355.081 222.983Z" fill="#C2C2C6"/>
<path d="M355.275 227.015C318.112 233.198 297.983 237.043 258.958 243.243C258.591 243.301 258.297 243.01 258.306 242.595C258.314 242.18 258.62 241.792 258.987 241.734C297.988 235.563 318.07 231.742 355.202 225.587C355.55 225.53 355.852 225.805 355.872 226.197C355.893 226.59 355.624 226.957 355.275 227.015Z" fill="#C2C2C6"/>
<path d="M355.502 230.984C318.248 237.247 297.981 241.163 258.884 247.448C258.516 247.507 258.221 247.221 258.228 246.811C258.235 246.401 258.541 246.016 258.909 245.957C297.979 239.702 318.197 235.812 355.418 229.578C355.767 229.52 356.072 229.789 356.095 230.176C356.119 230.562 355.852 230.925 355.502 230.984Z" fill="#C2C2C6"/>
<path d="M253.29 243.384C253.219 246.732 250.776 249.776 247.83 250.235C244.884 250.694 242.557 248.38 242.635 245.016C242.713 241.652 245.162 238.527 248.101 238.083C251.041 237.64 253.36 240.035 253.29 243.384Z" fill="url(#paint68_linear_1551_23443)"/>
<path d="M355.055 110.66C315.88 115.383 276.286 117.78 236.922 120.286C237.206 123.906 237.329 125.77 237.541 129.583C277.266 126.193 317.181 122.785 356.689 117.344C356.159 114.462 355.839 113.117 355.055 110.66Z" fill="#C2C2C6"/>
<path d="M403.215 284.316L398.914 285.147H398.878L258.854 312.085C278.44 305.838 280.427 278.394 269.37 267.417L369.609 250.661L413.549 243.331C423.739 253.442 421.716 279.008 403.215 284.316Z" fill="url(#paint69_linear_1551_23443)"/>
<path d="M248.392 314.77C239.381 314.771 232.229 309.897 227.12 300.268C223.264 293.001 220.548 282.892 219.047 270.223C216.506 248.774 218.207 190.776 220.863 145.967C222.092 125.227 216.644 110.719 205.522 105.117C195.714 100.176 183.868 103.197 177.236 108.736C171.636 113.413 168.106 119.41 166.745 126.563C165.721 131.944 166.377 135.999 166.384 136.039L163.712 136.491C163.681 136.311 162.971 132.002 164.062 126.169C165.069 120.784 167.87 113.028 175.498 106.657C182.809 100.552 195.889 97.231 206.742 102.698C212.414 105.555 216.761 110.389 219.662 117.064C222.949 124.626 224.263 134.404 223.568 146.126C220.33 200.765 219.578 251.664 221.739 269.904C223.2 282.24 225.816 292.029 229.515 298.999C234.402 308.21 240.963 312.471 249.575 312.031C268.409 311.063 272.14 298.8 274.608 290.685L274.776 290.134C276.996 282.869 272.251 272.812 268.346 268.302L270.395 266.53C274.823 271.644 279.914 282.593 277.368 290.925L277.201 291.473C275.971 295.516 274.286 301.054 270.315 305.72C265.616 311.242 258.685 314.275 249.714 314.736C249.269 314.759 248.828 314.77 248.392 314.77Z" fill="url(#paint70_linear_1551_23443)"/>
<g opacity="0.46">
<path opacity="0.0323" d="M379.298 238.136C396.143 222.267 395.731 194.49 378.378 176.094C361.024 157.699 333.301 155.65 316.456 171.519C299.61 187.388 300.022 215.165 317.375 233.561C334.729 251.957 362.452 254.005 379.298 238.136Z" fill="#04051C"/>
<path opacity="0.0645" d="M379.466 237.331C395.833 221.597 395.172 194.373 377.991 176.525C360.809 158.676 333.612 156.962 317.245 172.696C300.878 188.43 301.539 215.654 318.72 233.502C335.902 251.351 363.099 253.065 379.466 237.331Z" fill="#04051C"/>
<path opacity="0.0968" d="M379.593 236.52C395.471 220.919 394.552 194.255 377.54 176.963C360.528 159.671 333.864 158.301 317.986 173.902C302.107 189.502 303.026 216.167 320.038 233.458C337.05 250.75 363.714 252.121 379.593 236.52Z" fill="#04051C"/>
<path opacity="0.129" d="M379.719 235.696C395.101 220.225 393.913 194.124 377.066 177.397C360.218 160.671 334.092 159.654 318.71 175.125C303.329 190.596 304.517 216.698 321.364 233.424C338.211 250.15 364.338 251.168 379.719 235.696Z" fill="#04051C"/>
<path opacity="0.1613" d="M379.855 234.834C394.73 219.487 393.259 193.952 376.572 177.801C359.884 161.649 334.298 160.997 319.423 176.344C304.549 191.69 306.019 217.225 322.707 233.377C339.395 249.528 364.981 250.181 379.855 234.834Z" fill="#04051C"/>
<path opacity="0.1935" d="M380.024 233.968C394.382 218.741 392.618 193.777 376.085 178.208C359.551 162.639 334.509 162.362 320.151 177.589C305.793 192.816 307.557 217.78 324.09 233.349C340.624 248.917 365.666 249.194 380.024 233.968Z" fill="#04051C"/>
<path opacity="0.2258" d="M380.182 233.084C394.012 217.975 391.941 193.587 375.558 178.613C359.175 163.639 334.683 163.749 320.854 178.859C307.025 193.968 309.095 218.356 325.478 233.33C341.861 248.304 366.353 248.194 380.182 233.084Z" fill="#04051C"/>
<path opacity="0.2581" d="M380.388 232.192C393.678 217.195 391.287 193.388 375.049 179.018C358.811 164.649 334.874 165.158 321.584 180.155C308.294 195.152 310.685 218.958 326.923 233.328C343.161 247.698 367.098 247.189 380.388 232.192Z" fill="#04051C"/>
<path opacity="0.2903" d="M380.549 231.294C393.284 216.408 390.559 193.193 374.463 179.443C358.368 165.692 334.996 166.613 322.261 181.499C309.527 196.385 312.251 219.599 328.347 233.35C344.443 247.1 367.814 246.18 380.549 231.294Z" fill="#04051C"/>
<path opacity="0.3226" d="M380.747 230.299C392.911 215.518 389.832 192.902 373.871 179.785C357.91 166.668 335.111 168.017 322.947 182.799C310.783 197.58 313.861 220.195 329.822 233.312C345.783 246.429 368.583 245.08 380.747 230.299Z" fill="#04051C"/>
<path opacity="0.3548" d="M380.924 229.333C392.501 214.658 389.057 192.653 373.23 180.185C357.403 167.716 335.187 169.505 323.61 184.181C312.032 198.856 315.477 220.861 331.304 233.329C347.131 245.798 369.346 244.009 380.924 229.333Z" fill="#04051C"/>
<path opacity="0.3871" d="M381.116 228.314C392.09 213.743 388.261 192.361 372.565 180.557C356.869 168.752 335.249 170.996 324.275 185.567C313.301 200.139 317.13 221.521 332.826 233.325C348.522 245.129 370.142 242.886 381.116 228.314Z" fill="#04051C"/>
<path opacity="0.4194" d="M381.329 227.288C391.682 212.821 387.455 192.075 371.889 180.951C356.323 169.826 335.311 172.535 324.958 187.002C314.605 201.469 318.831 222.215 334.398 233.339C349.964 244.464 370.976 241.754 381.329 227.288Z" fill="#04051C"/>
<path opacity="0.4516" d="M381.525 226.198C391.237 211.838 386.597 191.745 371.161 181.319C355.724 170.892 335.337 174.08 325.625 188.439C315.912 202.799 320.552 222.892 335.989 233.318C351.425 243.745 371.812 240.557 381.525 226.198Z" fill="#04051C"/>
<path opacity="0.4839" d="M381.727 225.118C390.782 210.873 385.718 191.45 370.416 181.736C355.114 172.023 335.368 175.696 326.313 189.941C317.258 204.186 322.322 223.609 337.624 233.322C352.926 243.036 372.672 239.363 381.727 225.118Z" fill="#04051C"/>
<path opacity="0.5161" d="M381.913 224.019C390.294 209.898 384.798 191.167 369.637 182.181C354.476 173.196 335.391 177.359 327.01 191.481C318.63 205.602 324.126 224.333 339.287 233.319C354.448 242.304 373.533 238.141 381.913 224.019Z" fill="#04051C"/>
<path opacity="0.5484" d="M382.085 222.862C389.776 208.876 383.841 190.856 368.83 182.613C353.818 174.37 335.415 179.024 327.724 193.01C320.034 206.995 325.968 225.015 340.98 233.258C355.991 241.502 374.395 236.847 382.085 222.862Z" fill="#04051C"/>
<path opacity="0.5806" d="M382.22 221.673C389.208 207.841 382.837 190.555 367.989 183.064C353.141 175.573 335.44 180.713 328.451 194.545C321.463 208.377 327.835 225.663 342.682 233.154C357.53 240.645 375.232 235.505 382.22 221.673Z" fill="#04051C"/>
<path opacity="0.6129" d="M382.314 220.519C388.594 206.864 381.798 190.334 367.133 183.599C352.469 176.864 335.489 182.473 329.209 196.128C322.929 209.783 329.726 226.313 344.39 233.048C359.055 239.783 376.034 234.174 382.314 220.519Z" fill="#04051C"/>
<path opacity="0.6452" d="M382.4 219.326C387.973 205.873 380.768 190.118 366.308 184.136C351.847 178.154 335.607 184.21 330.034 197.663C324.461 211.116 331.666 226.871 346.127 232.853C360.587 238.835 376.828 232.778 382.4 219.326Z" fill="#04051C"/>
<path opacity="0.6774" d="M382.389 218.194C387.262 204.977 379.678 190.015 365.45 184.777C351.222 179.538 335.737 186.006 330.864 199.224C325.991 212.441 333.575 227.403 347.803 232.641C362.031 237.88 377.516 231.412 382.389 218.194Z" fill="#04051C"/>
<path opacity="0.7097" d="M382.391 217.063C386.584 204.113 378.658 189.954 364.688 185.438C350.719 180.922 335.997 187.76 331.804 200.71C327.612 213.66 335.538 227.819 349.507 232.335C363.477 236.851 378.199 230.013 382.391 217.063Z" fill="#04051C"/>
<path opacity="0.7419" d="M382.288 216.002C385.825 203.356 377.604 190.007 363.926 186.186C350.247 182.366 336.291 189.52 332.754 202.166C329.217 214.812 337.438 228.161 351.116 231.982C364.795 235.802 378.751 228.648 382.288 216.002Z" fill="#04051C"/>
<path opacity="0.7742" d="M382.152 214.993C385.071 202.686 376.608 190.145 363.25 186.982C349.892 183.818 336.698 191.231 333.78 203.538C330.861 215.845 339.324 228.386 352.681 231.549C366.039 234.713 379.234 227.3 382.152 214.993Z" fill="#04051C"/>
<path opacity="0.8065" d="M381.955 214.095C384.299 202.161 375.654 190.419 362.647 187.868C349.639 185.317 337.195 192.923 334.851 204.856C332.507 216.789 341.152 228.531 354.159 231.082C367.167 233.633 379.611 226.028 381.955 214.095Z" fill="#04051C"/>
<path opacity="0.8387" d="M381.707 213.282C383.525 201.754 374.76 190.796 362.129 188.806C349.498 186.816 337.784 194.549 335.966 206.077C334.147 217.605 342.913 228.564 355.544 230.553C368.175 232.543 379.888 224.81 381.707 213.282Z" fill="#04051C"/>
<path opacity="0.871" d="M381.389 212.548C382.734 201.452 373.909 191.256 361.677 189.775C349.445 188.294 338.439 196.088 337.093 207.184C335.748 218.28 344.573 228.475 356.805 229.957C369.036 231.438 380.043 223.644 381.389 212.548Z" fill="#04051C"/>
<path opacity="0.9032" d="M381.079 211.921C382.008 201.28 373.183 191.819 361.369 190.789C349.554 189.759 339.223 197.551 338.294 208.192C337.366 218.833 346.19 228.294 358.005 229.324C369.82 230.353 380.15 222.562 381.079 211.921Z" fill="#04051C"/>
<path opacity="0.9355" d="M380.749 211.425C381.316 201.259 372.549 192.502 361.167 191.868C349.785 191.233 340.098 198.961 339.53 209.127C338.963 219.294 347.729 228.05 359.112 228.685C370.494 229.319 380.181 221.592 380.749 211.425Z" fill="#04051C"/>
<path opacity="0.9677" d="M380.382 210.996C380.641 201.317 371.983 193.235 361.044 192.943C350.104 192.651 341.027 200.26 340.768 209.938C340.509 219.616 349.168 227.699 360.107 227.991C371.046 228.283 380.124 220.674 380.382 210.996Z" fill="#04051C"/>
<path d="M361.009 227.258C371.498 227.258 380.001 219.817 380.001 210.638C380.001 201.459 371.498 194.017 361.009 194.017C350.52 194.017 342.017 201.459 342.017 210.638C342.017 219.817 350.52 227.258 361.009 227.258Z" fill="#04051C"/>
</g>
<path d="M440.651 229.764L333.239 246.963C330.879 247.34 328.967 245.707 328.967 243.315V179.32C328.967 176.927 330.879 174.682 333.239 174.304L440.651 157.106C443.01 156.728 444.922 158.361 444.922 160.754V224.749C444.922 227.141 443.01 229.387 440.651 229.764Z" fill="url(#paint71_linear_1551_23443)"/>
<path d="M435.41 217.446L344.008 232.081V181.349L435.41 166.714V217.446Z" stroke="#BBBDBF" stroke-width="1.7842" stroke-miterlimit="10"/>
<path d="M344.008 185.949L435.41 171.314" stroke="#BBBDBF" stroke-width="1.7842" stroke-miterlimit="10"/>
<path d="M344.008 189.809L435.41 175.174" stroke="#BBBDBF" stroke-width="1.7842" stroke-miterlimit="10"/>
<path d="M344.008 193.668L435.41 179.033" stroke="#BBBDBF" stroke-width="1.7842" stroke-miterlimit="10"/>
<path d="M344.008 197.528L435.41 182.893" stroke="#BBBDBF" stroke-width="1.7842" stroke-miterlimit="10"/>
<path d="M344.008 201.388L435.41 186.753" stroke="#BBBDBF" stroke-width="1.7842" stroke-miterlimit="10"/>
<path d="M344.008 205.247L435.41 190.612" stroke="#BBBDBF" stroke-width="1.7842" stroke-miterlimit="10"/>
<path d="M344.008 209.107L435.41 194.472" stroke="#BBBDBF" stroke-width="1.7842" stroke-miterlimit="10"/>
<path d="M344.008 212.966L435.41 198.332" stroke="#BBBDBF" stroke-width="1.7842" stroke-miterlimit="10"/>
<path d="M344.008 216.826L435.41 202.191" stroke="#BBBDBF" stroke-width="1.7842" stroke-miterlimit="10"/>
<path d="M344.008 220.686L435.41 206.051" stroke="#BBBDBF" stroke-width="1.7842" stroke-miterlimit="10"/>
<path d="M344.008 224.546L435.41 209.911" stroke="#BBBDBF" stroke-width="1.7842" stroke-miterlimit="10"/>
<path d="M344.008 228.405L435.41 213.77" stroke="#BBBDBF" stroke-width="1.7842" stroke-miterlimit="10"/>
<path d="M349.058 180.54V231.272" stroke="#BBBDBF" stroke-width="1.7842" stroke-miterlimit="10"/>
<path d="M354.437 179.679V230.411" stroke="#BBBDBF" stroke-width="1.7842" stroke-miterlimit="10"/>
<path d="M359.817 178.817V229.549" stroke="#BBBDBF" stroke-width="1.7842" stroke-miterlimit="10"/>
<path d="M365.196 177.956V228.688" stroke="#BBBDBF" stroke-width="1.7842" stroke-miterlimit="10"/>
<path d="M370.575 177.095V227.827" stroke="#BBBDBF" stroke-width="1.7842" stroke-miterlimit="10"/>
<path d="M375.955 176.233V226.966" stroke="#BBBDBF" stroke-width="1.7842" stroke-miterlimit="10"/>
<path d="M381.334 175.372V226.104" stroke="#BBBDBF" stroke-width="1.7842" stroke-miterlimit="10"/>
<path d="M386.713 174.511V225.243" stroke="#BBBDBF" stroke-width="1.7842" stroke-miterlimit="10"/>
<path d="M392.093 173.65V224.382" stroke="#BBBDBF" stroke-width="1.7842" stroke-miterlimit="10"/>
<path d="M397.472 172.788V223.52" stroke="#BBBDBF" stroke-width="1.7842" stroke-miterlimit="10"/>
<path d="M402.851 171.927V222.659" stroke="#BBBDBF" stroke-width="1.7842" stroke-miterlimit="10"/>
<path d="M408.231 171.065V221.798" stroke="#BBBDBF" stroke-width="1.7842" stroke-miterlimit="10"/>
<path d="M413.61 170.204V220.936" stroke="#BBBDBF" stroke-width="1.7842" stroke-miterlimit="10"/>
<path d="M418.989 169.343V220.075" stroke="#BBBDBF" stroke-width="1.7842" stroke-miterlimit="10"/>
<path d="M424.368 168.482V219.214" stroke="#BBBDBF" stroke-width="1.7842" stroke-miterlimit="10"/>
<path d="M429.748 167.62V218.352" stroke="#BBBDBF" stroke-width="1.7842" stroke-miterlimit="10"/>
<path d="M344.008 219.679L349.058 216.018L359.817 214.295L365.661 209.499L375.273 204.101L385.633 202.442L397.472 191.477L403.789 192.44L412.76 193.767L418.989 191.092L424.369 193.597L430.81 192.816L435.41 187.673" stroke="#F6921E" stroke-width="8.9212" stroke-miterlimit="10"/>
<path d="M344.008 223.339L349.058 222.53L357.04 219.647L363.206 219.462L372.287 215.651L377.668 206.605L383.834 200.087L391.009 201.581L400.875 201.646L407.714 198.907L413.61 200.85L420.719 195.879L427.109 197.653L435.41 196.013" stroke="#33DD70" stroke-width="8.9212" stroke-miterlimit="10"/>
<path d="M379.218 231.509L362.429 234.198C362.241 234.228 362.086 234.096 362.086 233.906C362.086 233.715 362.241 233.534 362.429 233.504L379.218 230.815C379.406 230.785 379.56 230.917 379.56 231.108C379.56 231.299 379.406 231.479 379.218 231.509Z" fill="#BBBDBF"/>
<path d="M360.386 234.243C360.386 234.848 359.902 235.417 359.304 235.513C358.707 235.608 358.222 235.195 358.222 234.589C358.222 233.983 358.707 233.415 359.304 233.319C359.902 233.223 360.386 233.637 360.386 234.243Z" fill="#F6921E"/>
<path d="M409.678 226.632L392.89 229.32C392.701 229.351 392.547 229.219 392.547 229.028C392.547 228.837 392.701 228.657 392.89 228.627L409.678 225.939C409.867 225.908 410.021 226.04 410.021 226.231C410.021 226.421 409.867 226.602 409.678 226.632Z" fill="#BBBDBF"/>
<path d="M390.847 229.365C390.847 229.971 390.362 230.54 389.765 230.635C389.167 230.731 388.683 230.318 388.683 229.712C388.683 229.106 389.168 228.537 389.765 228.442C390.362 228.346 390.847 228.76 390.847 229.365Z" fill="#33DD70"/>
<defs>
<linearGradient id="paint0_linear_1551_23443" x1="391.946" y1="323.918" x2="194.601" y2="320.234" gradientUnits="userSpaceOnUse">
<stop stop-color="#505FAA"/>
<stop offset="1" stop-color="#A2A6D2"/>
</linearGradient>
<linearGradient id="paint1_linear_1551_23443" x1="391.913" y1="323.724" x2="194.568" y2="320.04" gradientUnits="userSpaceOnUse">
<stop stop-color="#EDEFF7"/>
<stop offset="1" stop-color="#CFD5EB"/>
</linearGradient>
<linearGradient id="paint2_linear_1551_23443" x1="159.831" y1="317.286" x2="440.151" y2="317.286" gradientUnits="userSpaceOnUse">
<stop stop-color="#EDEFF7"/>
<stop offset="1" stop-color="#CFD5EB"/>
</linearGradient>
<linearGradient id="paint3_linear_1551_23443" x1="188.493" y1="301.894" x2="207.003" y2="301.894" gradientUnits="userSpaceOnUse">
<stop stop-color="#505FAA"/>
<stop offset="1" stop-color="#2C3C91"/>
</linearGradient>
<linearGradient id="paint4_linear_1551_23443" x1="203.225" y1="298.84" x2="221.034" y2="298.84" gradientUnits="userSpaceOnUse">
<stop stop-color="#505FAA"/>
<stop offset="1" stop-color="#2C3C91"/>
</linearGradient>
<linearGradient id="paint5_linear_1551_23443" x1="217.432" y1="295.852" x2="234.676" y2="295.852" gradientUnits="userSpaceOnUse">
<stop stop-color="#505FAA"/>
<stop offset="1" stop-color="#2C3C91"/>
</linearGradient>
<linearGradient id="paint6_linear_1551_23443" x1="231.181" y1="292.923" x2="247.988" y2="292.923" gradientUnits="userSpaceOnUse">
<stop stop-color="#505FAA"/>
<stop offset="1" stop-color="#2C3C91"/>
</linearGradient>
<linearGradient id="paint7_linear_1551_23443" x1="244.542" y1="290.043" x2="261.028" y2="290.043" gradientUnits="userSpaceOnUse">
<stop stop-color="#505FAA"/>
<stop offset="1" stop-color="#2C3C91"/>
</linearGradient>
<linearGradient id="paint8_linear_1551_23443" x1="257.583" y1="287.207" x2="273.858" y2="287.207" gradientUnits="userSpaceOnUse">
<stop stop-color="#505FAA"/>
<stop offset="1" stop-color="#2C3C91"/>
</linearGradient>
<linearGradient id="paint9_linear_1551_23443" x1="270.373" y1="284.407" x2="286.535" y2="284.407" gradientUnits="userSpaceOnUse">
<stop stop-color="#505FAA"/>
<stop offset="1" stop-color="#2C3C91"/>
</linearGradient>
<linearGradient id="paint10_linear_1551_23443" x1="282.981" y1="281.634" x2="299.119" y2="281.634" gradientUnits="userSpaceOnUse">
<stop stop-color="#505FAA"/>
<stop offset="1" stop-color="#2C3C91"/>
</linearGradient>
<linearGradient id="paint11_linear_1551_23443" x1="295.475" y1="278.881" x2="311.669" y2="278.881" gradientUnits="userSpaceOnUse">
<stop stop-color="#505FAA"/>
<stop offset="1" stop-color="#2C3C91"/>
</linearGradient>
<linearGradient id="paint12_linear_1551_23443" x1="307.924" y1="276.141" x2="324.246" y2="276.141" gradientUnits="userSpaceOnUse">
<stop stop-color="#505FAA"/>
<stop offset="1" stop-color="#2C3C91"/>
</linearGradient>
<linearGradient id="paint13_linear_1551_23443" x1="320.397" y1="273.406" x2="336.907" y2="273.406" gradientUnits="userSpaceOnUse">
<stop stop-color="#505FAA"/>
<stop offset="1" stop-color="#2C3C91"/>
</linearGradient>
<linearGradient id="paint14_linear_1551_23443" x1="332.962" y1="270.668" x2="349.713" y2="270.668" gradientUnits="userSpaceOnUse">
<stop stop-color="#505FAA"/>
<stop offset="1" stop-color="#2C3C91"/>
</linearGradient>
<linearGradient id="paint15_linear_1551_23443" x1="198.177" y1="309.685" x2="217.609" y2="309.685" gradientUnits="userSpaceOnUse">
<stop stop-color="#505FAA"/>
<stop offset="1" stop-color="#2C3C91"/>
</linearGradient>
<linearGradient id="paint16_linear_1551_23443" x1="212.421" y1="306.561" x2="231.145" y2="306.561" gradientUnits="userSpaceOnUse">
<stop stop-color="#505FAA"/>
<stop offset="1" stop-color="#2C3C91"/>
</linearGradient>
<linearGradient id="paint17_linear_1551_23443" x1="226.259" y1="303.49" x2="244.4" y2="303.49" gradientUnits="userSpaceOnUse">
<stop stop-color="#505FAA"/>
<stop offset="1" stop-color="#2C3C91"/>
</linearGradient>
<linearGradient id="paint18_linear_1551_23443" x1="239.746" y1="300.461" x2="257.422" y2="300.461" gradientUnits="userSpaceOnUse">
<stop stop-color="#505FAA"/>
<stop offset="1" stop-color="#2C3C91"/>
</linearGradient>
<linearGradient id="paint19_linear_1551_23443" x1="252.939" y1="297.466" x2="270.257" y2="297.466" gradientUnits="userSpaceOnUse">
<stop stop-color="#505FAA"/>
<stop offset="1" stop-color="#2C3C91"/>
</linearGradient>
<linearGradient id="paint20_linear_1551_23443" x1="265.894" y1="294.495" x2="282.952" y2="294.495" gradientUnits="userSpaceOnUse">
<stop stop-color="#505FAA"/>
<stop offset="1" stop-color="#2C3C91"/>
</linearGradient>
<linearGradient id="paint21_linear_1551_23443" x1="278.667" y1="291.538" x2="295.554" y2="291.538" gradientUnits="userSpaceOnUse">
<stop stop-color="#505FAA"/>
<stop offset="1" stop-color="#2C3C91"/>
</linearGradient>
<linearGradient id="paint22_linear_1551_23443" x1="291.314" y1="288.587" x2="308.109" y2="288.587" gradientUnits="userSpaceOnUse">
<stop stop-color="#505FAA"/>
<stop offset="1" stop-color="#2C3C91"/>
</linearGradient>
<linearGradient id="paint23_linear_1551_23443" x1="303.891" y1="285.631" x2="320.665" y2="285.631" gradientUnits="userSpaceOnUse">
<stop stop-color="#505FAA"/>
<stop offset="1" stop-color="#2C3C91"/>
</linearGradient>
<linearGradient id="paint24_linear_1551_23443" x1="316.455" y1="282.662" x2="333.269" y2="282.662" gradientUnits="userSpaceOnUse">
<stop stop-color="#505FAA"/>
<stop offset="1" stop-color="#2C3C91"/>
</linearGradient>
<linearGradient id="paint25_linear_1551_23443" x1="329.062" y1="279.67" x2="345.966" y2="279.67" gradientUnits="userSpaceOnUse">
<stop stop-color="#505FAA"/>
<stop offset="1" stop-color="#2C3C91"/>
</linearGradient>
<linearGradient id="paint26_linear_1551_23443" x1="341.767" y1="276.646" x2="358.804" y2="276.646" gradientUnits="userSpaceOnUse">
<stop stop-color="#505FAA"/>
<stop offset="1" stop-color="#2C3C91"/>
</linearGradient>
<linearGradient id="paint27_linear_1551_23443" x1="209.568" y1="318.165" x2="228.886" y2="318.165" gradientUnits="userSpaceOnUse">
<stop stop-color="#505FAA"/>
<stop offset="1" stop-color="#2C3C91"/>
</linearGradient>
<linearGradient id="paint28_linear_1551_23443" x1="223.2" y1="314.917" x2="241.882" y2="314.917" gradientUnits="userSpaceOnUse">
<stop stop-color="#505FAA"/>
<stop offset="1" stop-color="#2C3C91"/>
</linearGradient>
<linearGradient id="paint29_linear_1551_23443" x1="236.544" y1="311.708" x2="254.708" y2="311.708" gradientUnits="userSpaceOnUse">
<stop stop-color="#505FAA"/>
<stop offset="1" stop-color="#2C3C91"/>
</linearGradient>
<linearGradient id="paint30_linear_1551_23443" x1="249.644" y1="308.526" x2="267.396" y2="308.526" gradientUnits="userSpaceOnUse">
<stop stop-color="#505FAA"/>
<stop offset="1" stop-color="#2C3C91"/>
</linearGradient>
<linearGradient id="paint31_linear_1551_23443" x1="262.544" y1="305.36" x2="279.982" y2="305.36" gradientUnits="userSpaceOnUse">
<stop stop-color="#505FAA"/>
<stop offset="1" stop-color="#2C3C91"/>
</linearGradient>
<linearGradient id="paint32_linear_1551_23443" x1="275.288" y1="302.199" x2="292.5" y2="302.199" gradientUnits="userSpaceOnUse">
<stop stop-color="#505FAA"/>
<stop offset="1" stop-color="#2C3C91"/>
</linearGradient>
<linearGradient id="paint33_linear_1551_23443" x1="287.918" y1="299.032" x2="304.984" y2="299.032" gradientUnits="userSpaceOnUse">
<stop stop-color="#505FAA"/>
<stop offset="1" stop-color="#2C3C91"/>
</linearGradient>
<linearGradient id="paint34_linear_1551_23443" x1="300.48" y1="295.847" x2="317.468" y2="295.847" gradientUnits="userSpaceOnUse">
<stop stop-color="#505FAA"/>
<stop offset="1" stop-color="#2C3C91"/>
</linearGradient>
<linearGradient id="paint35_linear_1551_23443" x1="331.698" y1="311.946" x2="322.652" y2="349.159" gradientUnits="userSpaceOnUse">
<stop stop-color="#C6CCE4"/>
<stop offset="1" stop-color="#5562A7"/>
</linearGradient>
<linearGradient id="paint36_linear_1551_23443" x1="313.015" y1="292.634" x2="329.986" y2="292.634" gradientUnits="userSpaceOnUse">
<stop stop-color="#505FAA"/>
<stop offset="1" stop-color="#2C3C91"/>
</linearGradient>
<linearGradient id="paint37_linear_1551_23443" x1="325.569" y1="289.381" x2="342.573" y2="289.381" gradientUnits="userSpaceOnUse">
<stop stop-color="#505FAA"/>
<stop offset="1" stop-color="#2C3C91"/>
</linearGradient>
<linearGradient id="paint38_linear_1551_23443" x1="338.184" y1="284.41" x2="368.09" y2="284.41" gradientUnits="userSpaceOnUse">
<stop stop-color="#505FAA"/>
<stop offset="1" stop-color="#2C3C91"/>
</linearGradient>
<linearGradient id="paint39_linear_1551_23443" x1="221.326" y1="326.579" x2="239.579" y2="326.579" gradientUnits="userSpaceOnUse">
<stop stop-color="#505FAA"/>
<stop offset="1" stop-color="#2C3C91"/>
</linearGradient>
<linearGradient id="paint40_linear_1551_23443" x1="234.329" y1="323.218" x2="252.103" y2="323.218" gradientUnits="userSpaceOnUse">
<stop stop-color="#505FAA"/>
<stop offset="1" stop-color="#2C3C91"/>
</linearGradient>
<linearGradient id="paint41_linear_1551_23443" x1="247.164" y1="319.882" x2="264.564" y2="319.882" gradientUnits="userSpaceOnUse">
<stop stop-color="#505FAA"/>
<stop offset="1" stop-color="#2C3C91"/>
</linearGradient>
<linearGradient id="paint42_linear_1551_23443" x1="259.862" y1="316.558" x2="276.986" y2="316.558" gradientUnits="userSpaceOnUse">
<stop stop-color="#505FAA"/>
<stop offset="1" stop-color="#2C3C91"/>
</linearGradient>
<linearGradient id="paint43_linear_1551_23443" x1="272.453" y1="313.233" x2="289.388" y2="313.233" gradientUnits="userSpaceOnUse">
<stop stop-color="#505FAA"/>
<stop offset="1" stop-color="#2C3C91"/>
</linearGradient>
<linearGradient id="paint44_linear_1551_23443" x1="284.969" y1="309.894" x2="301.795" y2="309.894" gradientUnits="userSpaceOnUse">
<stop stop-color="#505FAA"/>
<stop offset="1" stop-color="#2C3C91"/>
</linearGradient>
<linearGradient id="paint45_linear_1551_23443" x1="297.442" y1="306.527" x2="314.226" y2="306.527" gradientUnits="userSpaceOnUse">
<stop stop-color="#505FAA"/>
<stop offset="1" stop-color="#2C3C91"/>
</linearGradient>
<linearGradient id="paint46_linear_1551_23443" x1="309.902" y1="303.121" x2="326.704" y2="303.121" gradientUnits="userSpaceOnUse">
<stop stop-color="#505FAA"/>
<stop offset="1" stop-color="#2C3C91"/>
</linearGradient>
<linearGradient id="paint47_linear_1551_23443" x1="322.38" y1="299.662" x2="339.251" y2="299.662" gradientUnits="userSpaceOnUse">
<stop stop-color="#505FAA"/>
<stop offset="1" stop-color="#2C3C91"/>
</linearGradient>
<linearGradient id="paint48_linear_1551_23443" x1="334.907" y1="296.137" x2="351.887" y2="296.137" gradientUnits="userSpaceOnUse">
<stop stop-color="#505FAA"/>
<stop offset="1" stop-color="#2C3C91"/>
</linearGradient>
<linearGradient id="paint49_linear_1551_23443" x1="347.516" y1="292.533" x2="364.636" y2="292.533" gradientUnits="userSpaceOnUse">
<stop stop-color="#505FAA"/>
<stop offset="1" stop-color="#2C3C91"/>
</linearGradient>
<linearGradient id="paint50_linear_1551_23443" x1="360.235" y1="288.838" x2="377.518" y2="288.838" gradientUnits="userSpaceOnUse">
<stop stop-color="#505FAA"/>
<stop offset="1" stop-color="#2C3C91"/>
</linearGradient>
<linearGradient id="paint51_linear_1551_23443" x1="232.11" y1="334.17" x2="248.435" y2="334.17" gradientUnits="userSpaceOnUse">
<stop stop-color="#505FAA"/>
<stop offset="1" stop-color="#2C3C91"/>
</linearGradient>
<linearGradient id="paint52_linear_1551_23443" x1="244.578" y1="330.774" x2="260.66" y2="330.774" gradientUnits="userSpaceOnUse">
<stop stop-color="#505FAA"/>
<stop offset="1" stop-color="#2C3C91"/>
</linearGradient>
<linearGradient id="paint53_linear_1551_23443" x1="256.997" y1="327.389" x2="272.933" y2="327.389" gradientUnits="userSpaceOnUse">
<stop stop-color="#505FAA"/>
<stop offset="1" stop-color="#2C3C91"/>
</linearGradient>
<linearGradient id="paint54_linear_1551_23443" x1="269.385" y1="316.92" x2="335.329" y2="316.92" gradientUnits="userSpaceOnUse">
<stop stop-color="#505FAA"/>
<stop offset="1" stop-color="#2C3C91"/>
</linearGradient>
<linearGradient id="paint55_linear_1551_23443" x1="331.519" y1="306.489" x2="348.079" y2="306.489" gradientUnits="userSpaceOnUse">
<stop stop-color="#505FAA"/>
<stop offset="1" stop-color="#2C3C91"/>
</linearGradient>
<linearGradient id="paint56_linear_1551_23443" x1="344.114" y1="302.77" x2="360.941" y2="302.77" gradientUnits="userSpaceOnUse">
<stop stop-color="#505FAA"/>
<stop offset="1" stop-color="#2C3C91"/>
</linearGradient>
<linearGradient id="paint57_linear_1551_23443" x1="356.808" y1="298.944" x2="373.923" y2="298.944" gradientUnits="userSpaceOnUse">
<stop stop-color="#505FAA"/>
<stop offset="1" stop-color="#2C3C91"/>
</linearGradient>
<linearGradient id="paint58_linear_1551_23443" x1="369.621" y1="294.996" x2="387.036" y2="294.996" gradientUnits="userSpaceOnUse">
<stop stop-color="#505FAA"/>
<stop offset="1" stop-color="#2C3C91"/>
</linearGradient>
<linearGradient id="paint59_linear_1551_23443" x1="181.065" y1="291.018" x2="180.607" y2="286.862" gradientUnits="userSpaceOnUse">
<stop stop-color="#505FAA"/>
<stop offset="1" stop-color="#2C3C91"/>
</linearGradient>
<linearGradient id="paint60_linear_1551_23443" x1="332.608" y1="263.627" x2="332.149" y2="259.47" gradientUnits="userSpaceOnUse">
<stop stop-color="#505FAA"/>
<stop offset="1" stop-color="#2C3C91"/>
</linearGradient>
<linearGradient id="paint61_linear_1551_23443" x1="236.306" y1="139.184" x2="245.074" y2="260.547" gradientUnits="userSpaceOnUse">
<stop stop-color="#505FAA"/>
<stop offset="1" stop-color="#A2A6D2"/>
</linearGradient>
<linearGradient id="paint62_linear_1551_23443" x1="245.945" y1="279.246" x2="243.51" y2="121.816" gradientUnits="userSpaceOnUse">
<stop stop-color="#505FAA"/>
<stop offset="1" stop-color="#A2A6D2"/>
</linearGradient>
<linearGradient id="paint63_linear_1551_23443" x1="249.741" y1="250.007" x2="238.138" y2="144.759" gradientUnits="userSpaceOnUse">
<stop stop-color="#F58B21"/>
<stop offset="1" stop-color="#F5B419"/>
</linearGradient>
<linearGradient id="paint64_linear_1551_23443" x1="195.871" y1="202.691" x2="370.605" y2="202.691" gradientUnits="userSpaceOnUse">
<stop stop-color="#F9FCFF"/>
<stop offset="1" stop-color="#E7EDF7"/>
</linearGradient>
<linearGradient id="paint65_linear_1551_23443" x1="201.508" y1="96.408" x2="189.307" y2="146.606" gradientUnits="userSpaceOnUse">
<stop stop-color="#99A2CC"/>
<stop offset="1" stop-color="#E7EDF7"/>
</linearGradient>
<linearGradient id="paint66_linear_1551_23443" x1="243.572" y1="206.769" x2="254.246" y2="206.769" gradientUnits="userSpaceOnUse">
<stop stop-color="#505FAA"/>
<stop offset="1" stop-color="#A2A6D2"/>
</linearGradient>
<linearGradient id="paint67_linear_1551_23443" x1="243.096" y1="225.73" x2="253.744" y2="225.73" gradientUnits="userSpaceOnUse">
<stop stop-color="#505FAA"/>
<stop offset="1" stop-color="#A2A6D2"/>
</linearGradient>
<linearGradient id="paint68_linear_1551_23443" x1="242.633" y1="244.162" x2="253.291" y2="244.162" gradientUnits="userSpaceOnUse">
<stop stop-color="#505FAA"/>
<stop offset="1" stop-color="#A2A6D2"/>
</linearGradient>
<linearGradient id="paint69_linear_1551_23443" x1="258.855" y1="277.708" x2="419.646" y2="277.708" gradientUnits="userSpaceOnUse">
<stop stop-color="#99A2CC"/>
<stop offset="1" stop-color="#E7EDF7"/>
</linearGradient>
<linearGradient id="paint70_linear_1551_23443" x1="163.456" y1="207.35" x2="278.049" y2="207.35" gradientUnits="userSpaceOnUse">
<stop stop-color="#99A2CC"/>
<stop offset="1" stop-color="#E7EDF7"/>
</linearGradient>
<linearGradient id="paint71_linear_1551_23443" x1="328.967" y1="211.318" x2="444.922" y2="211.318" gradientUnits="userSpaceOnUse">
<stop stop-color="#F9FCFF"/>
<stop offset="1" stop-color="#E7EDF7"/>
</linearGradient>
</defs>
</svg>
